<?xml version="1.0" encoding="UTF-8"?>
<svg xmlns="http://www.w3.org/2000/svg" fill="none" viewBox="0 0 71 90">
  <path fill="#00A3E0" d="M67.869 66.138c-.318-1.32-2.854-2.353-2.854-2.353l1.404-2.554s1.285-2.365-1.44-4.385c-2.027-1.497-4.445-.986-4.445-.986s.106-3.196-.849-6c-1.45-4.241-4.976-6.213-3.656-12.903.743-3.766 3.456-7.069 3.456-7.069l-5.106-9.398s-2.04 1.865-5.755 1.152c-3.078-.593-6.12-2.685-5.696-5.762.625-4.538 5.354-4.503 5.354-4.503s-.06-.974-.649-1.865c-.59-.891-1.78-.82-1.78-.82s-.59-1.188-1.333-1.64c-.743-.451-1.78-.297-1.78-.297s1.084 4.397-1.486 4.753c-1.003.143.436-2.709-.508-3.042-1.167-.415-1.544 2.472-2.759 2.187-1.297-.298-.495-2.341.625-3.446.86-.867 1.993-.891 1.993-.891s-.755-1.034-2.087-1.034c-1.333 0-1.816.44-1.816.44s-.26-.666-.472-.974c-.295-.44-.743-.749-.743-.749h-.094s-.449.309-.743.749c-.212.308-.472.974-.472.974s-.483-.44-1.816-.44c-1.333 0-2.087 1.034-2.087 1.034s1.132.035 1.993.89c1.12 1.118 1.922 3.15.625 3.446-1.203.298-1.592-2.59-2.748-2.174-.943.333.495 3.184-.507 3.042-2.57-.357-1.486-4.753-1.486-4.753s-1.038-.154-1.78.297c-.744.452-1.333 1.64-1.333 1.64s-1.18-.071-1.78.82a4.227 4.227 0 0 0-.65 1.865s4.73-.035 5.354 4.503c.425 3.065-2.617 5.168-5.695 5.762-3.703.713-5.755-1.152-5.755-1.152L11.407 29.9s2.712 3.303 3.455 7.07c1.32 6.688-2.205 8.66-3.656 12.902-.955 2.816-.849 6-.849 6s-2.429-.51-4.445.986c-2.725 2.02-1.44 4.385-1.44 4.385l1.404 2.554s-2.535 1.034-2.854 2.352c-.342 1.402.46 3.28.46 4.92 0 1.639-.424 2.672.613 3.647 1.038.974 5.496 2.661 10.52 2.138 5.282-.558 9.917-2.162 11.414-1.164 2.878 1.925.838 4.752 1.133 6.428.471 2.614 5.448 3.505 8.23 3.505h.095c2.771 0 7.76-.892 8.231-3.505.307-1.676-1.745-4.503 1.132-6.428 1.486-.998 6.132.606 11.415 1.164 5.024.523 9.481-1.164 10.52-2.138 1.037-.975.612-2.008.612-3.648.012-1.651.814-3.517.472-4.93Zm-3.691-8.199c1.91 1.272 1.58 2.543-.342 1.96-1.51-.462-2.57-1.995-2.57-1.995s0 .618-.036 1.651c-.035 1.034-.283 1.367-.283 1.367s-.932-.214-1.085-2.15c-.13-1.926 2.134-2.27 4.316-.832Zm.684 3.363-1.05 1.96s-.53-.309-1.084-.653c-.555-.345-.956-.713-.956-.713l.401-1.687s.213.344 1.18.784c.955.428 1.509.309 1.509.309ZM40.711 13.23c.448 0 .802.356.802.808a.798.798 0 0 1-.802.808.798.798 0 0 1-.802-.808c0-.44.366-.808.802-.808Zm-2.488-.903c.448 0 .802.356.802.808a.798.798 0 0 1-.802.808.798.798 0 0 1-.802-.808c0-.44.354-.808.802-.808Zm-2.819-.31c.449 0 .802.357.802.809a.798.798 0 0 1-.802.808.798.798 0 0 1-.801-.808c0-.44.365-.808.801-.808Zm-2.712.31c.448 0 .802.356.802.808a.798.798 0 0 1-.802.808.798.798 0 0 1-.802-.808c0-.44.366-.808.802-.808Zm-2.5.903c.448 0 .802.356.802.808a.798.798 0 0 1-.802.808.798.798 0 0 1-.802-.808c.012-.44.366-.808.802-.808Zm5.26 1.924c4.02 0 7.287 2.282 7.287 5.098 0 2.815-3.266 5.096-7.287 5.096-4.022 0-7.288-2.28-7.288-5.096 0-2.816 3.266-5.098 7.288-5.098ZM12.492 50.3c.471-1.117.99-2.186 1.615-3.244 1.45-2.459 3.09-5.24 2.076-10.36-.59-2.994-2.288-5.68-3.184-6.927l4.021-7.402c.85.404 2.064.784 3.608.784.59 0 1.215-.059 1.887-.19 1.663-.32 3.196-.986 4.375-1.912.248 1.497 1.156 2.863 2.642 3.896 1.592 1.117 3.703 1.735 5.908 1.735 2.217 0 4.316-.618 5.908-1.735 1.486-1.033 2.394-2.4 2.641-3.896 1.18.914 2.713 1.592 4.375 1.912.672.131 1.31.19 1.887.19 1.545 0 2.76-.38 3.609-.784l4.02 7.402c-.895 1.248-2.594 3.921-3.183 6.927-1.014 5.133.625 7.913 2.075 10.36a27.66 27.66 0 0 1 1.616 3.244c1.922 4.503.035 10.812-2.901 13.295-3.774 3.184-8.066 1.925-12.665 3.28-6.474 1.9-7.323 6.76-7.323 6.76h-.118s-.861-4.86-7.323-6.76c-4.6-1.343-8.904-.096-12.665-3.28-2.949-2.483-4.824-8.804-2.901-13.295Zm43.773 14.4s.52 1.734 1.45 2.733c.932.998 2.347 1.936 2.347 1.936s-2.818.404-6.403-.214c-3.585-.618-3.585-.689-4.705-.903-2.075-.404-4.387-.392-4.387-.392 1.109-.214 2.205-.32 3.279-.416 2.83-.261 5.73-.522 8.42-2.744Zm-19.693 9.683s.979.808 1.474 1.402c.495.594.955 1.402.955 1.402s-.613.618-1.58.867c-.955.25-1.981.285-1.981.285h-.012s-1.026-.035-1.981-.285c-.955-.25-1.58-.867-1.58-.867s.46-.808.955-1.402c.495-.594 1.474-1.402 1.474-1.402.46 1.07.625 1.83.625 1.83h1.002c.024.012.189-.76.649-1.83Zm-10.248-6.535s-2.323-.011-4.387.392c-1.108.214-1.108.286-4.705.903-3.585.618-6.403.214-6.403.214s1.427-.938 2.347-1.936c.931-.998 1.45-2.733 1.45-2.733 2.689 2.222 5.602 2.483 8.408 2.733 1.085.107 2.182.225 3.29.427ZM6.714 57.94c2.181-1.45 4.457-1.094 4.304.831-.154 1.937-1.085 2.15-1.085 2.15s-.248-.344-.283-1.366c-.036-1.021-.036-1.651-.036-1.651s-1.037 1.52-2.559 1.996c-1.91.594-2.252-.69-.342-1.96Zm2.417 3.956s-.401.368-.955.713c-.555.344-1.085.653-1.085.653l-1.05-1.96s.554.119 1.51-.309c.955-.428 1.179-.784 1.179-.784l.4 1.687Zm-1.109 2.329c2.595-1.592 3.739-3.268 3.739-3.268.448 1.01 1.026 1.818 1.639 2.59 0 0-.036 1.497-1.51 3.09-1.085 1.152-2.9 2.305-2.9 2.305s-1.699-.404-2.784-.785c-1.085-.368-1.863-.962-1.886-1.497-.048-.784 1.356-.998 3.702-2.435Zm18.703 9.944c-1.545-.44-3.927-.024-3.927-.024-.872.12-1.863.31-2.971.511-1.616.297-3.444.642-5.342.844-.602.06-1.191.095-1.77.095-3.961 0-7.145-1.343-7.711-1.877-.284-.262-.307-.428-.236-1.474.023-.344.047-.736.047-1.188 0-.82-.153-1.627-.295-2.412 0 0 3.915 2.531 9.233 2.163 5.319-.368 8.397-1.438 11.534-1.747 6.615-.653 8.136 4.111 8.136 4.111s-1.144 1.188-1.545 1.592c-.4.404-1.356 1.687-1.356 1.687s-2.252-1.853-3.797-2.28Zm15.684 7.687c-.248 1.379-3.856 2.4-6.91 2.4h-.095c-3.054 0-6.662-1.022-6.91-2.4-.047-.261.07-.808.165-1.307.2-.986.495-2.4-.012-3.766 0 0 1.45 1.236 3.055 1.984 1.603.749 3.679.844 3.679.844h.13s2.075-.095 3.679-.844c1.604-.748 3.054-1.984 3.054-1.984-.507 1.366-.224 2.78-.012 3.766.106.5.224 1.046.177 1.307Zm23.715-9.612c.07 1.046.047 1.212-.236 1.474-.566.522-3.738 1.877-7.712 1.877-.578 0-1.168-.024-1.77-.095-1.886-.202-3.714-.535-5.341-.844-1.109-.202-2.1-.392-2.972-.51 0 0-2.382-.416-3.927.023-1.545.44-3.809 2.27-3.809 2.27s-.955-1.284-1.356-1.688c-.4-.404-1.545-1.592-1.545-1.592s1.51-4.764 8.137-4.11c3.149.308 6.215 1.366 11.533 1.746 5.319.368 9.234-2.162 9.234-2.162-.142.784-.295 1.592-.295 2.411 0 .452.035.856.059 1.2Zm-1.415-4.087c-1.085.369-2.783.785-2.783.785s-1.828-1.153-2.913-2.305c-1.486-1.593-1.51-3.09-1.51-3.09.614-.772 1.191-1.58 1.64-2.59 0 0 1.143 1.687 3.738 3.268 2.347 1.437 3.738 1.651 3.715 2.435-.024.535-.814 1.117-1.887 1.497Z"></path>
  <path fill="#00A3E0" d="M54.002 54.602c1.946-1.212 1.981-3.22 1.981-3.22s-.448-.095-1.592.13c-1.143.215-1.993.916-1.993.916s.649-.903.614-2.994c-.036-2.092-1.45-2.994-1.45-2.994s-.991 1.188-1.18 3.053c-.189 1.865.837 3.362.837 3.362l-.53.868s0-.986-.307-1.985c-.307-.998-1.061-1.52-1.061-1.52s-.956 1.188-.967 3.314c-.012 1.937.967 2.721.967 2.721l-1.038 1.248s.212-.998.118-2.02c-.095-1.034-.649-1.687-.649-1.687s-1.203.808-1.604 2.744c-.4 1.937.154 3.208.154 3.208l-.979.856s.519-1.129.507-2.115c-.012-.927-.4-1.913-.4-1.913s-1.392.749-1.829 2.364c-.436 1.616.071 2.864.071 2.864l-1.816.938s.778-.665 1.156-2.09c.365-1.438.094-2.27.094-2.27s-1.427.404-2.347 1.937c-.931 1.52-.778 3.017-.778 3.017l-1.427.559s.684-.808 1.144-1.652c.46-.843.436-2.15.436-2.15s-1.427.06-2.9 1.592c-1.486 1.52-1.392 2.994-1.392 2.994l-.401.143-.401-.143s.094-1.461-1.392-2.994c-1.485-1.533-2.9-1.604-2.9-1.604s-.036 1.307.436 2.15c.46.844 1.144 1.652 1.144 1.652l-1.427-.558s.153-1.497-.779-3.018c-.931-1.521-2.346-1.937-2.346-1.937s-.283.844.094 2.27c.366 1.437 1.156 2.09 1.156 2.09l-1.816-.926s.507-1.248.07-2.864c-.436-1.615-1.827-2.364-1.827-2.364s-.39.986-.401 1.913c-.012.986.507 2.115.507 2.115l-.979-.856s.554-1.283.153-3.208c-.4-1.936-1.603-2.744-1.603-2.744s-.555.653-.649 1.687a7.593 7.593 0 0 0 .118 2.02l-1.038-1.248s.979-.784.967-2.72c-.012-2.127-.967-3.315-.967-3.315s-.755.534-1.061 1.52c-.307.998-.307 1.985-.307 1.985l-.53-.868s1.026-1.497.837-3.362c-.189-1.865-1.18-3.053-1.18-3.053s-1.426.902-1.45 2.994c-.035 2.09.613 2.994.613 2.994s-.849-.701-1.993-.915c-1.143-.214-1.592-.131-1.592-.131s.036 2.008 1.982 3.22c1.945 1.212 3.313 1.212 3.313 1.212l.342.44s-.896-.44-2.264-.56c-1.368-.118-2.099.06-2.099.06s.543 2.198 2.594 2.685c1.852.44 3.232.012 3.232.012l.566.582s-.65-.13-1.852-.13c-1.203 0-2.217.428-2.217.428s.802 1.853 3.243 2.257c2.441.404 3.396-.095 3.396-.095l.53.392s-.624-.143-2.145.166c-1.51.31-1.545.594-1.545.594s1.203 1.616 3.49 1.557c2.288-.06 2.595-.808 2.595-.808l.802.368s-.496-.06-1.109.345c-.613.404-.684.784-.684.784s1.109.962 3.066 1.034c1.946.059 3.03-.69 3.03-.69l.555.155-3.054 1.034.436.653 4.328-1.212 4.328 1.212.436-.653-3.054-1.034.554-.154s1.085.748 3.03.689c1.947-.06 3.067-1.034 3.067-1.034s-.059-.368-.684-.784c-.613-.404-1.108-.345-1.108-.345l.801-.368s.307.736 2.595.808c2.287.071 3.49-1.557 3.49-1.557s-.035-.285-1.544-.594c-1.51-.309-2.147-.166-2.147-.166l.53-.392s.956.499 3.397.095 3.243-2.258 3.243-2.258-1.014-.427-2.217-.427-1.851.13-1.851.13l.566-.582s1.391.428 3.23-.012c2.065-.487 2.595-2.685 2.595-2.685s-.731-.178-2.099-.06c-1.356.12-2.264.56-2.264.56l.342-.44c.035 0 1.391 0 3.337-1.212Z"></path>
  <path fill="#00A3E0" d="m37.691 21.406-1.71-.832.826 1.723h-2.783l.802-1.71-1.687.819v-2.804l1.675.796-.79-1.687h2.783l-.814 1.699 1.698-.808v2.804Zm-16.144 7.687-1.096-.463c.46-.178.778-.63.778-1.153 0-.689-.554-1.247-1.238-1.247-.378 0-.72.166-.944.44a1.368 1.368 0 0 0-1.202-.714 1.393 1.393 0 0 0-.401 2.72 1.293 1.293 0 0 0-.248.75c0 .689.554 1.247 1.238 1.247.543 0 .99-.344 1.168-.831l.613 1.033 1.332-1.782Zm28.974 1.794.614-1.034c.165.488.625.832 1.167.832.684 0 1.238-.558 1.238-1.247 0-.285-.094-.547-.247-.749.566-.166.978-.7.978-1.33 0-.761-.613-1.39-1.38-1.39-.518 0-.966.284-1.202.712a1.214 1.214 0 0 0-.944-.44c-.683 0-1.238.559-1.238 1.248 0 .523.319.974.779 1.153l-1.097.463 1.332 1.782ZM45.616 48.97c0-6.285-4.552-11.394-10.154-11.394-5.6 0-10.153 5.11-10.153 11.394 0 6.285 4.552 11.394 10.153 11.394 5.59-.012 10.154-5.12 10.154-11.394Zm-1.168 0c0 5.644-4.02 10.206-8.986 10.206-4.964 0-8.985-4.574-8.985-10.206 0-5.643 4.02-10.206 8.985-10.206 4.953-.012 8.986 4.563 8.986 10.206Zm-5.99 2.578c-.613.975-1.415 2.305-1.415 3.41 0 .31 1.356-.344 1.71.927.059.214-.118 1.509-1.77 1.105-.754-.19-1.32-.784-1.52-1.01h-.166c-.188.226-.766.82-1.52 1.01-1.652.416-1.829-.891-1.77-1.105.366-1.271 1.71-.606 1.71-.927 0-1.105-.802-2.447-1.415-3.41l-.86 1.688h-1.298l1.45-2.852c-.813-1.592-1.674-4.48-.412-6.831 1.332-2.496 4.186-2.377 4.186-2.377h.012s2.865-.119 4.186 2.377c1.25 2.364.401 5.25-.413 6.843l1.451 2.852h-1.297l-.85-1.7Zm-2.606-9.184v2.9h.719l1.91 3.778c.543-1.39.908-3.363.071-4.943-.696-1.33-2.016-1.651-2.7-1.735Zm0 7.105 1.073-.938-1.073-2.127v3.065Zm-3.562-.44 1.91-3.766h.708v-2.899c-.684.084-1.98.416-2.688 1.735-.838 1.58-.472 3.54.07 4.93Zm1.557-.498 1.073.926v-3.03l-1.073 2.104Zm1.061 6.44v-3.898L33.304 49.6l-.377.737c.06.095.13.202.2.32.708 1.094 1.77 2.757 1.77 4.313h.011Zm2.937-4.634-.378-.737-1.615 1.485v3.92l.023-.047c0-1.556 1.062-3.207 1.77-4.313.07-.106.14-.213.2-.308Zm10.235-7.272c1.486 0 2.512-.404 3.031-1.2.79-1.212.047-2.792.012-2.875-.024-.06-.566-1.378.236-3.018a8.17 8.17 0 0 0 .318-.713c.448-1.247.401-2.34.39-2.376l-.013-.25-.212-.142c-3.69-2.424-9.8-3.885-16.344-3.897h-.094c-6.545.012-12.654 1.473-16.345 3.897l-.212.143-.012.25c-.012.118-.047 1.152.39 2.375.082.214.176.428.318.713.802 1.64.26 2.959.236 3.018-.036.071-.779 1.652.011 2.863.52.797 1.533 1.2 3.031 1.2.13 0 .271 0 .413-.011 2.547-.12 3.502-1.759 3.655-2.614l.024-.155-1.144-2.614.189-.047c2.9-.725 6.19-1.105 9.48-1.105 3.303 0 6.581.392 9.482 1.105l.189.047-1.144 2.614.023.155c.154.855 1.12 2.495 3.656 2.614.165.011.307.023.436.023Zm-1.497-2.697c.979.202 1.438.392 1.438.392l.637.274.06-.701.129-1.438.212.095c.425.19.814.368 1.156.558l.059.036.023.06c.083.25.342 1.093-.035 1.663-.318.487-1.05.737-2.17.737-.118 0-.248 0-.377-.012-1.899-.083-2.488-1.129-2.654-1.569l-.082-.225.236-.012h.165a7.19 7.19 0 0 1 1.203.142Zm-24.528-1.461.13 1.438.058.7.637-.273s.46-.202 1.439-.392a5.734 5.734 0 0 1 1.202-.119h.165l.236.012-.082.226c-.165.44-.755 1.485-2.654 1.568-.13 0-.259.012-.377.012-1.12 0-1.851-.25-2.17-.736-.377-.57-.118-1.414-.035-1.664l.024-.06.058-.035c.354-.19.744-.368 1.156-.558l.213-.12Zm2.747-.962.566 1.283-.236.012a7.24 7.24 0 0 0-1.002.13c-.283.06-.554.12-.814.19l-.188.048-.095-1.093.118-.048a32.113 32.113 0 0 1 1.51-.499l.141-.023Zm21.31 0 .14.047c.508.155 1.015.32 1.51.5l.118.047-.094 1.093-.19-.048c-.247-.071-.518-.13-.813-.19a6.998 6.998 0 0 0-1.002-.13l-.236-.013.566-1.306Zm4.87-4.907.082.047v.095a6.354 6.354 0 0 1-.33 1.747c-.071.19-.165.416-.272.653-.294.677-.566 1.747-.625 2.412l-.023.238-.212-.095c-3.727-1.664-8.892-2.626-14.151-2.626-5.26 0-10.413.962-14.14 2.626l-.212.095-.023-.238c-.06-.677-.342-1.735-.625-2.412-.106-.237-.2-.463-.271-.653a5.935 5.935 0 0 1-.33-1.747v-.095l.082-.047c3.561-2.21 9.363-3.53 15.53-3.54 6.156 0 11.958 1.33 15.52 3.54Z"></path>
  <mask id="a" width="39" height="44" x="16" y="17" maskUnits="userSpaceOnUse" style="mask-type:luminance">
    <path fill="#fff" d="m37.691 21.406-1.71-.832.826 1.723h-2.783l.802-1.71-1.687.819v-2.804l1.675.796-.79-1.687h2.783l-.814 1.699 1.698-.808v2.804Zm-16.144 7.687-1.096-.463c.46-.178.778-.63.778-1.153 0-.689-.554-1.247-1.238-1.247-.378 0-.72.166-.944.44a1.368 1.368 0 0 0-1.202-.714 1.393 1.393 0 0 0-.401 2.72 1.293 1.293 0 0 0-.248.75c0 .689.554 1.247 1.238 1.247.543 0 .99-.344 1.168-.831l.613 1.033 1.332-1.782Zm28.974 1.794.614-1.034c.165.488.625.832 1.167.832.684 0 1.238-.558 1.238-1.247 0-.285-.094-.547-.247-.749.566-.166.978-.7.978-1.33 0-.761-.613-1.39-1.38-1.39-.518 0-.966.284-1.202.712a1.214 1.214 0 0 0-.944-.44c-.683 0-1.238.559-1.238 1.248 0 .523.319.974.779 1.153l-1.097.463 1.332 1.782ZM45.616 48.97c0-6.285-4.552-11.394-10.154-11.394-5.6 0-10.153 5.11-10.153 11.394 0 6.285 4.552 11.394 10.153 11.394 5.59-.012 10.154-5.12 10.154-11.394Zm-1.168 0c0 5.644-4.02 10.206-8.986 10.206-4.964 0-8.985-4.574-8.985-10.206 0-5.643 4.02-10.206 8.985-10.206 4.953-.012 8.986 4.563 8.986 10.206Zm-5.99 2.578c-.613.975-1.415 2.305-1.415 3.41 0 .31 1.356-.344 1.71.927.059.214-.118 1.509-1.77 1.105-.754-.19-1.32-.784-1.52-1.01h-.166c-.188.226-.766.82-1.52 1.01-1.652.416-1.829-.891-1.77-1.105.366-1.271 1.71-.606 1.71-.927 0-1.105-.802-2.447-1.415-3.41l-.86 1.688h-1.298l1.45-2.852c-.813-1.592-1.674-4.48-.412-6.831 1.332-2.496 4.186-2.377 4.186-2.377h.012s2.865-.119 4.186 2.377c1.25 2.364.401 5.25-.413 6.843l1.451 2.852h-1.297l-.85-1.7Zm-2.606-9.184v2.9h.719l1.91 3.778c.543-1.39.908-3.363.071-4.943-.696-1.33-2.016-1.651-2.7-1.735Zm0 7.105 1.073-.938-1.073-2.127v3.065Zm-3.562-.44 1.91-3.766h.708v-2.899c-.684.084-1.98.416-2.688 1.735-.838 1.58-.472 3.54.07 4.93Zm1.557-.498 1.073.926v-3.03l-1.073 2.104Zm1.061 6.44v-3.898L33.304 49.6l-.377.737c.06.095.13.202.2.32.708 1.094 1.77 2.757 1.77 4.313h.011Zm2.937-4.634-.378-.737-1.615 1.485v3.92l.023-.047c0-1.556 1.062-3.207 1.77-4.313.07-.106.14-.213.2-.308Zm10.235-7.272c1.486 0 2.512-.404 3.031-1.2.79-1.212.047-2.792.012-2.875-.024-.06-.566-1.378.236-3.018a8.17 8.17 0 0 0 .318-.713c.448-1.247.401-2.34.39-2.376l-.013-.25-.212-.142c-3.69-2.424-9.8-3.885-16.344-3.897h-.094c-6.545.012-12.654 1.473-16.345 3.897l-.212.143-.012.25c-.012.118-.047 1.152.39 2.375.082.214.176.428.318.713.802 1.64.26 2.959.236 3.018-.036.071-.779 1.652.011 2.863.52.797 1.533 1.2 3.031 1.2.13 0 .271 0 .413-.011 2.547-.12 3.502-1.759 3.655-2.614l.024-.155-1.144-2.614.189-.047c2.9-.725 6.19-1.105 9.48-1.105 3.303 0 6.581.392 9.482 1.105l.189.047-1.144 2.614.023.155c.154.855 1.12 2.495 3.656 2.614.165.011.307.023.436.023Zm-1.497-2.697c.979.202 1.438.392 1.438.392l.637.274.06-.701.129-1.438.212.095c.425.19.814.368 1.156.558l.059.036.023.06c.083.25.342 1.093-.035 1.663-.318.487-1.05.737-2.17.737-.118 0-.248 0-.377-.012-1.899-.083-2.488-1.129-2.654-1.569l-.082-.225.236-.012h.165a7.19 7.19 0 0 1 1.203.142Zm-24.528-1.461.13 1.438.058.7.637-.273s.46-.202 1.439-.392a5.734 5.734 0 0 1 1.202-.119h.165l.236.012-.082.226c-.165.44-.755 1.485-2.654 1.568-.13 0-.259.012-.377.012-1.12 0-1.851-.25-2.17-.736-.377-.57-.118-1.414-.035-1.664l.024-.06.058-.035c.354-.19.744-.368 1.156-.558l.213-.12Zm2.747-.962.566 1.283-.236.012a7.24 7.24 0 0 0-1.002.13c-.283.06-.554.12-.814.19l-.188.048-.095-1.093.118-.048a32.113 32.113 0 0 1 1.51-.499l.141-.023Zm21.31 0 .14.047c.508.155 1.015.32 1.51.5l.118.047-.094 1.093-.19-.048c-.247-.071-.518-.13-.813-.19a6.998 6.998 0 0 0-1.002-.13l-.236-.013.566-1.306Zm4.87-4.907.082.047v.095a6.354 6.354 0 0 1-.33 1.747c-.071.19-.165.416-.272.653-.294.677-.566 1.747-.625 2.412l-.023.238-.212-.095c-3.727-1.664-8.892-2.626-14.151-2.626-5.26 0-10.413.962-14.14 2.626l-.212.095-.023-.238c-.06-.677-.342-1.735-.625-2.412-.106-.237-.2-.463-.271-.653a5.935 5.935 0 0 1-.33-1.747v-.095l.082-.047c3.561-2.21 9.363-3.53 15.53-3.54 6.156 0 11.958 1.33 15.52 3.54Z"></path>
  </mask>
  <g mask="url(#a)">
    <path fill="#00A3E0" d="M35.495 85.601c2.771 0 7.76-.891 8.231-3.505.307-1.675-1.745-4.503 1.132-6.428 1.486-.998 6.132.606 11.415 1.165 5.024.522 9.481-1.165 10.519-2.139 1.038-.974.613-2.008.613-3.648 0-1.64.802-3.504.46-4.918-.318-1.32-2.854-2.353-2.854-2.353l1.404-2.554s1.285-2.364-1.439-4.384c-2.028-1.497-4.446-.987-4.446-.987s.106-3.196-.849-6c-1.45-4.241-4.976-6.213-3.655-12.902.742-3.767 3.455-7.07 3.455-7.07l-5.106-9.398s-2.04 1.866-5.755 1.153c-3.078-.594-6.12-2.685-5.696-5.763.625-4.538 5.354-4.502 5.354-4.502s-.06-.975-.649-1.866c-.59-.891-1.78-.82-1.78-.82s-.59-1.188-1.333-1.64c-.743-.45-1.78-.296-1.78-.296s1.084 4.396-1.486 4.752c-1.003.143.436-2.709-.508-3.041-1.167-.416-1.544 2.47-2.759 2.186-1.297-.297-.495-2.34.625-3.446.86-.867 1.993-.89 1.993-.89s-.755-1.035-2.087-1.035c-1.333 0-1.816.44-1.816.44s-.26-.665-.472-.974c-.295-.44-.743-.749-.743-.749h-.094s-.448.31-.743.749c-.212.309-.472.974-.472.974s-.483-.44-1.816-.44c-1.332 0-2.087 1.034-2.087 1.034s1.132.036 1.993.891c1.12 1.117 1.922 3.149.625 3.446-1.203.309-1.592-2.579-2.748-2.163-.943.333.495 3.184-.507 3.042-2.57-.357-1.486-4.753-1.486-4.753s-1.038-.154-1.78.297c-.743.452-1.333 1.64-1.333 1.64s-1.18-.071-1.78.82a4.227 4.227 0 0 0-.65 1.865s4.73-.035 5.354 4.503c.425 3.065-2.617 5.168-5.695 5.763-3.703.712-5.755-1.153-5.755-1.153l-5.106 9.398s2.712 3.303 3.455 7.07c1.32 6.688-2.205 8.66-3.656 12.902-.955 2.816-.849 6-.849 6s-2.429-.51-4.445.986c-2.724 2.02-1.44 4.385-1.44 4.385l1.404 2.554s-2.535 1.034-2.854 2.352c-.342 1.403.46 3.28.46 4.92 0 1.639-.424 2.673.614 3.647 1.037.974 5.495 2.661 10.518 2.138 5.284-.558 9.918-2.162 11.416-1.164 2.877 1.925.837 4.753 1.132 6.428.471 2.614 5.448 3.505 8.23 3.505"></path>
  </g>
  <path fill="#00A3E0" d="m22.418 36.163-.567.179.118-2.9.625-.19 1.71 2.317-.59.178-.33-.487-.955.297-.011.606Zm.023-1.08.66-.203-.636-.927h-.012l-.012 1.13Zm2.689-.227 1.309-.332.118.475-1.852.475-.66-2.65.554-.142.53 2.174Zm2.311-.534 1.32-.262.095.487-1.875.38-.53-2.673.554-.107.436 2.175Zm3.314-1.307.13 1.212-.567.059-.306-2.709.566-.06.118 1.022 1.05-.118-.119-1.022.566-.06.307 2.71-.566.059-.13-1.212-1.05.119Zm2.747.974-.601.024.873-2.757.648-.023 1.05 2.697-.614.023-.188-.558-1.003.036-.165.558Zm.307-1.046.696-.023-.378-1.07h-.011l-.307 1.093Zm2.677.535 1.344.06-.023.498-1.91-.083.117-2.732.566.023-.094 2.234Zm2.37.154 1.344.143-.047.487-1.898-.19.271-2.72.566.059-.236 2.221Zm3.35-1.889c.353.06 1.261.369 1.06 1.628-.2 1.26-1.155 1.271-1.509 1.212-.354-.06-1.262-.368-1.061-1.628.2-1.271 1.155-1.271 1.51-1.212Zm-.39 2.353c.307.047.755-.071.884-.82.118-.748-.27-1.01-.577-1.057-.307-.048-.755.071-.885.82-.118.748.283 1.01.578 1.057Zm1.91-2.044.59.131c.012 1.533 0 1.723-.024 2.044h.012c.106-.262.212-.523.814-1.866l.59.131c-.024 1.533-.024 1.675-.048 2.032h.012c.106-.238.2-.464.873-1.854l.554.13-1.344 2.496-.53-.119c.023-1.366.034-1.64.058-2.174h-.012c-.2.487-.283.677-.872 1.984l-.52-.119-.153-2.816Zm3.75 2.864c-.035.142-.047.451.425.582.26.071.566.095.637-.178.059-.202-.118-.321-.378-.464l-.259-.142c-.39-.226-.767-.44-.602-1.01.083-.297.39-.76 1.239-.511.802.238.86.82.766 1.14l-.519-.154c.024-.119.06-.416-.412-.547-.213-.059-.472-.059-.543.179-.059.202.095.297.2.356l.59.345c.33.19.614.44.472.903-.224.784-1.05.617-1.274.558-.943-.285-.955-.88-.86-1.2l.518.143ZM42.148 70.404l1.604-.38c1.227-.297 1.698.594 1.852 1.224.165.712.106 1.817-1.097 2.102l-1.569.38-.79-3.326Zm1.404 2.566.73-.178c.614-.142.685-.772.555-1.307-.236-.974-.766-.939-1.085-.855l-.73.178.53 2.162Zm5.802-2.008-1.958-.261-.094.713 1.804.237-.083.595-1.804-.238-.118.88 2.052.272-.082.594-2.807-.38.448-3.386 2.712.368-.07.606Zm3.03-.047.802.142-1.84 3.137-.73-.13-.65-3.589.826.143.342 2.685h.012l1.238-2.388Zm3.043.392c.483.071 1.745.44 1.533 2.02-.212 1.592-1.522 1.604-2.017 1.532-.483-.07-1.745-.44-1.533-2.02.224-1.58 1.533-1.603 2.017-1.532Zm-.401 2.958c.412.06 1.037-.095 1.167-1.045.13-.95-.424-1.26-.837-1.319-.413-.06-1.038.095-1.168 1.046-.13.95.425 1.27.838 1.318Zm3.561.773-.778.011-.024-3.41.779-.011.023 3.41Zm.908-3.41 1.852-.357c.978-.19 1.273.44 1.332.725.07.368-.07.725-.413.903.319.06.507.13.625.76.095.487.118.606.295.642l.012.083-.85.166c-.082-.154-.14-.32-.211-.665-.083-.463-.154-.63-.72-.523l-.79.155.248 1.307-.755.142-.625-3.338Zm1.922 1.164c.401-.071.566-.238.507-.57-.035-.178-.165-.428-.613-.333l-.955.178.165.891.896-.166ZM11.262 71.486l1.64.024c1.25.024 1.497.998 1.485 1.651-.011.737-.342 1.783-1.568 1.759l-1.616-.024.06-3.41Zm.72 2.828.754.012c.637.012.85-.57.861-1.129.012-1.01-.507-1.093-.837-1.105l-.743-.012-.035 2.234Zm4.174.452-.766.106-.437-3.386.767-.107.436 3.386ZM19.4 71.39l-1.946.333.118.713 1.793-.31.106.595-1.793.309.142.867 2.04-.344.106.594-2.783.475-.566-3.363 2.7-.463.083.594Zm4.175.927c.141.891-.378 1.366-1.31 1.509-.341.06-.848.06-1.238-.214-.235-.178-.353-.428-.412-.772l-.366-2.234.778-.13.354 2.185c.071.464.401.63.767.57.53-.082.707-.356.637-.76l-.354-2.221.778-.131.366 2.198ZM35.074 80.954a12.31 12.31 0 0 1-2.182-.273v.725c.66.142 1.332.225 2.005.261v.606a12.69 12.69 0 0 1-2.005-.261v.89c.755.155 1.51.25 2.276.274v.606a13.07 13.07 0 0 1-3.102-.475v-3.434c.991.273 1.993.428 3.008.463v.618ZM37.904 83.592c-.283.047-.566.095-.861.118v-2.827a14.38 14.38 0 0 1-1.25.083v-.606c1.12-.012 2.24-.178 3.325-.475v.606c-.4.107-.813.202-1.226.273.012.939.012 1.89.012 2.828Z"></path>
</svg>
