<svg width="93" height="111" viewBox="0 0 93 111" fill="none" xmlns="http://www.w3.org/2000/svg">
<circle cx="52.5" cy="54" r="38" stroke="#EF4644" stroke-width="4"/>
<path d="M51 70L54 64.5H40.5L48 75.5L51 70Z" fill="#EF4644"/>
<path d="M2.5 55H33.5M33.5 55V34H40.5V45M33.5 55V75.5H40.5V64.5M40.5 45L81 28V2M40.5 45V64.5M79.5 108.5V82L51 70M51 70L54 64.5H40.5M51 70L48 75.5L40.5 64.5M2.5 17.5L15 28M15 28L12 19M15 28L5.5 26.5M13.5 5.5L26 16M26 16L23 7M26 16L16.5 14.5" stroke="#EF4644" stroke-width="4" stroke-linecap="round" stroke-linejoin="round"/>
</svg>
