<svg xmlns="http://www.w3.org/2000/svg" fill="none" viewBox="0 0 178 57">
  <mask id="a" x="71.6" y="18.1" fill="#000" maskUnits="userSpaceOnUse">
    <path fill="#fff" d="M71.6 18.1h94v24h-94z"/>
    <path d="M134 25.3c0-.5.2-.8.5-1.2l1.1-1c-.3-.3-.5-.6-.6-1a2 2 0 0 1-.2-.8c0-.6.1-1 .5-1.4a2 2 0 0 1 1.5-.5c.5 0 1 .2 1.3.5.4.3.6.7.6 1.2l-.3.9-.8.8-.6.4 1.8 2.2a3 3 0 0 0 .5-1.6h1c0 .4-.1.9-.3 1.3-.1.4-.3.7-.6 1l1 1.3h-1.2l-.5-.5a3.3 3.3 0 0 1-2 .6c-.8 0-1.5-.2-2-.6a2 2 0 0 1-.6-1.6Zm2.7 1.4a2.4 2.4 0 0 0 1.4-.5l-2-2.4-.1.2c-.4.2-.6.5-.7.7l-.2.6c0 .4.2.7.4 1 .3.3.7.4 1.2.4Zm-.9-5.4c0 .2 0 .4.2.6l.4.7.8-.5.4-.5.1-.5c0-.2 0-.4-.3-.6a1 1 0 0 0-.6-.3c-.3 0-.6.1-.7.3-.2.2-.3.5-.3.8ZM75.3 38.7c-.8 0-1.5-.3-2-.9-.5-.5-.7-1.2-.7-2v-.3c0-.9.3-1.6.7-2.1.5-.6 1.1-.8 1.8-.8.8 0 1.4.2 1.8.7.4.4.6 1 .6 1.9v.7h-3.8c0 .5.2 1 .4 1.4.3.3.7.5 1.2.5l1-.1.6-.5.5.7c-.2.2-.5.4-.9.5-.3.2-.7.3-1.2.3Zm-.2-5.3c-.3 0-.6.1-.9.5-.3.3-.4.6-.5 1v.1h2.8V35c0-.4-.2-.8-.4-1-.2-.4-.5-.5-1-.5ZM78.4 37.9l1-.2v-4.2l-1-.1v-.7h1.9v.8l.8-.7a2 2 0 0 1 1-.2 2 2 0 0 1 1.5.5c.3.4.5 1 .5 1.7v2.9l.9.2v.6H82V38l1-.2v-2.8c0-.6-.2-1-.4-1.2-.2-.2-.5-.3-1-.3a1.5 1.5 0 0 0-1.3.9v3.4l.9.2v.6h-2.9V38ZM87.6 31.2v1.5h1.1v.8h-1v4.1l.5.2a2.6 2.6 0 0 0 .7-.1l.1.7-.4.2H88c-.5 0-.8 0-1-.3-.3-.3-.5-.7-.5-1.3v-3.5h-.9v-.8h1v-1.5h1ZM89.8 33.4v-.7h1.9v.8l.7-.7a1.4 1.4 0 0 1 1-.2h.3l-.2 1H93c-.2 0-.5 0-.7.2l-.4.5v3.4l.9.2v.6h-2.9V38l1-.2v-4.2l-1-.1ZM98.3 38.5a7.4 7.4 0 0 1-.2-.8l-.7.7a2 2 0 0 1-1 .3c-.6 0-1.1-.2-1.4-.5-.3-.3-.5-.7-.5-1.3 0-.5.2-1 .7-1.2.4-.3 1-.5 1.8-.5h1.1v-.7a1 1 0 0 0-.3-.8c-.2-.2-.5-.3-.9-.3l-.7.1c-.2 0-.4.2-.5.3l-.1.6h-.8v-1.1c.2-.3.6-.4 1-.6l1.2-.1c.6 0 1.2.1 1.6.5.4.3.6.8.6 1.4V37.8h.5v.7h-1.4Zm-1.8-.7c.4 0 .7-.1 1-.3l.6-.6v-1H97c-.4 0-.8.1-1 .3a1 1 0 0 0-.4.8c0 .2 0 .4.2.6l.7.2ZM100.4 37.9l.9-.2v-4.2l-.9-.1v-.7h1.8l.1.8.7-.7a2 2 0 0 1 1-.2 2 2 0 0 1 1.5.5c.4.4.6 1 .6 1.7v2.9l.8.2v.6h-2.8V38l.9-.2v-2.8c0-.6-.1-1-.3-1.2-.2-.2-.5-.3-1-.3a1.5 1.5 0 0 0-1.3.9v3.4l.8.2v.6h-2.8V38ZM110.3 37.8c.4 0 .7 0 1-.3.2-.2.3-.5.3-.8h1c0 .5-.2 1-.7 1.4-.4.4-1 .6-1.6.6-.9 0-1.5-.3-2-.9-.4-.5-.6-1.2-.6-2v-.3c0-.8.2-1.5.6-2.1.5-.6 1.1-.8 2-.8.5 0 .9 0 1.3.2l.9.6v1.3h-.8l-.2-.9-.5-.3-.7-.1c-.6 0-1 .2-1.2.6-.2.4-.4.9-.4 1.5v.2c0 .6.2 1.1.4 1.5.2.4.6.6 1.2.6ZM116.3 38.7c-.8 0-1.4-.3-2-.9a3 3 0 0 1-.6-2v-.3c0-.9.2-1.6.7-2.1.5-.6 1.1-.8 1.8-.8.8 0 1.4.2 1.8.7.4.4.6 1 .6 1.9v.7h-3.8c0 .5.1 1 .4 1.4.3.3.6.5 1.1.5l1-.1.7-.5.4.7-.8.5c-.4.2-.8.3-1.3.3Zm-.1-5.3c-.4 0-.7.1-1 .5-.2.3-.4.6-.4 1v.1h2.7V35c0-.4-.1-.8-.3-1-.2-.4-.6-.5-1-.5ZM127 34.5h-.9l-.2-.7-.5-.3-.6-.1c-.4 0-.7 0-.9.2l-.3.6c0 .3.1.5.3.6l1 .4c.7.1 1.3.3 1.6.6.4.3.6.6.6 1.1 0 .5-.2 1-.7 1.3-.4.3-1 .5-1.6.5l-1.2-.2-1-.4v-1.4h.8l.2.8.5.2.7.1c.4 0 .7 0 .9-.2l.3-.6c0-.3 0-.4-.3-.6-.1-.2-.5-.3-1-.4l-1.6-.6c-.3-.3-.5-.7-.5-1.1 0-.5.2-.9.6-1.2.4-.4 1-.5 1.6-.5l1.2.1.9.5v1.3ZM133.7 33.4h-.6l-2.2 6a3 3 0 0 1-.6 1c-.3.4-.7.5-1.2.5h-.3a3 3 0 0 1-.3 0l.1-1 .2.1h.3c.2 0 .4 0 .5-.3l.4-.7.3-.6-2-5h-.5v-.7h2.4v.7h-.7l1 3 .2.7 1.3-3.6-.7-.1v-.7h2.4v.7ZM138.9 34.5h-.8l-.2-.7-.5-.3-.6-.1c-.4 0-.7 0-.9.2l-.3.6c0 .3.1.5.3.6l1 .4c.7.1 1.3.3 1.6.6.4.3.6.6.6 1.1 0 .5-.2 1-.7 1.3-.4.3-1 .5-1.6.5l-1.2-.2-1-.4v-1.4h.8l.2.8.5.2.7.1c.4 0 .7 0 .9-.2l.3-.6c0-.3 0-.4-.3-.6-.2-.2-.5-.3-1-.4l-1.6-.6c-.4-.3-.5-.7-.5-1.1 0-.5.2-.9.6-1.2.4-.4.9-.5 1.6-.5l1.2.1.8.5v1.3ZM142 31.2v1.5h1v.8h-1V37l.1.6.5.2a2.6 2.6 0 0 0 .6-.1l.1.7-.4.2h-.6c-.4 0-.8 0-1-.3-.3-.3-.4-.7-.4-1.3v-3.5h-1v-.8h1v-1.5h1ZM146.8 38.7c-.8 0-1.4-.3-2-.9-.4-.5-.7-1.2-.7-2v-.3c0-.9.3-1.6.8-2.1.5-.6 1-.8 1.8-.8s1.3.2 1.8.7c.4.4.6 1 .6 1.9v.7h-3.8c0 .5 0 1 .4 1.4.2.3.6.5 1.1.5l1-.1.7-.5.4.7-.8.5c-.4.2-.8.3-1.3.3Zm-.1-5.3c-.4 0-.7.1-1 .5-.2.3-.4.6-.4 1v.1h2.7V35c0-.4-.1-.8-.3-1-.3-.4-.6-.5-1-.5ZM150 37.9l.8-.2v-4.2l-.9-.1v-.7h1.9v.7c.2-.3.5-.5.8-.6a2.2 2.2 0 0 1 2 0c.3.2.5.5.6.8l.8-.8a2 2 0 0 1 1-.2c.6 0 1.1.2 1.5.6.3.4.5 1 .5 1.8v2.7l.9.2v.6H157V38l.9-.2V35c0-.6-.1-1-.3-1.2-.2-.3-.5-.4-.9-.4s-.7.2-.9.4l-.4 1v2.9l1 .2v.6h-3V38l1-.2V35c0-.5-.2-1-.4-1.2-.2-.2-.5-.4-.8-.4-.4 0-.6 0-.8.2-.3.2-.4.3-.5.6v3.5l.9.2v.6h-2.9V38ZM165.1 34.5h-.8l-.1-.7-.5-.3-.7-.1c-.4 0-.7 0-.8.2l-.3.6c0 .3 0 .5.2.6l1 .4c.8.1 1.3.3 1.7.6.3.3.5.6.5 1.1 0 .5-.2 1-.6 1.3-.4.3-1 .5-1.7.5l-1.2-.2-1-.4v-1.4h.9l.2.8.5.2.6.1c.4 0 .7 0 1-.2l.2-.6c0-.3 0-.4-.2-.6-.2-.2-.5-.3-1-.4l-1.7-.6c-.3-.3-.5-.7-.5-1.1 0-.5.2-.9.6-1.2.4-.4 1-.5 1.6-.5l1.2.1c.4.1.7.3.9.5v1.3ZM75.6 27.7c-.8 0-1.5-.3-2-.9a3 3 0 0 1-.7-2v-.3c0-.9.3-1.6.8-2.1.5-.6 1-.8 1.7-.8.8 0 1.4.2 1.8.7.4.5.6 1 .6 1.9v.7H74c0 .5.2 1 .4 1.4.3.3.7.5 1.2.5l1-.1.7-.5.4.7-.9.6-1.2.2Zm-.2-5.3c-.3 0-.6.2-.9.5l-.5 1v.1h2.8V24c0-.4-.1-.8-.4-1-.2-.4-.5-.5-1-.5ZM78.7 19.8V19h2v7.6l.9.2v.6h-2.9V27l1-.2V20l-1-.1ZM85 27.7c-.7 0-1.4-.3-1.9-.9a3 3 0 0 1-.7-2v-.3c0-.9.3-1.6.8-2.1.5-.6 1-.8 1.7-.8.8 0 1.4.2 1.8.7.4.5.6 1 .6 1.9v.7h-3.8c0 .5.2 1 .4 1.4.3.3.7.5 1.2.5l1-.1.6-.5.5.7-.9.6-1.2.2Zm0-5.3c-.4 0-.7.2-1 .5l-.5 1v.1h2.8V24c0-.4-.2-.8-.4-1-.2-.4-.5-.5-1-.5ZM91 26.8c.4 0 .7 0 1-.3.2-.2.4-.5.4-.8h1c0 .5-.3 1-.7 1.4-.5.4-1 .6-1.7.6-.8 0-1.5-.3-2-.9-.4-.5-.6-1.2-.6-2v-.3c0-.8.2-1.5.7-2.1.4-.6 1-.8 2-.8.4 0 .8 0 1.2.2.4.1.7.4 1 .6v1.3h-.9l-.2-.9-.5-.3-.7-.1c-.5 0-1 .2-1.2.6-.2.4-.3 1-.3 1.5v.2c0 .6 0 1.1.3 1.5.3.4.7.6 1.2.6ZM96.3 20.3v1.4h1.2v.8h-1.2V26l.2.6.5.2a2.6 2.6 0 0 0 .6-.1l.1.7-.4.2h-.6c-.4 0-.8 0-1-.3-.3-.3-.4-.7-.4-1.3v-3.5h-1v-.8h1v-1.4h1ZM98.8 22.3v-.7h1.9v.8l.7-.7a1.4 1.4 0 0 1 1.1-.2h.2l-.1 1h-.6c-.3 0-.6 0-.8.2l-.4.5v3.4l.9.2v.7h-2.9v-.7l1-.2v-4.2l-1-.1ZM103 24.6c0-1 .3-1.6.8-2.2.4-.6 1-.8 1.9-.8.8 0 1.4.2 1.9.8.5.6.7 1.3.7 2.2 0 1-.2 1.7-.7 2.2-.5.6-1.1.9-2 .9-.7 0-1.4-.3-1.8-.9-.5-.5-.7-1.3-.7-2.1v-.1Zm1.1 0c0 .7.2 1.2.4 1.6.3.4.7.6 1.2.6s.9-.2 1.1-.6c.3-.4.4-1 .4-1.5v-.1c0-.7 0-1.2-.4-1.6-.2-.4-.6-.6-1.1-.6-.5 0-1 .2-1.2.6-.2.4-.4 1-.4 1.6ZM109.1 26.9l1-.2v-4.2l-1-.1v-.7h1.9v.8l.8-.7a2 2 0 0 1 1-.2 2 2 0 0 1 1.5.5c.3.4.5 1 .5 1.7v3h.9v.7h-2.9V27l1-.2V24c0-.6-.2-1-.4-1.1-.2-.3-.5-.4-1-.4a1.5 1.5 0 0 0-1.3.9v3.4l.9.2v.6H109V27ZM116.5 26.9l.8-.2v-4.2l-.8-.1v-.7h2v5l.8.2v.6h-2.8V27Zm2-6.7h-1.2V19h1.1v1ZM122.8 26.8c.3 0 .6 0 .9-.3.3-.2.4-.5.4-.8h1c0 .5-.2 1-.7 1.4-.5.4-1 .6-1.6.6-.9 0-1.6-.3-2-.9-.5-.5-.7-1.2-.7-2v-.3c0-.8.2-1.5.7-2.1.5-.6 1.1-.8 2-.8.4 0 .8 0 1.2.2.4.1.7.4 1 .6v1.3h-.8l-.3-.9-.5-.3-.6-.1c-.6 0-1 .2-1.3.6-.2.4-.3 1-.3 1.5v.2c0 .6.1 1.1.3 1.5.3.4.7.6 1.3.6ZM130.3 23.5h-.8l-.2-.7-.5-.3h-.6c-.4 0-.7 0-.9.2-.2.1-.3.3-.3.6 0 .2.1.4.3.5.1.2.5.3 1 .4.7.1 1.3.4 1.6.6.4.3.6.7.6 1.1 0 .5-.2 1-.7 1.3-.4.3-1 .5-1.6.5-.5 0-.9 0-1.2-.2-.4 0-.7-.2-1-.4v-1.4h.8l.2.8.5.3h.7c.4 0 .7 0 .9-.2.2-.1.3-.3.3-.6 0-.2 0-.4-.3-.6l-1-.4c-.7-.1-1.2-.3-1.6-.6-.4-.3-.5-.6-.5-1.1 0-.5.2-.9.6-1.2.4-.4.9-.5 1.6-.5l1.2.1.8.5v1.3Z"/>
  </mask>
  <path fill="#fff" d="M134 25.3c0-.5.2-.8.5-1.2l1.1-1c-.3-.3-.5-.6-.6-1a2 2 0 0 1-.2-.8c0-.6.1-1 .5-1.4a2 2 0 0 1 1.5-.5c.5 0 1 .2 1.3.5.4.3.6.7.6 1.2l-.3.9-.8.8-.6.4 1.8 2.2a3 3 0 0 0 .5-1.6h1c0 .4-.1.9-.3 1.3-.1.4-.3.7-.6 1l1 1.3h-1.2l-.5-.5a3.3 3.3 0 0 1-2 .6c-.8 0-1.5-.2-2-.6a2 2 0 0 1-.6-1.6Zm2.7 1.4a2.4 2.4 0 0 0 1.4-.5l-2-2.4-.1.2c-.4.2-.6.5-.7.7l-.2.6c0 .4.2.7.4 1 .3.3.7.4 1.2.4Zm-.9-5.4c0 .2 0 .4.2.6l.4.7.8-.5.4-.5.1-.5c0-.2 0-.4-.3-.6a1 1 0 0 0-.6-.3c-.3 0-.6.1-.7.3-.2.2-.3.5-.3.8ZM75.3 38.7c-.8 0-1.5-.3-2-.9-.5-.5-.7-1.2-.7-2v-.3c0-.9.3-1.6.7-2.1.5-.6 1.1-.8 1.8-.8.8 0 1.4.2 1.8.7.4.4.6 1 .6 1.9v.7h-3.8c0 .5.2 1 .4 1.4.3.3.7.5 1.2.5l1-.1.6-.5.5.7c-.2.2-.5.4-.9.5-.3.2-.7.3-1.2.3Zm-.2-5.3c-.3 0-.6.1-.9.5-.3.3-.4.6-.5 1v.1h2.8V35c0-.4-.2-.8-.4-1-.2-.4-.5-.5-1-.5ZM78.4 37.9l1-.2v-4.2l-1-.1v-.7h1.9v.8l.8-.7a2 2 0 0 1 1-.2 2 2 0 0 1 1.5.5c.3.4.5 1 .5 1.7v2.9l.9.2v.6H82V38l1-.2v-2.8c0-.6-.2-1-.4-1.2-.2-.2-.5-.3-1-.3a1.5 1.5 0 0 0-1.3.9v3.4l.9.2v.6h-2.9V38ZM87.6 31.2v1.5h1.1v.8h-1v4.1l.5.2a2.6 2.6 0 0 0 .7-.1l.1.7-.4.2H88c-.5 0-.8 0-1-.3-.3-.3-.5-.7-.5-1.3v-3.5h-.9v-.8h1v-1.5h1ZM89.8 33.4v-.7h1.9v.8l.7-.7a1.4 1.4 0 0 1 1-.2h.3l-.2 1H93c-.2 0-.5 0-.7.2l-.4.5v3.4l.9.2v.6h-2.9V38l1-.2v-4.2l-1-.1ZM98.3 38.5a7.4 7.4 0 0 1-.2-.8l-.7.7a2 2 0 0 1-1 .3c-.6 0-1.1-.2-1.4-.5-.3-.3-.5-.7-.5-1.3 0-.5.2-1 .7-1.2.4-.3 1-.5 1.8-.5h1.1v-.7a1 1 0 0 0-.3-.8c-.2-.2-.5-.3-.9-.3l-.7.1c-.2 0-.4.2-.5.3l-.1.6h-.8v-1.1c.2-.3.6-.4 1-.6l1.2-.1c.6 0 1.2.1 1.6.5.4.3.6.8.6 1.4V37.8h.5v.7h-1.4Zm-1.8-.7c.4 0 .7-.1 1-.3l.6-.6v-1H97c-.4 0-.8.1-1 .3a1 1 0 0 0-.4.8c0 .2 0 .4.2.6l.7.2ZM100.4 37.9l.9-.2v-4.2l-.9-.1v-.7h1.8l.1.8.7-.7a2 2 0 0 1 1-.2 2 2 0 0 1 1.5.5c.4.4.6 1 .6 1.7v2.9l.8.2v.6h-2.8V38l.9-.2v-2.8c0-.6-.1-1-.3-1.2-.2-.2-.5-.3-1-.3a1.5 1.5 0 0 0-1.3.9v3.4l.8.2v.6h-2.8V38ZM110.3 37.8c.4 0 .7 0 1-.3.2-.2.3-.5.3-.8h1c0 .5-.2 1-.7 1.4-.4.4-1 .6-1.6.6-.9 0-1.5-.3-2-.9-.4-.5-.6-1.2-.6-2v-.3c0-.8.2-1.5.6-2.1.5-.6 1.1-.8 2-.8.5 0 .9 0 1.3.2l.9.6v1.3h-.8l-.2-.9-.5-.3-.7-.1c-.6 0-1 .2-1.2.6-.2.4-.4.9-.4 1.5v.2c0 .6.2 1.1.4 1.5.2.4.6.6 1.2.6ZM116.3 38.7c-.8 0-1.4-.3-2-.9a3 3 0 0 1-.6-2v-.3c0-.9.2-1.6.7-2.1.5-.6 1.1-.8 1.8-.8.8 0 1.4.2 1.8.7.4.4.6 1 .6 1.9v.7h-3.8c0 .5.1 1 .4 1.4.3.3.6.5 1.1.5l1-.1.7-.5.4.7-.8.5c-.4.2-.8.3-1.3.3Zm-.1-5.3c-.4 0-.7.1-1 .5-.2.3-.4.6-.4 1v.1h2.7V35c0-.4-.1-.8-.3-1-.2-.4-.6-.5-1-.5ZM127 34.5h-.9l-.2-.7-.5-.3-.6-.1c-.4 0-.7 0-.9.2l-.3.6c0 .3.1.5.3.6l1 .4c.7.1 1.3.3 1.6.6.4.3.6.6.6 1.1 0 .5-.2 1-.7 1.3-.4.3-1 .5-1.6.5l-1.2-.2-1-.4v-1.4h.8l.2.8.5.2.7.1c.4 0 .7 0 .9-.2l.3-.6c0-.3 0-.4-.3-.6-.1-.2-.5-.3-1-.4l-1.6-.6c-.3-.3-.5-.7-.5-1.1 0-.5.2-.9.6-1.2.4-.4 1-.5 1.6-.5l1.2.1.9.5v1.3ZM133.7 33.4h-.6l-2.2 6a3 3 0 0 1-.6 1c-.3.4-.7.5-1.2.5h-.3a3 3 0 0 1-.3 0l.1-1 .2.1h.3c.2 0 .4 0 .5-.3l.4-.7.3-.6-2-5h-.5v-.7h2.4v.7h-.7l1 3 .2.7 1.3-3.6-.7-.1v-.7h2.4v.7ZM138.9 34.5h-.8l-.2-.7-.5-.3-.6-.1c-.4 0-.7 0-.9.2l-.3.6c0 .3.1.5.3.6l1 .4c.7.1 1.3.3 1.6.6.4.3.6.6.6 1.1 0 .5-.2 1-.7 1.3-.4.3-1 .5-1.6.5l-1.2-.2-1-.4v-1.4h.8l.2.8.5.2.7.1c.4 0 .7 0 .9-.2l.3-.6c0-.3 0-.4-.3-.6-.2-.2-.5-.3-1-.4l-1.6-.6c-.4-.3-.5-.7-.5-1.1 0-.5.2-.9.6-1.2.4-.4.9-.5 1.6-.5l1.2.1.8.5v1.3ZM142 31.2v1.5h1v.8h-1V37l.1.6.5.2a2.6 2.6 0 0 0 .6-.1l.1.7-.4.2h-.6c-.4 0-.8 0-1-.3-.3-.3-.4-.7-.4-1.3v-3.5h-1v-.8h1v-1.5h1ZM146.8 38.7c-.8 0-1.4-.3-2-.9-.4-.5-.7-1.2-.7-2v-.3c0-.9.3-1.6.8-2.1.5-.6 1-.8 1.8-.8s1.3.2 1.8.7c.4.4.6 1 .6 1.9v.7h-3.8c0 .5 0 1 .4 1.4.2.3.6.5 1.1.5l1-.1.7-.5.4.7-.8.5c-.4.2-.8.3-1.3.3Zm-.1-5.3c-.4 0-.7.1-1 .5-.2.3-.4.6-.4 1v.1h2.7V35c0-.4-.1-.8-.3-1-.3-.4-.6-.5-1-.5ZM150 37.9l.8-.2v-4.2l-.9-.1v-.7h1.9v.7c.2-.3.5-.5.8-.6a2.2 2.2 0 0 1 2 0c.3.2.5.5.6.8l.8-.8a2 2 0 0 1 1-.2c.6 0 1.1.2 1.5.6.3.4.5 1 .5 1.8v2.7l.9.2v.6H157V38l.9-.2V35c0-.6-.1-1-.3-1.2-.2-.3-.5-.4-.9-.4s-.7.2-.9.4l-.4 1v2.9l1 .2v.6h-3V38l1-.2V35c0-.5-.2-1-.4-1.2-.2-.2-.5-.4-.8-.4-.4 0-.6 0-.8.2-.3.2-.4.3-.5.6v3.5l.9.2v.6h-2.9V38ZM165.1 34.5h-.8l-.1-.7-.5-.3-.7-.1c-.4 0-.7 0-.8.2l-.3.6c0 .3 0 .5.2.6l1 .4c.8.1 1.3.3 1.7.6.3.3.5.6.5 1.1 0 .5-.2 1-.6 1.3-.4.3-1 .5-1.7.5l-1.2-.2-1-.4v-1.4h.9l.2.8.5.2.6.1c.4 0 .7 0 1-.2l.2-.6c0-.3 0-.4-.2-.6-.2-.2-.5-.3-1-.4l-1.7-.6c-.3-.3-.5-.7-.5-1.1 0-.5.2-.9.6-1.2.4-.4 1-.5 1.6-.5l1.2.1c.4.1.7.3.9.5v1.3ZM75.6 27.7c-.8 0-1.5-.3-2-.9a3 3 0 0 1-.7-2v-.3c0-.9.3-1.6.8-2.1.5-.6 1-.8 1.7-.8.8 0 1.4.2 1.8.7.4.5.6 1 .6 1.9v.7H74c0 .5.2 1 .4 1.4.3.3.7.5 1.2.5l1-.1.7-.5.4.7-.9.6-1.2.2Zm-.2-5.3c-.3 0-.6.2-.9.5l-.5 1v.1h2.8V24c0-.4-.1-.8-.4-1-.2-.4-.5-.5-1-.5ZM78.7 19.8V19h2v7.6l.9.2v.6h-2.9V27l1-.2V20l-1-.1ZM85 27.7c-.7 0-1.4-.3-1.9-.9a3 3 0 0 1-.7-2v-.3c0-.9.3-1.6.8-2.1.5-.6 1-.8 1.7-.8.8 0 1.4.2 1.8.7.4.5.6 1 .6 1.9v.7h-3.8c0 .5.2 1 .4 1.4.3.3.7.5 1.2.5l1-.1.6-.5.5.7-.9.6-1.2.2Zm0-5.3c-.4 0-.7.2-1 .5l-.5 1v.1h2.8V24c0-.4-.2-.8-.4-1-.2-.4-.5-.5-1-.5ZM91 26.8c.4 0 .7 0 1-.3.2-.2.4-.5.4-.8h1c0 .5-.3 1-.7 1.4-.5.4-1 .6-1.7.6-.8 0-1.5-.3-2-.9-.4-.5-.6-1.2-.6-2v-.3c0-.8.2-1.5.7-2.1.4-.6 1-.8 2-.8.4 0 .8 0 1.2.2.4.1.7.4 1 .6v1.3h-.9l-.2-.9-.5-.3-.7-.1c-.5 0-1 .2-1.2.6-.2.4-.3 1-.3 1.5v.2c0 .6 0 1.1.3 1.5.3.4.7.6 1.2.6ZM96.3 20.3v1.4h1.2v.8h-1.2V26l.2.6.5.2a2.6 2.6 0 0 0 .6-.1l.1.7-.4.2h-.6c-.4 0-.8 0-1-.3-.3-.3-.4-.7-.4-1.3v-3.5h-1v-.8h1v-1.4h1ZM98.8 22.3v-.7h1.9v.8l.7-.7a1.4 1.4 0 0 1 1.1-.2h.2l-.1 1h-.6c-.3 0-.6 0-.8.2l-.4.5v3.4l.9.2v.7h-2.9v-.7l1-.2v-4.2l-1-.1ZM103 24.6c0-1 .3-1.6.8-2.2.4-.6 1-.8 1.9-.8.8 0 1.4.2 1.9.8.5.6.7 1.3.7 2.2 0 1-.2 1.7-.7 2.2-.5.6-1.1.9-2 .9-.7 0-1.4-.3-1.8-.9-.5-.5-.7-1.3-.7-2.1v-.1Zm1.1 0c0 .7.2 1.2.4 1.6.3.4.7.6 1.2.6s.9-.2 1.1-.6c.3-.4.4-1 .4-1.5v-.1c0-.7 0-1.2-.4-1.6-.2-.4-.6-.6-1.1-.6-.5 0-1 .2-1.2.6-.2.4-.4 1-.4 1.6ZM109.1 26.9l1-.2v-4.2l-1-.1v-.7h1.9v.8l.8-.7a2 2 0 0 1 1-.2 2 2 0 0 1 1.5.5c.3.4.5 1 .5 1.7v3h.9v.7h-2.9V27l1-.2V24c0-.6-.2-1-.4-1.1-.2-.3-.5-.4-1-.4a1.5 1.5 0 0 0-1.3.9v3.4l.9.2v.6H109V27ZM116.5 26.9l.8-.2v-4.2l-.8-.1v-.7h2v5l.8.2v.6h-2.8V27Zm2-6.7h-1.2V19h1.1v1ZM122.8 26.8c.3 0 .6 0 .9-.3.3-.2.4-.5.4-.8h1c0 .5-.2 1-.7 1.4-.5.4-1 .6-1.6.6-.9 0-1.6-.3-2-.9-.5-.5-.7-1.2-.7-2v-.3c0-.8.2-1.5.7-2.1.5-.6 1.1-.8 2-.8.4 0 .8 0 1.2.2.4.1.7.4 1 .6v1.3h-.8l-.3-.9-.5-.3-.6-.1c-.6 0-1 .2-1.3.6-.2.4-.3 1-.3 1.5v.2c0 .6.1 1.1.3 1.5.3.4.7.6 1.3.6ZM130.3 23.5h-.8l-.2-.7-.5-.3h-.6c-.4 0-.7 0-.9.2-.2.1-.3.3-.3.6 0 .2.1.4.3.5.1.2.5.3 1 .4.7.1 1.3.4 1.6.6.4.3.6.7.6 1.1 0 .5-.2 1-.7 1.3-.4.3-1 .5-1.6.5-.5 0-.9 0-1.2-.2-.4 0-.7-.2-1-.4v-1.4h.8l.2.8.5.3h.7c.4 0 .7 0 .9-.2.2-.1.3-.3.3-.6 0-.2 0-.4-.3-.6l-1-.4c-.7-.1-1.2-.3-1.6-.6-.4-.3-.5-.6-.5-1.1 0-.5.2-.9.6-1.2.4-.4.9-.5 1.6-.5l1.2.1.8.5v1.3Z"/>
  <path stroke="#fff" stroke-width=".5" d="M134 25.3c0-.5.2-.8.5-1.2l1.1-1c-.3-.3-.5-.6-.6-1a2 2 0 0 1-.2-.8c0-.6.1-1 .5-1.4a2 2 0 0 1 1.5-.5c.5 0 1 .2 1.3.5.4.3.6.7.6 1.2l-.3.9-.8.8-.6.4 1.8 2.2a3 3 0 0 0 .5-1.6h1c0 .4-.1.9-.3 1.3-.1.4-.3.7-.6 1l1 1.3h-1.2l-.5-.5a3.3 3.3 0 0 1-2 .6c-.8 0-1.5-.2-2-.6a2 2 0 0 1-.6-1.6Zm2.7 1.4a2.4 2.4 0 0 0 1.4-.5l-2-2.4-.1.2c-.4.2-.6.5-.7.7l-.2.6c0 .4.2.7.4 1 .3.3.7.4 1.2.4Zm-.9-5.4c0 .2 0 .4.2.6l.4.7.8-.5.4-.5.1-.5c0-.2 0-.4-.3-.6a1 1 0 0 0-.6-.3c-.3 0-.6.1-.7.3-.2.2-.3.5-.3.8ZM75.3 38.7c-.8 0-1.5-.3-2-.9-.5-.5-.7-1.2-.7-2v-.3c0-.9.3-1.6.7-2.1.5-.6 1.1-.8 1.8-.8.8 0 1.4.2 1.8.7.4.4.6 1 .6 1.9v.7h-3.8c0 .5.2 1 .4 1.4.3.3.7.5 1.2.5l1-.1.6-.5.5.7c-.2.2-.5.4-.9.5-.3.2-.7.3-1.2.3Zm-.2-5.3c-.3 0-.6.1-.9.5-.3.3-.4.6-.5 1v.1h2.8V35c0-.4-.2-.8-.4-1-.2-.4-.5-.5-1-.5ZM78.4 37.9l1-.2v-4.2l-1-.1v-.7h1.9v.8l.8-.7a2 2 0 0 1 1-.2 2 2 0 0 1 1.5.5c.3.4.5 1 .5 1.7v2.9l.9.2v.6H82V38l1-.2v-2.8c0-.6-.2-1-.4-1.2-.2-.2-.5-.3-1-.3a1.5 1.5 0 0 0-1.3.9v3.4l.9.2v.6h-2.9V38ZM87.6 31.2v1.5h1.1v.8h-1v4.1l.5.2a2.6 2.6 0 0 0 .7-.1l.1.7-.4.2H88c-.5 0-.8 0-1-.3-.3-.3-.5-.7-.5-1.3v-3.5h-.9v-.8h1v-1.5h1ZM89.8 33.4v-.7h1.9v.8l.7-.7a1.4 1.4 0 0 1 1-.2h.3l-.2 1H93c-.2 0-.5 0-.7.2l-.4.5v3.4l.9.2v.6h-2.9V38l1-.2v-4.2l-1-.1ZM98.3 38.5a7.4 7.4 0 0 1-.2-.8l-.7.7a2 2 0 0 1-1 .3c-.6 0-1.1-.2-1.4-.5-.3-.3-.5-.7-.5-1.3 0-.5.2-1 .7-1.2.4-.3 1-.5 1.8-.5h1.1v-.7a1 1 0 0 0-.3-.8c-.2-.2-.5-.3-.9-.3l-.7.1c-.2 0-.4.2-.5.3l-.1.6h-.8v-1.1c.2-.3.6-.4 1-.6l1.2-.1c.6 0 1.2.1 1.6.5.4.3.6.8.6 1.4V37.8h.5v.7h-1.4Zm-1.8-.7c.4 0 .7-.1 1-.3l.6-.6v-1H97c-.4 0-.8.1-1 .3a1 1 0 0 0-.4.8c0 .2 0 .4.2.6l.7.2ZM100.4 37.9l.9-.2v-4.2l-.9-.1v-.7h1.8l.1.8.7-.7a2 2 0 0 1 1-.2 2 2 0 0 1 1.5.5c.4.4.6 1 .6 1.7v2.9l.8.2v.6h-2.8V38l.9-.2v-2.8c0-.6-.1-1-.3-1.2-.2-.2-.5-.3-1-.3a1.5 1.5 0 0 0-1.3.9v3.4l.8.2v.6h-2.8V38ZM110.3 37.8c.4 0 .7 0 1-.3.2-.2.3-.5.3-.8h1c0 .5-.2 1-.7 1.4-.4.4-1 .6-1.6.6-.9 0-1.5-.3-2-.9-.4-.5-.6-1.2-.6-2v-.3c0-.8.2-1.5.6-2.1.5-.6 1.1-.8 2-.8.5 0 .9 0 1.3.2l.9.6v1.3h-.8l-.2-.9-.5-.3-.7-.1c-.6 0-1 .2-1.2.6-.2.4-.4.9-.4 1.5v.2c0 .6.2 1.1.4 1.5.2.4.6.6 1.2.6ZM116.3 38.7c-.8 0-1.4-.3-2-.9a3 3 0 0 1-.6-2v-.3c0-.9.2-1.6.7-2.1.5-.6 1.1-.8 1.8-.8.8 0 1.4.2 1.8.7.4.4.6 1 .6 1.9v.7h-3.8c0 .5.1 1 .4 1.4.3.3.6.5 1.1.5l1-.1.7-.5.4.7-.8.5c-.4.2-.8.3-1.3.3Zm-.1-5.3c-.4 0-.7.1-1 .5-.2.3-.4.6-.4 1v.1h2.7V35c0-.4-.1-.8-.3-1-.2-.4-.6-.5-1-.5ZM127 34.5h-.9l-.2-.7-.5-.3-.6-.1c-.4 0-.7 0-.9.2l-.3.6c0 .3.1.5.3.6l1 .4c.7.1 1.3.3 1.6.6.4.3.6.6.6 1.1 0 .5-.2 1-.7 1.3-.4.3-1 .5-1.6.5l-1.2-.2-1-.4v-1.4h.8l.2.8.5.2.7.1c.4 0 .7 0 .9-.2l.3-.6c0-.3 0-.4-.3-.6-.1-.2-.5-.3-1-.4l-1.6-.6c-.3-.3-.5-.7-.5-1.1 0-.5.2-.9.6-1.2.4-.4 1-.5 1.6-.5l1.2.1.9.5v1.3ZM133.7 33.4h-.6l-2.2 6a3 3 0 0 1-.6 1c-.3.4-.7.5-1.2.5h-.3a3 3 0 0 1-.3 0l.1-1 .2.1h.3c.2 0 .4 0 .5-.3l.4-.7.3-.6-2-5h-.5v-.7h2.4v.7h-.7l1 3 .2.7 1.3-3.6-.7-.1v-.7h2.4v.7ZM138.9 34.5h-.8l-.2-.7-.5-.3-.6-.1c-.4 0-.7 0-.9.2l-.3.6c0 .3.1.5.3.6l1 .4c.7.1 1.3.3 1.6.6.4.3.6.6.6 1.1 0 .5-.2 1-.7 1.3-.4.3-1 .5-1.6.5l-1.2-.2-1-.4v-1.4h.8l.2.8.5.2.7.1c.4 0 .7 0 .9-.2l.3-.6c0-.3 0-.4-.3-.6-.2-.2-.5-.3-1-.4l-1.6-.6c-.4-.3-.5-.7-.5-1.1 0-.5.2-.9.6-1.2.4-.4.9-.5 1.6-.5l1.2.1.8.5v1.3ZM142 31.2v1.5h1v.8h-1V37l.1.6.5.2a2.6 2.6 0 0 0 .6-.1l.1.7-.4.2h-.6c-.4 0-.8 0-1-.3-.3-.3-.4-.7-.4-1.3v-3.5h-1v-.8h1v-1.5h1ZM146.8 38.7c-.8 0-1.4-.3-2-.9-.4-.5-.7-1.2-.7-2v-.3c0-.9.3-1.6.8-2.1.5-.6 1-.8 1.8-.8s1.3.2 1.8.7c.4.4.6 1 .6 1.9v.7h-3.8c0 .5 0 1 .4 1.4.2.3.6.5 1.1.5l1-.1.7-.5.4.7-.8.5c-.4.2-.8.3-1.3.3Zm-.1-5.3c-.4 0-.7.1-1 .5-.2.3-.4.6-.4 1v.1h2.7V35c0-.4-.1-.8-.3-1-.3-.4-.6-.5-1-.5ZM150 37.9l.8-.2v-4.2l-.9-.1v-.7h1.9v.7c.2-.3.5-.5.8-.6a2.2 2.2 0 0 1 2 0c.3.2.5.5.6.8l.8-.8a2 2 0 0 1 1-.2c.6 0 1.1.2 1.5.6.3.4.5 1 .5 1.8v2.7l.9.2v.6H157V38l.9-.2V35c0-.6-.1-1-.3-1.2-.2-.3-.5-.4-.9-.4s-.7.2-.9.4l-.4 1v2.9l1 .2v.6h-3V38l1-.2V35c0-.5-.2-1-.4-1.2-.2-.2-.5-.4-.8-.4-.4 0-.6 0-.8.2-.3.2-.4.3-.5.6v3.5l.9.2v.6h-2.9V38ZM165.1 34.5h-.8l-.1-.7-.5-.3-.7-.1c-.4 0-.7 0-.8.2l-.3.6c0 .3 0 .5.2.6l1 .4c.8.1 1.3.3 1.7.6.3.3.5.6.5 1.1 0 .5-.2 1-.6 1.3-.4.3-1 .5-1.7.5l-1.2-.2-1-.4v-1.4h.9l.2.8.5.2.6.1c.4 0 .7 0 1-.2l.2-.6c0-.3 0-.4-.2-.6-.2-.2-.5-.3-1-.4l-1.7-.6c-.3-.3-.5-.7-.5-1.1 0-.5.2-.9.6-1.2.4-.4 1-.5 1.6-.5l1.2.1c.4.1.7.3.9.5v1.3ZM75.6 27.7c-.8 0-1.5-.3-2-.9a3 3 0 0 1-.7-2v-.3c0-.9.3-1.6.8-2.1.5-.6 1-.8 1.7-.8.8 0 1.4.2 1.8.7.4.5.6 1 .6 1.9v.7H74c0 .5.2 1 .4 1.4.3.3.7.5 1.2.5l1-.1.7-.5.4.7-.9.6-1.2.2Zm-.2-5.3c-.3 0-.6.2-.9.5l-.5 1v.1h2.8V24c0-.4-.1-.8-.4-1-.2-.4-.5-.5-1-.5ZM78.7 19.8V19h2v7.6l.9.2v.6h-2.9V27l1-.2V20l-1-.1ZM85 27.7c-.7 0-1.4-.3-1.9-.9a3 3 0 0 1-.7-2v-.3c0-.9.3-1.6.8-2.1.5-.6 1-.8 1.7-.8.8 0 1.4.2 1.8.7.4.5.6 1 .6 1.9v.7h-3.8c0 .5.2 1 .4 1.4.3.3.7.5 1.2.5l1-.1.6-.5.5.7-.9.6-1.2.2Zm0-5.3c-.4 0-.7.2-1 .5l-.5 1v.1h2.8V24c0-.4-.2-.8-.4-1-.2-.4-.5-.5-1-.5ZM91 26.8c.4 0 .7 0 1-.3.2-.2.4-.5.4-.8h1c0 .5-.3 1-.7 1.4-.5.4-1 .6-1.7.6-.8 0-1.5-.3-2-.9-.4-.5-.6-1.2-.6-2v-.3c0-.8.2-1.5.7-2.1.4-.6 1-.8 2-.8.4 0 .8 0 1.2.2.4.1.7.4 1 .6v1.3h-.9l-.2-.9-.5-.3-.7-.1c-.5 0-1 .2-1.2.6-.2.4-.3 1-.3 1.5v.2c0 .6 0 1.1.3 1.5.3.4.7.6 1.2.6ZM96.3 20.3v1.4h1.2v.8h-1.2V26l.2.6.5.2a2.6 2.6 0 0 0 .6-.1l.1.7-.4.2h-.6c-.4 0-.8 0-1-.3-.3-.3-.4-.7-.4-1.3v-3.5h-1v-.8h1v-1.4h1ZM98.8 22.3v-.7h1.9v.8l.7-.7a1.4 1.4 0 0 1 1.1-.2h.2l-.1 1h-.6c-.3 0-.6 0-.8.2l-.4.5v3.4l.9.2v.7h-2.9v-.7l1-.2v-4.2l-1-.1ZM103 24.6c0-1 .3-1.6.8-2.2.4-.6 1-.8 1.9-.8.8 0 1.4.2 1.9.8.5.6.7 1.3.7 2.2 0 1-.2 1.7-.7 2.2-.5.6-1.1.9-2 .9-.7 0-1.4-.3-1.8-.9-.5-.5-.7-1.3-.7-2.1v-.1Zm1.1 0c0 .7.2 1.2.4 1.6.3.4.7.6 1.2.6s.9-.2 1.1-.6c.3-.4.4-1 .4-1.5v-.1c0-.7 0-1.2-.4-1.6-.2-.4-.6-.6-1.1-.6-.5 0-1 .2-1.2.6-.2.4-.4 1-.4 1.6ZM109.1 26.9l1-.2v-4.2l-1-.1v-.7h1.9v.8l.8-.7a2 2 0 0 1 1-.2 2 2 0 0 1 1.5.5c.3.4.5 1 .5 1.7v3h.9v.7h-2.9V27l1-.2V24c0-.6-.2-1-.4-1.1-.2-.3-.5-.4-1-.4a1.5 1.5 0 0 0-1.3.9v3.4l.9.2v.6H109V27ZM116.5 26.9l.8-.2v-4.2l-.8-.1v-.7h2v5l.8.2v.6h-2.8V27Zm2-6.7h-1.2V19h1.1v1ZM122.8 26.8c.3 0 .6 0 .9-.3.3-.2.4-.5.4-.8h1c0 .5-.2 1-.7 1.4-.5.4-1 .6-1.6.6-.9 0-1.6-.3-2-.9-.5-.5-.7-1.2-.7-2v-.3c0-.8.2-1.5.7-2.1.5-.6 1.1-.8 2-.8.4 0 .8 0 1.2.2.4.1.7.4 1 .6v1.3h-.8l-.3-.9-.5-.3-.6-.1c-.6 0-1 .2-1.3.6-.2.4-.3 1-.3 1.5v.2c0 .6.1 1.1.3 1.5.3.4.7.6 1.3.6ZM130.3 23.5h-.8l-.2-.7-.5-.3h-.6c-.4 0-.7 0-.9.2-.2.1-.3.3-.3.6 0 .2.1.4.3.5.1.2.5.3 1 .4.7.1 1.3.4 1.6.6.4.3.6.7.6 1.1 0 .5-.2 1-.7 1.3-.4.3-1 .5-1.6.5-.5 0-.9 0-1.2-.2-.4 0-.7-.2-1-.4v-1.4h.8l.2.8.5.3h.7c.4 0 .7 0 .9-.2.2-.1.3-.3.3-.6 0-.2 0-.4-.3-.6l-1-.4c-.7-.1-1.2-.3-1.6-.6-.4-.3-.5-.6-.5-1.1 0-.5.2-.9.6-1.2.4-.4.9-.5 1.6-.5l1.2.1.8.5v1.3Z" mask="url(#a)"/>
  <mask id="b" width="82" height="12" x="94.2" y="44.8" fill="#000" maskUnits="userSpaceOnUse">
    <path fill="#fff" d="M94.2 44.8h82v12h-82z"/>
    <path d="m100.2 50.3.1-.2.2-.3h.6V50.1l-.1.2-.1.2-.5 1.3-.5 1.4-.4 1.1a4 4 0 0 1-.3.8v.2l.6-.4a12 12 0 0 0 .8-.9l.2.2a7.2 7.2 0 0 1-1.6 1.5l-.6.1h-.2l-.1-.3v-.3a10.5 10.5 0 0 1 .5-1.2l.3-.7-.3.5-1.4 1.4a5 5 0 0 1-.8.5l-.6.1a1 1 0 0 1-.4 0 .7.7 0 0 1-.3-.4V55l.1-1a5.6 5.6 0 0 1 2-2.8l1-.7a3 3 0 0 1 1.3-.3 1.6 1.6 0 0 1 .5 0ZM96.7 55l.3-.1.6-.4a53.3 53.3 0 0 0 1.6-1.8l.4-.7.2-.5V50.7l-.4-.2-.5.1-.9.6-1 1.2-.7 1.2a3 3 0 0 0-.2 1v.4l.4.1h.2ZM105.6 50.9l-.2-.2-.1-.2c0-.2-.1-.3-.2-.3l-.2-.1c-.1 0-.3 0-.5.3-.4.4-.7 1-1.1 2-.4.8-.6 1.6-.6 2.2l.1.4.2.1c.2 0 .4 0 .7-.3l1-1.1h.2l-.4.6c-.3.6-.7 1-1 1.2l-.8.3c-.3 0-.4 0-.6-.3l-.2-1c0-.4 0-.8.3-1.4a8.5 8.5 0 0 1 1.7-2.8l.9-.6.6-.1c.2 0 .4 0 .6.3l.2.6-.1.3-.3.1h-.2ZM110 50.9l-.1-.2-.1-.2-.2-.3-.2-.1c-.2 0-.3 0-.5.3-.4.4-.8 1-1.1 2-.4.8-.6 1.6-.6 2.2l.1.4.2.1c.2 0 .4 0 .6-.3l1-1.1H109.4l-.4.6c-.4.6-.7 1-1 1.2l-.9.3c-.2 0-.4 0-.5-.3-.2-.2-.2-.5-.2-1 0-.4 0-.8.2-1.4.2-.6.5-1.1.9-1.6l.9-1.2.8-.6.7-.1c.2 0 .4 0 .5.3.2.1.3.3.3.6l-.1.3-.3.1h-.2ZM111.9 53a4 4 0 0 0-.2 1.3c0 .4 0 .6.2.8 0 .2.2.2.4.2h.3l.5-.4a3.3 3.3 0 0 0 .7-1.2H114.1c-.1.6-.5 1.1-1 1.7-.4.3-.8.5-1.2.5a.8.8 0 0 1-.7-.4 2 2 0 0 1-.3-1.3v-.8a5 5 0 0 1 .8-1.8l.6-.8.6-.7.5-.3.6-.1c.2 0 .4 0 .6.3.2.2.3.4.3.7 0 .3 0 .6-.2.8l-.5.6-.6.4-.5.2-1.2.3Zm.1-.4.8-.2.7-.4.4-.4.3-.6.2-.6c0-.2 0-.3-.2-.4l-.3-.1-.4.2c-.3.3-.7.7-1 1.4l-.5 1ZM115.7 54.4c.3 0 .5.2.6.5l.3.4.3.1.6-.3.2-.7-.3-1-.3-1.6c0-.6.1-1.1.4-1.5.3-.5.8-.7 1.5-.7.3 0 .5 0 .6.2l.3.6-.1.3-.3.2-.6-.3a2 2 0 0 0-.3-.4h-.3l-.4.1-.1.5c0 .4 0 1 .3 1.6.3.7.4 1.3.4 1.7 0 .2-.1.5-.3.7-.1.3-.3.5-.7.7a2 2 0 0 1-1 .3c-.4 0-.7-.1-1-.3a.8.8 0 0 1-.2-.6l.1-.4.3-.1ZM120.5 54.4c.3 0 .5.2.6.5l.3.4.2.1c.2 0 .5-.1.6-.3.2-.1.3-.4.3-.7l-.3-1-.3-1.6c0-.6.1-1.1.4-1.5.3-.5.8-.7 1.5-.7.2 0 .5 0 .6.2l.3.6-.1.3-.3.2-.6-.3a2 2 0 0 0-.3-.4h-.3l-.4.1-.1.5c0 .4 0 1 .3 1.6l.4 1.7c0 .2-.1.5-.3.7-.1.3-.4.5-.7.7a2 2 0 0 1-1 .3c-.4 0-.7-.1-1-.3a.8.8 0 0 1-.2-.6l.1-.4.3-.1ZM129.5 54.4c.2 0 .4.2.6.5l.2.4.3.1.6-.3.2-.7c0-.2 0-.6-.3-1l-.3-1.6c0-.6.1-1.1.5-1.5.3-.5.7-.7 1.4-.7.3 0 .5 0 .7.2l.2.6-.1.3-.3.2-.6-.3a2 2 0 0 0-.3-.4h-.3l-.3.1c-.2.1-.2.3-.2.5 0 .4.1 1 .4 1.6l.3 1.7c0 .2 0 .5-.2.7-.2.3-.4.5-.8.7a2 2 0 0 1-1 .3c-.4 0-.7-.1-.9-.3a.8.8 0 0 1-.3-.6l.1-.4.4-.1ZM138.8 51.4c0 1.2-.4 2.2-1 3-.8 1-1.5 1.4-2.2 1.4-.4 0-.7-.1-1-.4-.2-.3-.4-.8-.4-1.4l.3-1.5a4.4 4.4 0 0 1 1-1.7l1-.9a2 2 0 0 1 1-.3c.4 0 .7.1 1 .4.1.3.3.8.3 1.4Zm-3.9 3.4c0 .2 0 .4.2.5l.5.2.7-.4c.4-.4.8-1.1 1.3-2.1.4-1 .6-1.8.6-2.4l-.1-.5-.4-.2c-.3 0-.6.2-1 .5-.4.6-1 1.4-1.3 2.4-.3.8-.5 1.5-.5 2ZM142.5 46V46h1.7l-.2.7-.6 1.4-1 2.6-.9 2.2-.2.7-.4 1-.3.5v.1c.2 0 .4 0 .7-.3l1-1.1h.3l-.6.8-.7.7-.9.5-.5.1h-.2v-.2c0-.2.4-1.3 1.2-3l.7-2a37.7 37.7 0 0 1 1.6-4v-.3l-.7-.2ZM145.7 50.2l-.7.6a6.5 6.5 0 0 0-.7.8h-.3l.7-1a5 5 0 0 1 1.2-.9l.5-.1h.2l.1.3v.4l-.2.3a50 50 0 0 1-2.1 4.4c.1 0 .3 0 .5-.3a15.2 15.2 0 0 0 1.8-1.7l1.4-1.7 1-1.7h.3l.3.1-.6 1.5-1.4 3.4-.2.5.3-.1.7-.8.3-.3h.2c-.2.5-.6 1-1.2 1.5-.3.3-.5.4-.7.4h-.3l-.1-.3.3-1 1-2.5.1-.1a90.7 90.7 0 0 0-2.4 2.6 9 9 0 0 1-1.6 1.2l-.5.1h-.1l-.1-.3v-.3l.5-1 1.2-2.4.5-1.1.2-.3v-.2ZM152.4 50.3H151.2v-.4h1.4l.2-.6a14.3 14.3 0 0 0 .6-1.5 2.8 2.8 0 0 1 .7 0 11.9 11.9 0 0 1-.7 2h.4l.2.1h.7v.4a8.1 8.1 0 0 1-1.1 0h-.5l-1.2 3a62.5 62.5 0 0 0-.6 1.7l.6-.3 1.2-1.3.2.2-1 1.2a6.1 6.1 0 0 1-1.4.9 1 1 0 0 1-.3 0h-.3v-.2c0-.2 0-.5.3-1l.3-.7 1.1-2.6.4-1ZM157 46.9l.1-.5.5-.2.4.2.2.4c0 .2 0 .4-.2.6l-.5.1c-.2 0-.3 0-.4-.2a.6.6 0 0 1-.2-.4Zm-.3 3.3h-.3a3.3 3.3 0 0 0-1.1 1h-.4c.3-.5.8-.9 1.2-1.1.5-.3.8-.5 1.1-.5l.3.1v.2c0 .3 0 .7-.4 1.2l-.2.6a21 21 0 0 1-1.5 2.8l-.2.6h.4l.6-.5.6-.8h.3a6 6 0 0 1-.6 1l-1 .8-.7.2-.3-.1-.1-.3c0-.3.2-1 .8-2.1l1.2-2.2a4.8 4.8 0 0 0 .3-.8ZM163 51.4c0 1.2-.3 2.2-1 3-.7 1-1.4 1.4-2.2 1.4-.4 0-.7-.1-1-.4-.2-.3-.3-.8-.3-1.4 0-.5 0-1 .3-1.5a4.4 4.4 0 0 1 1-1.7c.2-.4.5-.6.9-.9a2 2 0 0 1 1-.3c.4 0 .7.1 1 .4.2.3.3.8.3 1.4Zm-3.8 3.4.1.5.5.2c.3 0 .5-.2.7-.4.5-.4.9-1.1 1.3-2.1s.6-1.8.6-2.4l-.1-.5-.4-.2c-.3 0-.6.2-.9.5-.5.6-1 1.4-1.4 2.4-.3.8-.4 1.5-.4 2ZM166 50.5c-.3 0-.7.3-1.3 1.1a1.5 1.5 0 0 1-.2 0 5.7 5.7 0 0 1 1.2-1.5l.8-.5a.5.5 0 0 1 .3 0l.1.2v.5l-.4.9-.4 1a16.3 16.3 0 0 0-.2.7l1.5-2c.5-.5 1-1 1.3-1.1.2-.2.5-.3.7-.3.2 0 .3 0 .4.2l.1.3v.3l-.2.8-1 2.1-.7 1.7V55.2c.3-.1.7-.5 1.3-1.4h.3a8 8 0 0 1-.8 1.1c-.3.3-.5.6-.9.8a1 1 0 0 1-.5.1h-.3v-.2c0-.3 0-.7.3-1.2l1-2.3.5-1 .2-.5v-.4h-.5a5 5 0 0 0-1.2 1.2 18 18 0 0 0-2.8 4.4h-.5v-.4l.8-2 .2-.4 1-2.5ZM171 54.4c.3 0 .5.2.7.5l.2.4.3.1.6-.3.2-.7c0-.2 0-.6-.3-1l-.3-1.6c0-.6.1-1.1.4-1.5.3-.5.8-.7 1.5-.7.3 0 .5 0 .7.2l.2.6-.1.3-.3.2-.6-.3a2 2 0 0 0-.3-.4h-.3l-.4.1-.1.5.3 1.6c.3.7.4 1.3.4 1.7 0 .2 0 .5-.2.7-.2.3-.4.5-.8.7a2 2 0 0 1-1 .3c-.4 0-.7-.1-.9-.3a.8.8 0 0 1-.3-.6l.1-.4.4-.1Z"/>
  </mask>
  <path fill="#fff" d="m100.2 50.3.1-.2.2-.3h.6V50.1l-.1.2-.1.2-.5 1.3-.5 1.4-.4 1.1a4 4 0 0 1-.3.8v.2l.6-.4a12 12 0 0 0 .8-.9l.2.2a7.2 7.2 0 0 1-1.6 1.5l-.6.1h-.2l-.1-.3v-.3a10.5 10.5 0 0 1 .5-1.2l.3-.7-.3.5-1.4 1.4a5 5 0 0 1-.8.5l-.6.1a1 1 0 0 1-.4 0 .7.7 0 0 1-.3-.4V55l.1-1a5.6 5.6 0 0 1 2-2.8l1-.7a3 3 0 0 1 1.3-.3 1.6 1.6 0 0 1 .5 0ZM96.7 55l.3-.1.6-.4a53.3 53.3 0 0 0 1.6-1.8l.4-.7.2-.5V50.7l-.4-.2-.5.1-.9.6-1 1.2-.7 1.2a3 3 0 0 0-.2 1v.4l.4.1h.2ZM105.6 50.9l-.2-.2-.1-.2c0-.2-.1-.3-.2-.3l-.2-.1c-.1 0-.3 0-.5.3-.4.4-.7 1-1.1 2-.4.8-.6 1.6-.6 2.2l.1.4.2.1c.2 0 .4 0 .7-.3l1-1.1h.2l-.4.6c-.3.6-.7 1-1 1.2l-.8.3c-.3 0-.4 0-.6-.3l-.2-1c0-.4 0-.8.3-1.4a8.5 8.5 0 0 1 1.7-2.8l.9-.6.6-.1c.2 0 .4 0 .6.3l.2.6-.1.3-.3.1h-.2ZM110 50.9l-.1-.2-.1-.2-.2-.3-.2-.1c-.2 0-.3 0-.5.3-.4.4-.8 1-1.1 2-.4.8-.6 1.6-.6 2.2l.1.4.2.1c.2 0 .4 0 .6-.3l1-1.1H109.4l-.4.6c-.4.6-.7 1-1 1.2l-.9.3c-.2 0-.4 0-.5-.3-.2-.2-.2-.5-.2-1 0-.4 0-.8.2-1.4.2-.6.5-1.1.9-1.6l.9-1.2.8-.6.7-.1c.2 0 .4 0 .5.3.2.1.3.3.3.6l-.1.3-.3.1h-.2ZM111.9 53a4 4 0 0 0-.2 1.3c0 .4 0 .6.2.8 0 .2.2.2.4.2h.3l.5-.4a3.3 3.3 0 0 0 .7-1.2H114.1c-.1.6-.5 1.1-1 1.7-.4.3-.8.5-1.2.5a.8.8 0 0 1-.7-.4 2 2 0 0 1-.3-1.3v-.8a5 5 0 0 1 .8-1.8l.6-.8.6-.7.5-.3.6-.1c.2 0 .4 0 .6.3.2.2.3.4.3.7 0 .3 0 .6-.2.8l-.5.6-.6.4-.5.2-1.2.3Zm.1-.4.8-.2.7-.4.4-.4.3-.6.2-.6c0-.2 0-.3-.2-.4l-.3-.1-.4.2c-.3.3-.7.7-1 1.4l-.5 1ZM115.7 54.4c.3 0 .5.2.6.5l.3.4.3.1.6-.3.2-.7-.3-1-.3-1.6c0-.6.1-1.1.4-1.5.3-.5.8-.7 1.5-.7.3 0 .5 0 .6.2l.3.6-.1.3-.3.2-.6-.3a2 2 0 0 0-.3-.4h-.3l-.4.1-.1.5c0 .4 0 1 .3 1.6.3.7.4 1.3.4 1.7 0 .2-.1.5-.3.7-.1.3-.3.5-.7.7a2 2 0 0 1-1 .3c-.4 0-.7-.1-1-.3a.8.8 0 0 1-.2-.6l.1-.4.3-.1ZM120.5 54.4c.3 0 .5.2.6.5l.3.4.2.1c.2 0 .5-.1.6-.3.2-.1.3-.4.3-.7l-.3-1-.3-1.6c0-.6.1-1.1.4-1.5.3-.5.8-.7 1.5-.7.2 0 .5 0 .6.2l.3.6-.1.3-.3.2-.6-.3a2 2 0 0 0-.3-.4h-.3l-.4.1-.1.5c0 .4 0 1 .3 1.6l.4 1.7c0 .2-.1.5-.3.7-.1.3-.4.5-.7.7a2 2 0 0 1-1 .3c-.4 0-.7-.1-1-.3a.8.8 0 0 1-.2-.6l.1-.4.3-.1ZM129.5 54.4c.2 0 .4.2.6.5l.2.4.3.1.6-.3.2-.7c0-.2 0-.6-.3-1l-.3-1.6c0-.6.1-1.1.5-1.5.3-.5.7-.7 1.4-.7.3 0 .5 0 .7.2l.2.6-.1.3-.3.2-.6-.3a2 2 0 0 0-.3-.4h-.3l-.3.1c-.2.1-.2.3-.2.5 0 .4.1 1 .4 1.6l.3 1.7c0 .2 0 .5-.2.7-.2.3-.4.5-.8.7a2 2 0 0 1-1 .3c-.4 0-.7-.1-.9-.3a.8.8 0 0 1-.3-.6l.1-.4.4-.1ZM138.8 51.4c0 1.2-.4 2.2-1 3-.8 1-1.5 1.4-2.2 1.4-.4 0-.7-.1-1-.4-.2-.3-.4-.8-.4-1.4l.3-1.5a4.4 4.4 0 0 1 1-1.7l1-.9a2 2 0 0 1 1-.3c.4 0 .7.1 1 .4.1.3.3.8.3 1.4Zm-3.9 3.4c0 .2 0 .4.2.5l.5.2.7-.4c.4-.4.8-1.1 1.3-2.1.4-1 .6-1.8.6-2.4l-.1-.5-.4-.2c-.3 0-.6.2-1 .5-.4.6-1 1.4-1.3 2.4-.3.8-.5 1.5-.5 2ZM142.5 46V46h1.7l-.2.7-.6 1.4-1 2.6-.9 2.2-.2.7-.4 1-.3.5v.1c.2 0 .4 0 .7-.3l1-1.1h.3l-.6.8-.7.7-.9.5-.5.1h-.2v-.2c0-.2.4-1.3 1.2-3l.7-2a37.7 37.7 0 0 1 1.6-4v-.3l-.7-.2ZM145.7 50.2l-.7.6a6.5 6.5 0 0 0-.7.8h-.3l.7-1a5 5 0 0 1 1.2-.9l.5-.1h.2l.1.3v.4l-.2.3a50 50 0 0 1-2.1 4.4c.1 0 .3 0 .5-.3a15.2 15.2 0 0 0 1.8-1.7l1.4-1.7 1-1.7h.3l.3.1-.6 1.5-1.4 3.4-.2.5.3-.1.7-.8.3-.3h.2c-.2.5-.6 1-1.2 1.5-.3.3-.5.4-.7.4h-.3l-.1-.3.3-1 1-2.5.1-.1a90.7 90.7 0 0 0-2.4 2.6 9 9 0 0 1-1.6 1.2l-.5.1h-.1l-.1-.3v-.3l.5-1 1.2-2.4.5-1.1.2-.3v-.2ZM152.4 50.3H151.2v-.4h1.4l.2-.6a14.3 14.3 0 0 0 .6-1.5 2.8 2.8 0 0 1 .7 0 11.9 11.9 0 0 1-.7 2h.4l.2.1h.7v.4a8.1 8.1 0 0 1-1.1 0h-.5l-1.2 3a62.5 62.5 0 0 0-.6 1.7l.6-.3 1.2-1.3.2.2-1 1.2a6.1 6.1 0 0 1-1.4.9 1 1 0 0 1-.3 0h-.3v-.2c0-.2 0-.5.3-1l.3-.7 1.1-2.6.4-1ZM157 46.9l.1-.5.5-.2.4.2.2.4c0 .2 0 .4-.2.6l-.5.1c-.2 0-.3 0-.4-.2a.6.6 0 0 1-.2-.4Zm-.3 3.3h-.3a3.3 3.3 0 0 0-1.1 1h-.4c.3-.5.8-.9 1.2-1.1.5-.3.8-.5 1.1-.5l.3.1v.2c0 .3 0 .7-.4 1.2l-.2.6a21 21 0 0 1-1.5 2.8l-.2.6h.4l.6-.5.6-.8h.3a6 6 0 0 1-.6 1l-1 .8-.7.2-.3-.1-.1-.3c0-.3.2-1 .8-2.1l1.2-2.2a4.8 4.8 0 0 0 .3-.8ZM163 51.4c0 1.2-.3 2.2-1 3-.7 1-1.4 1.4-2.2 1.4-.4 0-.7-.1-1-.4-.2-.3-.3-.8-.3-1.4 0-.5 0-1 .3-1.5a4.4 4.4 0 0 1 1-1.7c.2-.4.5-.6.9-.9a2 2 0 0 1 1-.3c.4 0 .7.1 1 .4.2.3.3.8.3 1.4Zm-3.8 3.4.1.5.5.2c.3 0 .5-.2.7-.4.5-.4.9-1.1 1.3-2.1s.6-1.8.6-2.4l-.1-.5-.4-.2c-.3 0-.6.2-.9.5-.5.6-1 1.4-1.4 2.4-.3.8-.4 1.5-.4 2ZM166 50.5c-.3 0-.7.3-1.3 1.1a1.5 1.5 0 0 1-.2 0 5.7 5.7 0 0 1 1.2-1.5l.8-.5a.5.5 0 0 1 .3 0l.1.2v.5l-.4.9-.4 1a16.3 16.3 0 0 0-.2.7l1.5-2c.5-.5 1-1 1.3-1.1.2-.2.5-.3.7-.3.2 0 .3 0 .4.2l.1.3v.3l-.2.8-1 2.1-.7 1.7V55.2c.3-.1.7-.5 1.3-1.4h.3a8 8 0 0 1-.8 1.1c-.3.3-.5.6-.9.8a1 1 0 0 1-.5.1h-.3v-.2c0-.3 0-.7.3-1.2l1-2.3.5-1 .2-.5v-.4h-.5a5 5 0 0 0-1.2 1.2 18 18 0 0 0-2.8 4.4h-.5v-.4l.8-2 .2-.4 1-2.5ZM171 54.4c.3 0 .5.2.7.5l.2.4.3.1.6-.3.2-.7c0-.2 0-.6-.3-1l-.3-1.6c0-.6.1-1.1.4-1.5.3-.5.8-.7 1.5-.7.3 0 .5 0 .7.2l.2.6-.1.3-.3.2-.6-.3a2 2 0 0 0-.3-.4h-.3l-.4.1-.1.5.3 1.6c.3.7.4 1.3.4 1.7 0 .2 0 .5-.2.7-.2.3-.4.5-.8.7a2 2 0 0 1-1 .3c-.4 0-.7-.1-.9-.3a.8.8 0 0 1-.3-.6l.1-.4.4-.1Z"/>
  <path stroke="#fff" stroke-width=".5" d="m100.2 50.3.1-.2.2-.3h.6V50.1l-.1.2-.1.2-.5 1.3-.5 1.4-.4 1.1a4 4 0 0 1-.3.8v.2l.6-.4a12 12 0 0 0 .8-.9l.2.2a7.2 7.2 0 0 1-1.6 1.5l-.6.1h-.2l-.1-.3v-.3a10.5 10.5 0 0 1 .5-1.2l.3-.7-.3.5-1.4 1.4a5 5 0 0 1-.8.5l-.6.1a1 1 0 0 1-.4 0 .7.7 0 0 1-.3-.4V55l.1-1a5.6 5.6 0 0 1 2-2.8l1-.7a3 3 0 0 1 1.3-.3 1.6 1.6 0 0 1 .5 0ZM96.7 55l.3-.1.6-.4a53.3 53.3 0 0 0 1.6-1.8l.4-.7.2-.5V50.7l-.4-.2-.5.1-.9.6-1 1.2-.7 1.2a3 3 0 0 0-.2 1v.4l.4.1h.2ZM105.6 50.9l-.2-.2-.1-.2c0-.2-.1-.3-.2-.3l-.2-.1c-.1 0-.3 0-.5.3-.4.4-.7 1-1.1 2-.4.8-.6 1.6-.6 2.2l.1.4.2.1c.2 0 .4 0 .7-.3l1-1.1h.2l-.4.6c-.3.6-.7 1-1 1.2l-.8.3c-.3 0-.4 0-.6-.3l-.2-1c0-.4 0-.8.3-1.4a8.5 8.5 0 0 1 1.7-2.8l.9-.6.6-.1c.2 0 .4 0 .6.3l.2.6-.1.3-.3.1h-.2ZM110 50.9l-.1-.2-.1-.2-.2-.3-.2-.1c-.2 0-.3 0-.5.3-.4.4-.8 1-1.1 2-.4.8-.6 1.6-.6 2.2l.1.4.2.1c.2 0 .4 0 .6-.3l1-1.1H109.4l-.4.6c-.4.6-.7 1-1 1.2l-.9.3c-.2 0-.4 0-.5-.3-.2-.2-.2-.5-.2-1 0-.4 0-.8.2-1.4.2-.6.5-1.1.9-1.6l.9-1.2.8-.6.7-.1c.2 0 .4 0 .5.3.2.1.3.3.3.6l-.1.3-.3.1h-.2ZM111.9 53a4 4 0 0 0-.2 1.3c0 .4 0 .6.2.8 0 .2.2.2.4.2h.3l.5-.4a3.3 3.3 0 0 0 .7-1.2H114.1c-.1.6-.5 1.1-1 1.7-.4.3-.8.5-1.2.5a.8.8 0 0 1-.7-.4 2 2 0 0 1-.3-1.3v-.8a5 5 0 0 1 .8-1.8l.6-.8.6-.7.5-.3.6-.1c.2 0 .4 0 .6.3.2.2.3.4.3.7 0 .3 0 .6-.2.8l-.5.6-.6.4-.5.2-1.2.3Zm.1-.4.8-.2.7-.4.4-.4.3-.6.2-.6c0-.2 0-.3-.2-.4l-.3-.1-.4.2c-.3.3-.7.7-1 1.4l-.5 1ZM115.7 54.4c.3 0 .5.2.6.5l.3.4.3.1.6-.3.2-.7-.3-1-.3-1.6c0-.6.1-1.1.4-1.5.3-.5.8-.7 1.5-.7.3 0 .5 0 .6.2l.3.6-.1.3-.3.2-.6-.3a2 2 0 0 0-.3-.4h-.3l-.4.1-.1.5c0 .4 0 1 .3 1.6.3.7.4 1.3.4 1.7 0 .2-.1.5-.3.7-.1.3-.3.5-.7.7a2 2 0 0 1-1 .3c-.4 0-.7-.1-1-.3a.8.8 0 0 1-.2-.6l.1-.4.3-.1ZM120.5 54.4c.3 0 .5.2.6.5l.3.4.2.1c.2 0 .5-.1.6-.3.2-.1.3-.4.3-.7l-.3-1-.3-1.6c0-.6.1-1.1.4-1.5.3-.5.8-.7 1.5-.7.2 0 .5 0 .6.2l.3.6-.1.3-.3.2-.6-.3a2 2 0 0 0-.3-.4h-.3l-.4.1-.1.5c0 .4 0 1 .3 1.6l.4 1.7c0 .2-.1.5-.3.7-.1.3-.4.5-.7.7a2 2 0 0 1-1 .3c-.4 0-.7-.1-1-.3a.8.8 0 0 1-.2-.6l.1-.4.3-.1ZM129.5 54.4c.2 0 .4.2.6.5l.2.4.3.1.6-.3.2-.7c0-.2 0-.6-.3-1l-.3-1.6c0-.6.1-1.1.5-1.5.3-.5.7-.7 1.4-.7.3 0 .5 0 .7.2l.2.6-.1.3-.3.2-.6-.3a2 2 0 0 0-.3-.4h-.3l-.3.1c-.2.1-.2.3-.2.5 0 .4.1 1 .4 1.6l.3 1.7c0 .2 0 .5-.2.7-.2.3-.4.5-.8.7a2 2 0 0 1-1 .3c-.4 0-.7-.1-.9-.3a.8.8 0 0 1-.3-.6l.1-.4.4-.1ZM138.8 51.4c0 1.2-.4 2.2-1 3-.8 1-1.5 1.4-2.2 1.4-.4 0-.7-.1-1-.4-.2-.3-.4-.8-.4-1.4l.3-1.5a4.4 4.4 0 0 1 1-1.7l1-.9a2 2 0 0 1 1-.3c.4 0 .7.1 1 .4.1.3.3.8.3 1.4Zm-3.9 3.4c0 .2 0 .4.2.5l.5.2.7-.4c.4-.4.8-1.1 1.3-2.1.4-1 .6-1.8.6-2.4l-.1-.5-.4-.2c-.3 0-.6.2-1 .5-.4.6-1 1.4-1.3 2.4-.3.8-.5 1.5-.5 2ZM142.5 46V46h1.7l-.2.7-.6 1.4-1 2.6-.9 2.2-.2.7-.4 1-.3.5v.1c.2 0 .4 0 .7-.3l1-1.1h.3l-.6.8-.7.7-.9.5-.5.1h-.2v-.2c0-.2.4-1.3 1.2-3l.7-2a37.7 37.7 0 0 1 1.6-4v-.3l-.7-.2ZM145.7 50.2l-.7.6a6.5 6.5 0 0 0-.7.8h-.3l.7-1a5 5 0 0 1 1.2-.9l.5-.1h.2l.1.3v.4l-.2.3a50 50 0 0 1-2.1 4.4c.1 0 .3 0 .5-.3a15.2 15.2 0 0 0 1.8-1.7l1.4-1.7 1-1.7h.3l.3.1-.6 1.5-1.4 3.4-.2.5.3-.1.7-.8.3-.3h.2c-.2.5-.6 1-1.2 1.5-.3.3-.5.4-.7.4h-.3l-.1-.3.3-1 1-2.5.1-.1a90.7 90.7 0 0 0-2.4 2.6 9 9 0 0 1-1.6 1.2l-.5.1h-.1l-.1-.3v-.3l.5-1 1.2-2.4.5-1.1.2-.3v-.2ZM152.4 50.3H151.2v-.4h1.4l.2-.6a14.3 14.3 0 0 0 .6-1.5 2.8 2.8 0 0 1 .7 0 11.9 11.9 0 0 1-.7 2h.4l.2.1h.7v.4a8.1 8.1 0 0 1-1.1 0h-.5l-1.2 3a62.5 62.5 0 0 0-.6 1.7l.6-.3 1.2-1.3.2.2-1 1.2a6.1 6.1 0 0 1-1.4.9 1 1 0 0 1-.3 0h-.3v-.2c0-.2 0-.5.3-1l.3-.7 1.1-2.6.4-1ZM157 46.9l.1-.5.5-.2.4.2.2.4c0 .2 0 .4-.2.6l-.5.1c-.2 0-.3 0-.4-.2a.6.6 0 0 1-.2-.4Zm-.3 3.3h-.3a3.3 3.3 0 0 0-1.1 1h-.4c.3-.5.8-.9 1.2-1.1.5-.3.8-.5 1.1-.5l.3.1v.2c0 .3 0 .7-.4 1.2l-.2.6a21 21 0 0 1-1.5 2.8l-.2.6h.4l.6-.5.6-.8h.3a6 6 0 0 1-.6 1l-1 .8-.7.2-.3-.1-.1-.3c0-.3.2-1 .8-2.1l1.2-2.2a4.8 4.8 0 0 0 .3-.8ZM163 51.4c0 1.2-.3 2.2-1 3-.7 1-1.4 1.4-2.2 1.4-.4 0-.7-.1-1-.4-.2-.3-.3-.8-.3-1.4 0-.5 0-1 .3-1.5a4.4 4.4 0 0 1 1-1.7c.2-.4.5-.6.9-.9a2 2 0 0 1 1-.3c.4 0 .7.1 1 .4.2.3.3.8.3 1.4Zm-3.8 3.4.1.5.5.2c.3 0 .5-.2.7-.4.5-.4.9-1.1 1.3-2.1s.6-1.8.6-2.4l-.1-.5-.4-.2c-.3 0-.6.2-.9.5-.5.6-1 1.4-1.4 2.4-.3.8-.4 1.5-.4 2ZM166 50.5c-.3 0-.7.3-1.3 1.1a1.5 1.5 0 0 1-.2 0 5.7 5.7 0 0 1 1.2-1.5l.8-.5a.5.5 0 0 1 .3 0l.1.2v.5l-.4.9-.4 1a16.3 16.3 0 0 0-.2.7l1.5-2c.5-.5 1-1 1.3-1.1.2-.2.5-.3.7-.3.2 0 .3 0 .4.2l.1.3v.3l-.2.8-1 2.1-.7 1.7V55.2c.3-.1.7-.5 1.3-1.4h.3a8 8 0 0 1-.8 1.1c-.3.3-.5.6-.9.8a1 1 0 0 1-.5.1h-.3v-.2c0-.3 0-.7.3-1.2l1-2.3.5-1 .2-.5v-.4h-.5a5 5 0 0 0-1.2 1.2 18 18 0 0 0-2.8 4.4h-.5v-.4l.8-2 .2-.4 1-2.5ZM171 54.4c.3 0 .5.2.7.5l.2.4.3.1.6-.3.2-.7c0-.2 0-.6-.3-1l-.3-1.6c0-.6.1-1.1.4-1.5.3-.5.8-.7 1.5-.7.3 0 .5 0 .7.2l.2.6-.1.3-.3.2-.6-.3a2 2 0 0 0-.3-.4h-.3l-.4.1-.1.5.3 1.6c.3.7.4 1.3.4 1.7 0 .2 0 .5-.2.7-.2.3-.4.5-.8.7a2 2 0 0 1-1 .3c-.4 0-.7-.1-.9-.3a.8.8 0 0 1-.3-.6l.1-.4.4-.1Z" mask="url(#b)"/>
  <path fill="#fff" fill-rule="evenodd" d="M0 43.3c0-.3.3-.6.6-.6h171.6a.6.6 0 0 1 0 1.2H.6a.6.6 0 0 1-.6-.6Z" clip-rule="evenodd"/>
  <path fill="#fff" fill-rule="evenodd" d="M171.6 43.1a3.2 3.2 0 1 1 6.4 0 3.2 3.2 0 0 1-6.4 0Zm3.2-2a2 2 0 1 0 0 4 2 2 0 0 0 0-4Z" clip-rule="evenodd"/>
  <path fill="#fff" d="M19.8 29c0-1.7-.2-3-.6-4.3a12.7 12.7 0 0 0-3.8-6l-3-2c-1-.4-1.9-1-2.7-1.4a12 12 0 0 1-2.2-1.5 5.2 5.2 0 0 1-2-4.2V7c.1-.8.4-1.4 1-1.9.5-.5 1.2-.7 2.1-.7h3.1c1 0 1.7.2 2.2.7.6.5.9 1.1.9 1.9h5c0-1-.2-1.9-.6-2.7-.5-1-1-1.7-1.7-2.3A8 8 0 0 0 14.9.5c-1-.3-2-.5-3.2-.5h-3a9 9 0 0 0-3.2.5A8 8 0 0 0 3 2c-.8.6-1.3 1.4-1.8 2.3A6 6 0 0 0 .6 7v2.7c0 2 .6 3.9 1.7 5.4a13 13 0 0 0 4.6 4l3.1 1.6c1 .6 1.8 1.2 2.5 2 .7.7 1.2 1.5 1.6 2.5.4 1 .7 2.3.7 3.7v3.8c0 .7-.3 1.4-.9 1.9-.5.4-1.3.7-2.2.7h-3c-1 0-1.7-.3-2.3-.7-.5-.5-.8-1.2-.8-2v-7.1h-5v7.2c0 1 .2 1.8.6 2.7a8.4 8.4 0 0 0 7.4 4.3h3.1a8.8 8.8 0 0 0 5.8-2.1 7 7 0 0 0 1.7-2.2c.4-.9.6-1.8.6-2.7v-3.8ZM42.2 4.6V.3h-16v38.9h16v-4.4h-11V19.9h9.5v-4.3h-9.5v-11h11ZM65.8 7c0-1-.2-1.9-.6-2.7-.4-1-1-1.7-1.7-2.3A8 8 0 0 0 60.9.5c-1-.3-2-.5-3.1-.5h-3.4a9 9 0 0 0-3 .5A8 8 0 0 0 48.7 2c-.8.6-1.3 1.4-1.8 2.3a6 6 0 0 0-.6 2.7v25.7a7 7 0 0 0 4.3 6.2c1 .4 1.9.6 2.9.7v6.9h5v-6.9c1 0 2-.3 2.8-.7a7 7 0 0 0 3.8-3.6c.4-.9.6-1.7.6-2.6V7Zm-5 25.7c0 .7-.3 1.4-.9 1.9-.5.4-1.2.7-2.1.7h-3.4c-.9 0-1.6-.3-2.1-.7-.6-.5-.9-1.2-.9-2V7c0-.8.3-1.4.9-1.9.5-.5 1.2-.7 2.1-.7h3.4c.9 0 1.6.2 2.1.7.6.5.9 1.1.9 1.9v25.7Z"/>
</svg>
