<svg xmlns="http://www.w3.org/2000/svg" fill="none" viewBox="0 0 448 142">
  <mask id="a" x="181.7" y="47" fill="#000" maskUnits="userSpaceOnUse">
    <path fill="#fff" d="M181.7 47h235v57h-235z"/>
    <path d="M337.4 63.6c0-1 .4-2 1-2.9.6-.8 1.6-1.6 2.9-2.5-.7-.9-1.3-1.7-1.6-2.4a5 5 0 0 1-.5-2.2c0-1.5.4-2.7 1.3-3.5.9-.9 2.1-1.3 3.7-1.3a5 5 0 0 1 3.5 1.3 4 4 0 0 1 1.3 3c0 .8-.2 1.6-.7 2.3-.4.6-1.2 1.3-2.1 2l-1.5 1 4.7 5.7a7.7 7.7 0 0 0 1.2-4.3h2.4a10 10 0 0 1-.6 3.3c-.3 1-.8 2-1.5 2.8l2.5 3v.1h-3.1l-1.2-1.4a8.4 8.4 0 0 1-5.2 1.7c-2 0-3.5-.5-4.7-1.6a5.2 5.2 0 0 1-1.8-4Zm6.5 3.6a6 6 0 0 0 3.8-1.3l-5-6-.5.4c-.8.7-1.4 1.2-1.7 1.8-.2.6-.4 1-.4 1.5 0 1 .4 2 1 2.6.7.6 1.6 1 2.8 1Zm-2-13.6c0 .5 0 1 .3 1.5l1.1 1.7 2-1.3c.5-.3.8-.7 1-1.1.2-.4.3-.9.3-1.4 0-.5-.2-1-.7-1.4-.4-.5-1-.7-1.7-.7a2 2 0 0 0-1.7.8 3 3 0 0 0-.6 1.9ZM189.5 97.3c-2 0-3.7-.7-5-2a7.8 7.8 0 0 1-1.8-5.4v-.6c0-2.1.7-3.9 1.9-5.3a5.8 5.8 0 0 1 4.5-2c2 0 3.5.5 4.5 1.7s1.5 2.8 1.5 4.9v1.6h-9.6v.1c0 1.4.4 2.6 1 3.5.8 1 1.7 1.4 3 1.4.9 0 1.7-.1 2.4-.4.7-.3 1.3-.6 1.8-1l1 1.7c-.5.5-1.2 1-2.1 1.3-.9.3-2 .5-3.1.5ZM189 84a3 3 0 0 0-2.3 1.1c-.7.8-1 1.7-1.2 2.9h6.8v-.3c0-1-.3-2-.8-2.7-.6-.7-1.4-1-2.5-1ZM197.4 95.3l2.2-.4V84.3l-2.2-.4v-1.7h4.6l.2 2.2c.5-.8 1.1-1.4 1.9-1.8a5 5 0 0 1 2.5-.7c1.6 0 2.8.5 3.7 1.4.9 1 1.3 2.4 1.3 4.4v7.2l2.2.4V97h-7.1v-1.7l2.2-.4v-7.2c0-1.3-.2-2.2-.8-2.8-.5-.5-1.2-.8-2.3-.8a3.8 3.8 0 0 0-3.5 2.1V95l2.2.4V97h-7.1v-1.7ZM220.5 78.6v3.6h2.8v2h-2.8v9c0 .7.1 1.2.4 1.4.3.3.7.5 1.2.5a6.5 6.5 0 0 0 1.5-.2l.4 1.8-1.1.4-1.5.2c-1.1 0-2-.3-2.6-1-.7-.7-1-1.7-1-3.1v-9h-2.3v-2h2.3v-3.6h2.7ZM226 84v-1.8h4.7l.3 2.2c.4-.8.9-1.4 1.5-1.8a3.6 3.6 0 0 1 2.8-.6h.5l-.4 2.6-1.5-.1a3 3 0 0 0-1.8.5c-.5.3-.9.8-1.1 1.4v8.5l2.2.4V97h-7.1v-1.7l2.2-.4V84.3L226 84ZM247.3 97a19 19 0 0 1-.3-2c-.5.6-1.2 1.2-2 1.6a5 5 0 0 1-2.4.7c-1.6 0-2.7-.4-3.5-1.1a4.2 4.2 0 0 1-1.2-3.2c0-1.4.5-2.5 1.7-3.3a8.3 8.3 0 0 1 4.6-1.1h2.8v-1.7c0-.9-.3-1.6-.8-2-.6-.6-1.3-.8-2.3-.8-.7 0-1.3 0-1.8.2s-1 .4-1.2.7l-.3 1.6h-2.1v-2.9c.7-.5 1.5-1 2.4-1.3 1-.3 2-.5 3.2-.5 1.6 0 3 .5 4 1.3 1 .9 1.6 2.1 1.6 3.7v8.2l1.1.2V97h-3.5Zm-4.3-2c.9 0 1.7-.2 2.4-.6a4 4 0 0 0 1.6-1.6v-2.4h-2.9c-1 0-2 .3-2.6.8-.6.5-1 1.1-1 1.8s.2 1.2.7 1.5c.4.4 1 .5 1.8.5ZM252.7 95.3l2.2-.4V84.3l-2.2-.4v-1.7h4.6l.2 2.2a5 5 0 0 1 4.4-2.5c1.6 0 2.8.5 3.7 1.4.9 1 1.3 2.4 1.3 4.4v7.2l2.2.4V97H262v-1.7l2.2-.4v-7.2c0-1.3-.2-2.2-.8-2.8-.5-.5-1.3-.8-2.3-.8a3.8 3.8 0 0 0-3.5 2.1V95l2.2.4V97h-7.1v-1.7ZM277.6 95.2c.9 0 1.7-.3 2.4-.8.6-.6 1-1.3 1-2h2.4c0 1.3-.5 2.4-1.7 3.4a6.2 6.2 0 0 1-4.1 1.5c-2.2 0-3.8-.7-5-2.1a8.2 8.2 0 0 1-1.6-5.3v-.6a8 8 0 0 1 1.7-5.2 6 6 0 0 1 4.9-2.2c1.2 0 2.2.2 3.2.6 1 .4 1.7 1 2.3 1.6l.2 3.3H281l-.6-2.3c-.3-.3-.7-.6-1.2-.8-.5-.2-1-.2-1.7-.2-1.4 0-2.4.5-3 1.5-.6 1-1 2.2-1 3.7v.6c0 1.5.4 2.8 1 3.8s1.6 1.5 3 1.5ZM292.8 97.3c-2 0-3.7-.7-5-2a7.8 7.8 0 0 1-1.7-5.4v-.6c0-2.1.6-3.9 1.8-5.3a5.8 5.8 0 0 1 4.5-2c2 0 3.5.5 4.5 1.7s1.5 2.8 1.5 4.9v1.6H289v.1c0 1.4.3 2.6 1 3.5.7 1 1.7 1.4 2.9 1.4 1 0 1.7-.1 2.4-.4.7-.3 1.3-.6 1.8-1l1 1.7c-.5.5-1.2 1-2 1.3-1 .3-2 .5-3.2.5Zm-.4-13.2a3 3 0 0 0-2.3 1.1c-.7.8-1 1.7-1.2 2.9h6.9v-.3c0-1-.3-2-.9-2.7-.6-.7-1.4-1-2.5-1ZM319.4 86.9h-2l-.5-1.8c-.3-.3-.7-.6-1.2-.8-.5-.2-1-.2-1.7-.2-1 0-1.6.2-2.1.6a2 2 0 0 0-.7 1.5c0 .6.2 1 .6 1.4.4.3 1.3.6 2.5.9 1.9.4 3.3 1 4.2 1.6.9.7 1.3 1.6 1.3 2.8 0 1.3-.5 2.4-1.6 3.2-1 .8-2.4 1.2-4.1 1.2a11 11 0 0 1-3-.4c-1-.3-1.7-.6-2.4-1.1v-3.4h2l.5 2c.3.3.7.5 1.2.6l1.7.2c1 0 1.7-.2 2.2-.6.6-.4.9-.9.9-1.5s-.3-1.1-.7-1.5c-.5-.4-1.3-.7-2.6-1-1.8-.4-3.1-1-4-1.6-1-.7-1.4-1.6-1.4-2.7 0-1.2.5-2.2 1.5-3 1-1 2.4-1.4 4-1.4 1.1 0 2.1.2 3 .5 1 .3 1.7.7 2.3 1.2l.1 3.3ZM336.4 84l-1.3.1-5.6 15.2c-.4 1-1 1.8-1.7 2.6-.7.7-1.6 1-2.8 1h-.8l-.8-.1.3-2.2h.5l.7.1c.6 0 1-.2 1.4-.7l1-1.8.6-1.5-5-12.5-1.3-.3v-1.7h6V84l-1.7.3 2.6 7.3.5 1.9 3.1-9.2-1.6-.3v-1.7h6V84ZM349.6 86.9h-2L347 85c-.3-.3-.7-.6-1.2-.8-.5-.2-1-.2-1.7-.2-1 0-1.7.2-2.2.6a2 2 0 0 0-.6 1.5c0 .6.2 1 .6 1.4.4.3 1.2.6 2.5.9 1.8.4 3.2 1 4.1 1.6 1 .7 1.4 1.6 1.4 2.8 0 1.3-.5 2.4-1.6 3.2-1 .8-2.4 1.2-4.1 1.2a11 11 0 0 1-3-.4c-1-.3-1.8-.6-2.5-1.1v-3.4h2l.6 2c.3.3.7.5 1.2.6l1.6.2c1 0 1.8-.2 2.3-.6.5-.4.8-.9.8-1.5s-.2-1.1-.7-1.5c-.4-.4-1.3-.7-2.5-1-1.8-.4-3.2-1-4-1.6-1-.7-1.5-1.6-1.5-2.7 0-1.2.6-2.2 1.6-3 1-1 2.3-1.4 4-1.4 1.1 0 2.1.2 3 .5.9.3 1.6.7 2.2 1.2l.2 3.3ZM357.2 78.6v3.6h2.8v2h-2.8v9c0 .7.2 1.2.4 1.4.3.3.7.5 1.2.5a6.5 6.5 0 0 0 1.5-.2l.4 1.8c-.2.2-.6.3-1.1.4l-1.5.2c-1 0-2-.3-2.6-1-.6-.7-1-1.7-1-3.1v-9h-2.3v-2h2.3v-3.6h2.7ZM369.5 97.3c-2 0-3.7-.7-4.9-2a7.8 7.8 0 0 1-1.8-5.4v-.6c0-2.1.6-3.9 1.9-5.3a5.8 5.8 0 0 1 4.4-2c2 0 3.5.5 4.5 1.7s1.6 2.8 1.6 4.9v1.6h-9.6v.1c0 1.4.3 2.6 1 3.5.7 1 1.7 1.4 3 1.4.8 0 1.6-.1 2.3-.4.7-.3 1.3-.6 1.8-1l1 1.7c-.5.5-1.2 1-2 1.3-1 .3-2 .5-3.2.5Zm-.4-13.2a3 3 0 0 0-2.3 1.1c-.6.8-1 1.7-1.2 2.9h6.9v-.3c0-1-.3-2-.9-2.7-.5-.7-1.4-1-2.5-1ZM377.3 95.3l2.2-.4V84.3l-2.2-.4v-1.7h4.7l.1 2c.5-.8 1.1-1.3 1.9-1.7.7-.4 1.6-.6 2.6-.6s1.8.3 2.5.7c.7.5 1.2 1.2 1.6 2 .5-.8 1-1.4 1.8-2 .8-.4 1.7-.7 2.7-.7 1.5 0 2.7.6 3.6 1.6.9 1 1.3 2.6 1.3 4.7v6.7l2.2.4V97h-7.1v-1.7l2.2-.4V88c0-1.4-.2-2.5-.7-3-.5-.7-1.3-1-2.3-1-1 0-1.7.4-2.2 1-.6.7-1 1.5-1 2.5V95l2.2.4V97h-7.1v-1.7l2.2-.4V88c0-1.4-.3-2.4-.8-3-.5-.7-1.3-1-2.2-1-.9 0-1.5.2-2 .5-.6.4-1 .8-1.3 1.4V95l2.3.4V97h-7.2v-1.7ZM415.6 86.9h-2l-.4-1.8-1.3-.8c-.5-.2-1-.2-1.7-.2-1 0-1.6.2-2 .6a2 2 0 0 0-.8 1.5c0 .6.2 1 .6 1.4.4.3 1.3.6 2.5.9 1.9.4 3.3 1 4.2 1.6 1 .7 1.4 1.6 1.4 2.8 0 1.3-.6 2.4-1.6 3.2-1 .8-2.5 1.2-4.2 1.2a11 11 0 0 1-3-.4c-.9-.3-1.7-.6-2.4-1.1v-3.4h2l.5 2c.3.3.7.5 1.3.6l1.6.2c1 0 1.7-.2 2.3-.6.5-.4.8-.9.8-1.5s-.3-1.1-.7-1.5c-.5-.4-1.3-.7-2.6-1-1.8-.4-3.1-1-4-1.6-1-.7-1.4-1.6-1.4-2.7 0-1.2.5-2.2 1.5-3 1-1 2.4-1.4 4-1.4 1.2 0 2.2.2 3 .5 1 .3 1.7.7 2.3 1.2l.1 3.3ZM190.2 69.6c-2 0-3.7-.7-4.9-2a7.8 7.8 0 0 1-1.8-5.4v-.6c0-2 .6-3.8 1.9-5.2a5.8 5.8 0 0 1 4.4-2.1c2 0 3.5.6 4.5 1.8 1 1.2 1.6 2.8 1.6 4.8v1.7h-9.6c0 1.5.3 2.6 1 3.5.7 1 1.7 1.4 3 1.4.9 0 1.6-.1 2.3-.4.7-.2 1.3-.6 1.8-1l1 1.7c-.5.5-1.2 1-2 1.3-.9.3-2 .5-3.2.5Zm-.4-13.2a3 3 0 0 0-2.3 1.1c-.6.8-1 1.7-1.2 2.9h6.9v-.3c0-1-.3-2-.9-2.7-.5-.7-1.4-1-2.5-1ZM198.2 49.7V48h5v19.2l2.1.4v1.7h-7.1v-1.7l2.2-.4v-17l-2.2-.5ZM214.1 69.6c-2 0-3.7-.7-4.9-2a7.8 7.8 0 0 1-1.8-5.4v-.6c0-2 .6-3.8 1.9-5.2a5.8 5.8 0 0 1 4.4-2.1c2 0 3.5.6 4.5 1.8 1 1.2 1.6 2.8 1.6 4.8v1.7h-9.6c0 1.5.3 2.6 1 3.5.7 1 1.7 1.4 3 1.4.9 0 1.6-.1 2.3-.4.7-.2 1.3-.6 1.8-1l1 1.7c-.5.5-1.2 1-2 1.3-.9.3-2 .5-3.2.5Zm-.4-13.2a3 3 0 0 0-2.3 1.1c-.6.8-1 1.7-1.2 2.9h6.9v-.3c0-1-.3-2-.9-2.7-.5-.7-1.4-1-2.5-1ZM229.1 67.5c.9 0 1.7-.3 2.3-.8.7-.6 1-1.2 1-2h2.5c0 1.3-.5 2.4-1.7 3.4a6.2 6.2 0 0 1-4.1 1.5c-2.2 0-3.8-.7-5-2a8.2 8.2 0 0 1-1.6-5.4v-.6a8 8 0 0 1 1.7-5.2 6 6 0 0 1 4.9-2.1c1.2 0 2.2.2 3.2.5 1 .4 1.7 1 2.3 1.7l.2 3.2h-2.2l-.6-2.3c-.3-.3-.7-.5-1.2-.7-.5-.2-1-.3-1.7-.3-1.4 0-2.4.5-3 1.5-.6 1-1 2.3-1 3.7v.6c0 1.5.4 2.8 1 3.8s1.6 1.5 3 1.5ZM242.5 51v3.5h2.8v2h-2.8v9c0 .7.1 1.2.4 1.5.3.3.7.4 1.2.4a6.4 6.4 0 0 0 1.5-.2l.4 1.9-1.2.4-1.4.1c-1.1 0-2-.3-2.6-1-.7-.6-1-1.7-1-3v-9h-2.4v-2h2.4V51h2.7ZM248.8 56v-1.7h4.6l.3 2.1c.4-.7 1-1.3 1.5-1.7a3.6 3.6 0 0 1 2.8-.6h.5l-.4 2.6-1.5-.1a3 3 0 0 0-1.8.5c-.5.3-.8.8-1.1 1.4V67l2.2.4V69h-7.1v-1.7l2.2-.4V56.4l-2.2-.4ZM259.4 61.8c0-2.2.6-4 1.7-5.4a6 6 0 0 1 4.9-2.1c2 0 3.6.7 4.8 2a8.1 8.1 0 0 1 1.8 5.5v.3c0 2.2-.6 4-1.8 5.4a6 6 0 0 1-4.8 2.1 6 6 0 0 1-4.9-2 8.1 8.1 0 0 1-1.7-5.5v-.3Zm2.7.3a7 7 0 0 0 1 3.9c.6 1 1.6 1.5 2.9 1.5 1.3 0 2.2-.5 3-1.5a7 7 0 0 0 .9-3.9v-.3a7 7 0 0 0-1-3.9c-.7-1-1.6-1.5-3-1.5-1.2 0-2.2.5-2.9 1.5a7 7 0 0 0-1 3.9v.3ZM274.7 67.6l2.2-.4V56.7l-2.2-.4v-1.8h4.6l.2 2.2c.5-.7 1.1-1.4 1.8-1.8a5 5 0 0 1 2.6-.6c1.6 0 2.8.4 3.7 1.4.9.9 1.3 2.3 1.3 4.3v7.2l2.2.4v1.7H284v-1.7l2.2-.4V60c0-1.3-.2-2.2-.8-2.7-.5-.6-1.3-.9-2.3-.9a3.8 3.8 0 0 0-3.5 2.1v8.7l2.2.4v1.7h-7.1v-1.7ZM293 67.6l2.3-.4V56.7l-2.2-.4v-1.8h5v12.7l2.1.4v1.7h-7.1v-1.7Zm5-16.9h-2.7V48h2.7v2.7ZM309 67.5c.8 0 1.6-.3 2.3-.8.7-.6 1-1.2 1-2h2.4c.1 1.3-.4 2.4-1.6 3.4a6.2 6.2 0 0 1-4.1 1.5c-2.2 0-3.8-.7-5-2a8.2 8.2 0 0 1-1.7-5.4v-.6a8 8 0 0 1 1.7-5.2 6 6 0 0 1 5-2.1c1.1 0 2.2.2 3.1.5 1 .4 1.8 1 2.4 1.7l.1 3.2h-2.1l-.6-2.3c-.3-.3-.8-.5-1.3-.7-.5-.2-1-.3-1.6-.3-1.5 0-2.5.5-3 1.5-.7 1-1 2.3-1 3.7v.6c0 1.5.3 2.8 1 3.8.5 1 1.5 1.5 3 1.5ZM328 59.2h-2.1l-.4-1.8-1.3-.7c-.5-.2-1-.3-1.7-.3-1 0-1.6.2-2.1.7a2 2 0 0 0-.7 1.5c0 .6.2 1 .6 1.3.4.4 1.3.7 2.5 1 1.9.4 3.3.9 4.2 1.6 1 .7 1.4 1.6 1.4 2.8 0 1.3-.6 2.3-1.6 3.1-1.1.9-2.5 1.3-4.2 1.3a11 11 0 0 1-3-.4c-1-.3-1.7-.7-2.4-1.2v-3.3h2l.5 2 1.3.6 1.6.2c1 0 1.7-.2 2.2-.6.6-.4.9-1 .9-1.6 0-.5-.3-1-.7-1.4-.5-.4-1.3-.7-2.6-1-1.8-.4-3.1-1-4-1.6-1-.7-1.4-1.6-1.4-2.7 0-1.3.5-2.3 1.5-3.1 1-.9 2.4-1.3 4-1.3 1.2 0 2.2.1 3 .4 1 .3 1.7.7 2.3 1.3l.1 3.2Z"/>
  </mask>
  <path fill="#005C89" d="M337.4 63.6c0-1 .4-2 1-2.9.6-.8 1.6-1.6 2.9-2.5-.7-.9-1.3-1.7-1.6-2.4a5 5 0 0 1-.5-2.2c0-1.5.4-2.7 1.3-3.5.9-.9 2.1-1.3 3.7-1.3a5 5 0 0 1 3.5 1.3 4 4 0 0 1 1.3 3c0 .8-.2 1.6-.7 2.3-.4.6-1.2 1.3-2.1 2l-1.5 1 4.7 5.7a7.7 7.7 0 0 0 1.2-4.3h2.4a10 10 0 0 1-.6 3.3c-.3 1-.8 2-1.5 2.8l2.5 3v.1h-3.1l-1.2-1.4a8.4 8.4 0 0 1-5.2 1.7c-2 0-3.5-.5-4.7-1.6a5.2 5.2 0 0 1-1.8-4Zm6.5 3.6a6 6 0 0 0 3.8-1.3l-5-6-.5.4c-.8.7-1.4 1.2-1.7 1.8-.2.6-.4 1-.4 1.5 0 1 .4 2 1 2.6.7.6 1.6 1 2.8 1Zm-2-13.6c0 .5 0 1 .3 1.5l1.1 1.7 2-1.3c.5-.3.8-.7 1-1.1.2-.4.3-.9.3-1.4 0-.5-.2-1-.7-1.4-.4-.5-1-.7-1.7-.7a2 2 0 0 0-1.7.8 3 3 0 0 0-.6 1.9ZM189.5 97.3c-2 0-3.7-.7-5-2a7.8 7.8 0 0 1-1.8-5.4v-.6c0-2.1.7-3.9 1.9-5.3a5.8 5.8 0 0 1 4.5-2c2 0 3.5.5 4.5 1.7s1.5 2.8 1.5 4.9v1.6h-9.6v.1c0 1.4.4 2.6 1 3.5.8 1 1.7 1.4 3 1.4.9 0 1.7-.1 2.4-.4.7-.3 1.3-.6 1.8-1l1 1.7c-.5.5-1.2 1-2.1 1.3-.9.3-2 .5-3.1.5ZM189 84a3 3 0 0 0-2.3 1.1c-.7.8-1 1.7-1.2 2.9h6.8v-.3c0-1-.3-2-.8-2.7-.6-.7-1.4-1-2.5-1ZM197.4 95.3l2.2-.4V84.3l-2.2-.4v-1.7h4.6l.2 2.2c.5-.8 1.1-1.4 1.9-1.8a5 5 0 0 1 2.5-.7c1.6 0 2.8.5 3.7 1.4.9 1 1.3 2.4 1.3 4.4v7.2l2.2.4V97h-7.1v-1.7l2.2-.4v-7.2c0-1.3-.2-2.2-.8-2.8-.5-.5-1.2-.8-2.3-.8a3.8 3.8 0 0 0-3.5 2.1V95l2.2.4V97h-7.1v-1.7ZM220.5 78.6v3.6h2.8v2h-2.8v9c0 .7.1 1.2.4 1.4.3.3.7.5 1.2.5a6.5 6.5 0 0 0 1.5-.2l.4 1.8-1.1.4-1.5.2c-1.1 0-2-.3-2.6-1-.7-.7-1-1.7-1-3.1v-9h-2.3v-2h2.3v-3.6h2.7ZM226 84v-1.8h4.7l.3 2.2c.4-.8.9-1.4 1.5-1.8a3.6 3.6 0 0 1 2.8-.6h.5l-.4 2.6-1.5-.1a3 3 0 0 0-1.8.5c-.5.3-.9.8-1.1 1.4v8.5l2.2.4V97h-7.1v-1.7l2.2-.4V84.3L226 84ZM247.3 97a19 19 0 0 1-.3-2c-.5.6-1.2 1.2-2 1.6a5 5 0 0 1-2.4.7c-1.6 0-2.7-.4-3.5-1.1a4.2 4.2 0 0 1-1.2-3.2c0-1.4.5-2.5 1.7-3.3a8.3 8.3 0 0 1 4.6-1.1h2.8v-1.7c0-.9-.3-1.6-.8-2-.6-.6-1.3-.8-2.3-.8-.7 0-1.3 0-1.8.2s-1 .4-1.2.7l-.3 1.6h-2.1v-2.9c.7-.5 1.5-1 2.4-1.3 1-.3 2-.5 3.2-.5 1.6 0 3 .5 4 1.3 1 .9 1.6 2.1 1.6 3.7v8.2l1.1.2V97h-3.5Zm-4.3-2c.9 0 1.7-.2 2.4-.6a4 4 0 0 0 1.6-1.6v-2.4h-2.9c-1 0-2 .3-2.6.8-.6.5-1 1.1-1 1.8s.2 1.2.7 1.5c.4.4 1 .5 1.8.5ZM252.7 95.3l2.2-.4V84.3l-2.2-.4v-1.7h4.6l.2 2.2a5 5 0 0 1 4.4-2.5c1.6 0 2.8.5 3.7 1.4.9 1 1.3 2.4 1.3 4.4v7.2l2.2.4V97H262v-1.7l2.2-.4v-7.2c0-1.3-.2-2.2-.8-2.8-.5-.5-1.3-.8-2.3-.8a3.8 3.8 0 0 0-3.5 2.1V95l2.2.4V97h-7.1v-1.7ZM277.6 95.2c.9 0 1.7-.3 2.4-.8.6-.6 1-1.3 1-2h2.4c0 1.3-.5 2.4-1.7 3.4a6.2 6.2 0 0 1-4.1 1.5c-2.2 0-3.8-.7-5-2.1a8.2 8.2 0 0 1-1.6-5.3v-.6a8 8 0 0 1 1.7-5.2 6 6 0 0 1 4.9-2.2c1.2 0 2.2.2 3.2.6 1 .4 1.7 1 2.3 1.6l.2 3.3H281l-.6-2.3c-.3-.3-.7-.6-1.2-.8-.5-.2-1-.2-1.7-.2-1.4 0-2.4.5-3 1.5-.6 1-1 2.2-1 3.7v.6c0 1.5.4 2.8 1 3.8s1.6 1.5 3 1.5ZM292.8 97.3c-2 0-3.7-.7-5-2a7.8 7.8 0 0 1-1.7-5.4v-.6c0-2.1.6-3.9 1.8-5.3a5.8 5.8 0 0 1 4.5-2c2 0 3.5.5 4.5 1.7s1.5 2.8 1.5 4.9v1.6H289v.1c0 1.4.3 2.6 1 3.5.7 1 1.7 1.4 2.9 1.4 1 0 1.7-.1 2.4-.4.7-.3 1.3-.6 1.8-1l1 1.7c-.5.5-1.2 1-2 1.3-1 .3-2 .5-3.2.5Zm-.4-13.2a3 3 0 0 0-2.3 1.1c-.7.8-1 1.7-1.2 2.9h6.9v-.3c0-1-.3-2-.9-2.7-.6-.7-1.4-1-2.5-1ZM319.4 86.9h-2l-.5-1.8c-.3-.3-.7-.6-1.2-.8-.5-.2-1-.2-1.7-.2-1 0-1.6.2-2.1.6a2 2 0 0 0-.7 1.5c0 .6.2 1 .6 1.4.4.3 1.3.6 2.5.9 1.9.4 3.3 1 4.2 1.6.9.7 1.3 1.6 1.3 2.8 0 1.3-.5 2.4-1.6 3.2-1 .8-2.4 1.2-4.1 1.2a11 11 0 0 1-3-.4c-1-.3-1.7-.6-2.4-1.1v-3.4h2l.5 2c.3.3.7.5 1.2.6l1.7.2c1 0 1.7-.2 2.2-.6.6-.4.9-.9.9-1.5s-.3-1.1-.7-1.5c-.5-.4-1.3-.7-2.6-1-1.8-.4-3.1-1-4-1.6-1-.7-1.4-1.6-1.4-2.7 0-1.2.5-2.2 1.5-3 1-1 2.4-1.4 4-1.4 1.1 0 2.1.2 3 .5 1 .3 1.7.7 2.3 1.2l.1 3.3ZM336.4 84l-1.3.1-5.6 15.2c-.4 1-1 1.8-1.7 2.6-.7.7-1.6 1-2.8 1h-.8l-.8-.1.3-2.2h.5l.7.1c.6 0 1-.2 1.4-.7l1-1.8.6-1.5-5-12.5-1.3-.3v-1.7h6V84l-1.7.3 2.6 7.3.5 1.9 3.1-9.2-1.6-.3v-1.7h6V84ZM349.6 86.9h-2L347 85c-.3-.3-.7-.6-1.2-.8-.5-.2-1-.2-1.7-.2-1 0-1.7.2-2.2.6a2 2 0 0 0-.6 1.5c0 .6.2 1 .6 1.4.4.3 1.2.6 2.5.9 1.8.4 3.2 1 4.1 1.6 1 .7 1.4 1.6 1.4 2.8 0 1.3-.5 2.4-1.6 3.2-1 .8-2.4 1.2-4.1 1.2a11 11 0 0 1-3-.4c-1-.3-1.8-.6-2.5-1.1v-3.4h2l.6 2c.3.3.7.5 1.2.6l1.6.2c1 0 1.8-.2 2.3-.6.5-.4.8-.9.8-1.5s-.2-1.1-.7-1.5c-.4-.4-1.3-.7-2.5-1-1.8-.4-3.2-1-4-1.6-1-.7-1.5-1.6-1.5-2.7 0-1.2.6-2.2 1.6-3 1-1 2.3-1.4 4-1.4 1.1 0 2.1.2 3 .5.9.3 1.6.7 2.2 1.2l.2 3.3ZM357.2 78.6v3.6h2.8v2h-2.8v9c0 .7.2 1.2.4 1.4.3.3.7.5 1.2.5a6.5 6.5 0 0 0 1.5-.2l.4 1.8c-.2.2-.6.3-1.1.4l-1.5.2c-1 0-2-.3-2.6-1-.6-.7-1-1.7-1-3.1v-9h-2.3v-2h2.3v-3.6h2.7ZM369.5 97.3c-2 0-3.7-.7-4.9-2a7.8 7.8 0 0 1-1.8-5.4v-.6c0-2.1.6-3.9 1.9-5.3a5.8 5.8 0 0 1 4.4-2c2 0 3.5.5 4.5 1.7s1.6 2.8 1.6 4.9v1.6h-9.6v.1c0 1.4.3 2.6 1 3.5.7 1 1.7 1.4 3 1.4.8 0 1.6-.1 2.3-.4.7-.3 1.3-.6 1.8-1l1 1.7c-.5.5-1.2 1-2 1.3-1 .3-2 .5-3.2.5Zm-.4-13.2a3 3 0 0 0-2.3 1.1c-.6.8-1 1.7-1.2 2.9h6.9v-.3c0-1-.3-2-.9-2.7-.5-.7-1.4-1-2.5-1ZM377.3 95.3l2.2-.4V84.3l-2.2-.4v-1.7h4.7l.1 2c.5-.8 1.1-1.3 1.9-1.7.7-.4 1.6-.6 2.6-.6s1.8.3 2.5.7c.7.5 1.2 1.2 1.6 2 .5-.8 1-1.4 1.8-2 .8-.4 1.7-.7 2.7-.7 1.5 0 2.7.6 3.6 1.6.9 1 1.3 2.6 1.3 4.7v6.7l2.2.4V97h-7.1v-1.7l2.2-.4V88c0-1.4-.2-2.5-.7-3-.5-.7-1.3-1-2.3-1-1 0-1.7.4-2.2 1-.6.7-1 1.5-1 2.5V95l2.2.4V97h-7.1v-1.7l2.2-.4V88c0-1.4-.3-2.4-.8-3-.5-.7-1.3-1-2.2-1-.9 0-1.5.2-2 .5-.6.4-1 .8-1.3 1.4V95l2.3.4V97h-7.2v-1.7ZM415.6 86.9h-2l-.4-1.8-1.3-.8c-.5-.2-1-.2-1.7-.2-1 0-1.6.2-2 .6a2 2 0 0 0-.8 1.5c0 .6.2 1 .6 1.4.4.3 1.3.6 2.5.9 1.9.4 3.3 1 4.2 1.6 1 .7 1.4 1.6 1.4 2.8 0 1.3-.6 2.4-1.6 3.2-1 .8-2.5 1.2-4.2 1.2a11 11 0 0 1-3-.4c-.9-.3-1.7-.6-2.4-1.1v-3.4h2l.5 2c.3.3.7.5 1.3.6l1.6.2c1 0 1.7-.2 2.3-.6.5-.4.8-.9.8-1.5s-.3-1.1-.7-1.5c-.5-.4-1.3-.7-2.6-1-1.8-.4-3.1-1-4-1.6-1-.7-1.4-1.6-1.4-2.7 0-1.2.5-2.2 1.5-3 1-1 2.4-1.4 4-1.4 1.2 0 2.2.2 3 .5 1 .3 1.7.7 2.3 1.2l.1 3.3ZM190.2 69.6c-2 0-3.7-.7-4.9-2a7.8 7.8 0 0 1-1.8-5.4v-.6c0-2 .6-3.8 1.9-5.2a5.8 5.8 0 0 1 4.4-2.1c2 0 3.5.6 4.5 1.8 1 1.2 1.6 2.8 1.6 4.8v1.7h-9.6c0 1.5.3 2.6 1 3.5.7 1 1.7 1.4 3 1.4.9 0 1.6-.1 2.3-.4.7-.2 1.3-.6 1.8-1l1 1.7c-.5.5-1.2 1-2 1.3-.9.3-2 .5-3.2.5Zm-.4-13.2a3 3 0 0 0-2.3 1.1c-.6.8-1 1.7-1.2 2.9h6.9v-.3c0-1-.3-2-.9-2.7-.5-.7-1.4-1-2.5-1ZM198.2 49.7V48h5v19.2l2.1.4v1.7h-7.1v-1.7l2.2-.4v-17l-2.2-.5ZM214.1 69.6c-2 0-3.7-.7-4.9-2a7.8 7.8 0 0 1-1.8-5.4v-.6c0-2 .6-3.8 1.9-5.2a5.8 5.8 0 0 1 4.4-2.1c2 0 3.5.6 4.5 1.8 1 1.2 1.6 2.8 1.6 4.8v1.7h-9.6c0 1.5.3 2.6 1 3.5.7 1 1.7 1.4 3 1.4.9 0 1.6-.1 2.3-.4.7-.2 1.3-.6 1.8-1l1 1.7c-.5.5-1.2 1-2 1.3-.9.3-2 .5-3.2.5Zm-.4-13.2a3 3 0 0 0-2.3 1.1c-.6.8-1 1.7-1.2 2.9h6.9v-.3c0-1-.3-2-.9-2.7-.5-.7-1.4-1-2.5-1ZM229.1 67.5c.9 0 1.7-.3 2.3-.8.7-.6 1-1.2 1-2h2.5c0 1.3-.5 2.4-1.7 3.4a6.2 6.2 0 0 1-4.1 1.5c-2.2 0-3.8-.7-5-2a8.2 8.2 0 0 1-1.6-5.4v-.6a8 8 0 0 1 1.7-5.2 6 6 0 0 1 4.9-2.1c1.2 0 2.2.2 3.2.5 1 .4 1.7 1 2.3 1.7l.2 3.2h-2.2l-.6-2.3c-.3-.3-.7-.5-1.2-.7-.5-.2-1-.3-1.7-.3-1.4 0-2.4.5-3 1.5-.6 1-1 2.3-1 3.7v.6c0 1.5.4 2.8 1 3.8s1.6 1.5 3 1.5ZM242.5 51v3.5h2.8v2h-2.8v9c0 .7.1 1.2.4 1.5.3.3.7.4 1.2.4a6.4 6.4 0 0 0 1.5-.2l.4 1.9-1.2.4-1.4.1c-1.1 0-2-.3-2.6-1-.7-.6-1-1.7-1-3v-9h-2.4v-2h2.4V51h2.7ZM248.8 56v-1.7h4.6l.3 2.1c.4-.7 1-1.3 1.5-1.7a3.6 3.6 0 0 1 2.8-.6h.5l-.4 2.6-1.5-.1a3 3 0 0 0-1.8.5c-.5.3-.8.8-1.1 1.4V67l2.2.4V69h-7.1v-1.7l2.2-.4V56.4l-2.2-.4ZM259.4 61.8c0-2.2.6-4 1.7-5.4a6 6 0 0 1 4.9-2.1c2 0 3.6.7 4.8 2a8.1 8.1 0 0 1 1.8 5.5v.3c0 2.2-.6 4-1.8 5.4a6 6 0 0 1-4.8 2.1 6 6 0 0 1-4.9-2 8.1 8.1 0 0 1-1.7-5.5v-.3Zm2.7.3a7 7 0 0 0 1 3.9c.6 1 1.6 1.5 2.9 1.5 1.3 0 2.2-.5 3-1.5a7 7 0 0 0 .9-3.9v-.3a7 7 0 0 0-1-3.9c-.7-1-1.6-1.5-3-1.5-1.2 0-2.2.5-2.9 1.5a7 7 0 0 0-1 3.9v.3ZM274.7 67.6l2.2-.4V56.7l-2.2-.4v-1.8h4.6l.2 2.2c.5-.7 1.1-1.4 1.8-1.8a5 5 0 0 1 2.6-.6c1.6 0 2.8.4 3.7 1.4.9.9 1.3 2.3 1.3 4.3v7.2l2.2.4v1.7H284v-1.7l2.2-.4V60c0-1.3-.2-2.2-.8-2.7-.5-.6-1.3-.9-2.3-.9a3.8 3.8 0 0 0-3.5 2.1v8.7l2.2.4v1.7h-7.1v-1.7ZM293 67.6l2.3-.4V56.7l-2.2-.4v-1.8h5v12.7l2.1.4v1.7h-7.1v-1.7Zm5-16.9h-2.7V48h2.7v2.7ZM309 67.5c.8 0 1.6-.3 2.3-.8.7-.6 1-1.2 1-2h2.4c.1 1.3-.4 2.4-1.6 3.4a6.2 6.2 0 0 1-4.1 1.5c-2.2 0-3.8-.7-5-2a8.2 8.2 0 0 1-1.7-5.4v-.6a8 8 0 0 1 1.7-5.2 6 6 0 0 1 5-2.1c1.1 0 2.2.2 3.1.5 1 .4 1.8 1 2.4 1.7l.1 3.2h-2.1l-.6-2.3c-.3-.3-.8-.5-1.3-.7-.5-.2-1-.3-1.6-.3-1.5 0-2.5.5-3 1.5-.7 1-1 2.3-1 3.7v.6c0 1.5.3 2.8 1 3.8.5 1 1.5 1.5 3 1.5ZM328 59.2h-2.1l-.4-1.8-1.3-.7c-.5-.2-1-.3-1.7-.3-1 0-1.6.2-2.1.7a2 2 0 0 0-.7 1.5c0 .6.2 1 .6 1.3.4.4 1.3.7 2.5 1 1.9.4 3.3.9 4.2 1.6 1 .7 1.4 1.6 1.4 2.8 0 1.3-.6 2.3-1.6 3.1-1.1.9-2.5 1.3-4.2 1.3a11 11 0 0 1-3-.4c-1-.3-1.7-.7-2.4-1.2v-3.3h2l.5 2 1.3.6 1.6.2c1 0 1.7-.2 2.2-.6.6-.4.9-1 .9-1.6 0-.5-.3-1-.7-1.4-.5-.4-1.3-.7-2.6-1-1.8-.4-3.1-1-4-1.6-1-.7-1.4-1.6-1.4-2.7 0-1.3.5-2.3 1.5-3.1 1-.9 2.4-1.3 4-1.3 1.2 0 2.2.1 3 .4 1 .3 1.7.7 2.3 1.3l.1 3.2Z"/>
  <path stroke="#005C89" d="M337.4 63.6c0-1 .4-2 1-2.9.6-.8 1.6-1.6 2.9-2.5-.7-.9-1.3-1.7-1.6-2.4a5 5 0 0 1-.5-2.2c0-1.5.4-2.7 1.3-3.5.9-.9 2.1-1.3 3.7-1.3a5 5 0 0 1 3.5 1.3 4 4 0 0 1 1.3 3c0 .8-.2 1.6-.7 2.3-.4.6-1.2 1.3-2.1 2l-1.5 1 4.7 5.7a7.7 7.7 0 0 0 1.2-4.3h2.4a10 10 0 0 1-.6 3.3c-.3 1-.8 2-1.5 2.8l2.5 3v.1h-3.1l-1.2-1.4a8.4 8.4 0 0 1-5.2 1.7c-2 0-3.5-.5-4.7-1.6a5.2 5.2 0 0 1-1.8-4Zm6.5 3.6a6 6 0 0 0 3.8-1.3l-5-6-.5.4c-.8.7-1.4 1.2-1.7 1.8-.2.6-.4 1-.4 1.5 0 1 .4 2 1 2.6.7.6 1.6 1 2.8 1Zm-2-13.6c0 .5 0 1 .3 1.5l1.1 1.7 2-1.3c.5-.3.8-.7 1-1.1.2-.4.3-.9.3-1.4 0-.5-.2-1-.7-1.4-.4-.5-1-.7-1.7-.7a2 2 0 0 0-1.7.8 3 3 0 0 0-.6 1.9ZM189.5 97.3c-2 0-3.7-.7-5-2a7.8 7.8 0 0 1-1.8-5.4v-.6c0-2.1.7-3.9 1.9-5.3a5.8 5.8 0 0 1 4.5-2c2 0 3.5.5 4.5 1.7s1.5 2.8 1.5 4.9v1.6h-9.6v.1c0 1.4.4 2.6 1 3.5.8 1 1.7 1.4 3 1.4.9 0 1.7-.1 2.4-.4.7-.3 1.3-.6 1.8-1l1 1.7c-.5.5-1.2 1-2.1 1.3-.9.3-2 .5-3.1.5ZM189 84a3 3 0 0 0-2.3 1.1c-.7.8-1 1.7-1.2 2.9h6.8v-.3c0-1-.3-2-.8-2.7-.6-.7-1.4-1-2.5-1ZM197.4 95.3l2.2-.4V84.3l-2.2-.4v-1.7h4.6l.2 2.2c.5-.8 1.1-1.4 1.9-1.8a5 5 0 0 1 2.5-.7c1.6 0 2.8.5 3.7 1.4.9 1 1.3 2.4 1.3 4.4v7.2l2.2.4V97h-7.1v-1.7l2.2-.4v-7.2c0-1.3-.2-2.2-.8-2.8-.5-.5-1.2-.8-2.3-.8a3.8 3.8 0 0 0-3.5 2.1V95l2.2.4V97h-7.1v-1.7ZM220.5 78.6v3.6h2.8v2h-2.8v9c0 .7.1 1.2.4 1.4.3.3.7.5 1.2.5a6.5 6.5 0 0 0 1.5-.2l.4 1.8-1.1.4-1.5.2c-1.1 0-2-.3-2.6-1-.7-.7-1-1.7-1-3.1v-9h-2.3v-2h2.3v-3.6h2.7ZM226 84v-1.8h4.7l.3 2.2c.4-.8.9-1.4 1.5-1.8a3.6 3.6 0 0 1 2.8-.6h.5l-.4 2.6-1.5-.1a3 3 0 0 0-1.8.5c-.5.3-.9.8-1.1 1.4v8.5l2.2.4V97h-7.1v-1.7l2.2-.4V84.3L226 84ZM247.3 97a19 19 0 0 1-.3-2c-.5.6-1.2 1.2-2 1.6a5 5 0 0 1-2.4.7c-1.6 0-2.7-.4-3.5-1.1a4.2 4.2 0 0 1-1.2-3.2c0-1.4.5-2.5 1.7-3.3a8.3 8.3 0 0 1 4.6-1.1h2.8v-1.7c0-.9-.3-1.6-.8-2-.6-.6-1.3-.8-2.3-.8-.7 0-1.3 0-1.8.2s-1 .4-1.2.7l-.3 1.6h-2.1v-2.9c.7-.5 1.5-1 2.4-1.3 1-.3 2-.5 3.2-.5 1.6 0 3 .5 4 1.3 1 .9 1.6 2.1 1.6 3.7v8.2l1.1.2V97h-3.5Zm-4.3-2c.9 0 1.7-.2 2.4-.6a4 4 0 0 0 1.6-1.6v-2.4h-2.9c-1 0-2 .3-2.6.8-.6.5-1 1.1-1 1.8s.2 1.2.7 1.5c.4.4 1 .5 1.8.5ZM252.7 95.3l2.2-.4V84.3l-2.2-.4v-1.7h4.6l.2 2.2a5 5 0 0 1 4.4-2.5c1.6 0 2.8.5 3.7 1.4.9 1 1.3 2.4 1.3 4.4v7.2l2.2.4V97H262v-1.7l2.2-.4v-7.2c0-1.3-.2-2.2-.8-2.8-.5-.5-1.3-.8-2.3-.8a3.8 3.8 0 0 0-3.5 2.1V95l2.2.4V97h-7.1v-1.7ZM277.6 95.2c.9 0 1.7-.3 2.4-.8.6-.6 1-1.3 1-2h2.4c0 1.3-.5 2.4-1.7 3.4a6.2 6.2 0 0 1-4.1 1.5c-2.2 0-3.8-.7-5-2.1a8.2 8.2 0 0 1-1.6-5.3v-.6a8 8 0 0 1 1.7-5.2 6 6 0 0 1 4.9-2.2c1.2 0 2.2.2 3.2.6 1 .4 1.7 1 2.3 1.6l.2 3.3H281l-.6-2.3c-.3-.3-.7-.6-1.2-.8-.5-.2-1-.2-1.7-.2-1.4 0-2.4.5-3 1.5-.6 1-1 2.2-1 3.7v.6c0 1.5.4 2.8 1 3.8s1.6 1.5 3 1.5ZM292.8 97.3c-2 0-3.7-.7-5-2a7.8 7.8 0 0 1-1.7-5.4v-.6c0-2.1.6-3.9 1.8-5.3a5.8 5.8 0 0 1 4.5-2c2 0 3.5.5 4.5 1.7s1.5 2.8 1.5 4.9v1.6H289v.1c0 1.4.3 2.6 1 3.5.7 1 1.7 1.4 2.9 1.4 1 0 1.7-.1 2.4-.4.7-.3 1.3-.6 1.8-1l1 1.7c-.5.5-1.2 1-2 1.3-1 .3-2 .5-3.2.5Zm-.4-13.2a3 3 0 0 0-2.3 1.1c-.7.8-1 1.7-1.2 2.9h6.9v-.3c0-1-.3-2-.9-2.7-.6-.7-1.4-1-2.5-1ZM319.4 86.9h-2l-.5-1.8c-.3-.3-.7-.6-1.2-.8-.5-.2-1-.2-1.7-.2-1 0-1.6.2-2.1.6a2 2 0 0 0-.7 1.5c0 .6.2 1 .6 1.4.4.3 1.3.6 2.5.9 1.9.4 3.3 1 4.2 1.6.9.7 1.3 1.6 1.3 2.8 0 1.3-.5 2.4-1.6 3.2-1 .8-2.4 1.2-4.1 1.2a11 11 0 0 1-3-.4c-1-.3-1.7-.6-2.4-1.1v-3.4h2l.5 2c.3.3.7.5 1.2.6l1.7.2c1 0 1.7-.2 2.2-.6.6-.4.9-.9.9-1.5s-.3-1.1-.7-1.5c-.5-.4-1.3-.7-2.6-1-1.8-.4-3.1-1-4-1.6-1-.7-1.4-1.6-1.4-2.7 0-1.2.5-2.2 1.5-3 1-1 2.4-1.4 4-1.4 1.1 0 2.1.2 3 .5 1 .3 1.7.7 2.3 1.2l.1 3.3ZM336.4 84l-1.3.1-5.6 15.2c-.4 1-1 1.8-1.7 2.6-.7.7-1.6 1-2.8 1h-.8l-.8-.1.3-2.2h.5l.7.1c.6 0 1-.2 1.4-.7l1-1.8.6-1.5-5-12.5-1.3-.3v-1.7h6V84l-1.7.3 2.6 7.3.5 1.9 3.1-9.2-1.6-.3v-1.7h6V84ZM349.6 86.9h-2L347 85c-.3-.3-.7-.6-1.2-.8-.5-.2-1-.2-1.7-.2-1 0-1.7.2-2.2.6a2 2 0 0 0-.6 1.5c0 .6.2 1 .6 1.4.4.3 1.2.6 2.5.9 1.8.4 3.2 1 4.1 1.6 1 .7 1.4 1.6 1.4 2.8 0 1.3-.5 2.4-1.6 3.2-1 .8-2.4 1.2-4.1 1.2a11 11 0 0 1-3-.4c-1-.3-1.8-.6-2.5-1.1v-3.4h2l.6 2c.3.3.7.5 1.2.6l1.6.2c1 0 1.8-.2 2.3-.6.5-.4.8-.9.8-1.5s-.2-1.1-.7-1.5c-.4-.4-1.3-.7-2.5-1-1.8-.4-3.2-1-4-1.6-1-.7-1.5-1.6-1.5-2.7 0-1.2.6-2.2 1.6-3 1-1 2.3-1.4 4-1.4 1.1 0 2.1.2 3 .5.9.3 1.6.7 2.2 1.2l.2 3.3ZM357.2 78.6v3.6h2.8v2h-2.8v9c0 .7.2 1.2.4 1.4.3.3.7.5 1.2.5a6.5 6.5 0 0 0 1.5-.2l.4 1.8c-.2.2-.6.3-1.1.4l-1.5.2c-1 0-2-.3-2.6-1-.6-.7-1-1.7-1-3.1v-9h-2.3v-2h2.3v-3.6h2.7ZM369.5 97.3c-2 0-3.7-.7-4.9-2a7.8 7.8 0 0 1-1.8-5.4v-.6c0-2.1.6-3.9 1.9-5.3a5.8 5.8 0 0 1 4.4-2c2 0 3.5.5 4.5 1.7s1.6 2.8 1.6 4.9v1.6h-9.6v.1c0 1.4.3 2.6 1 3.5.7 1 1.7 1.4 3 1.4.8 0 1.6-.1 2.3-.4.7-.3 1.3-.6 1.8-1l1 1.7c-.5.5-1.2 1-2 1.3-1 .3-2 .5-3.2.5Zm-.4-13.2a3 3 0 0 0-2.3 1.1c-.6.8-1 1.7-1.2 2.9h6.9v-.3c0-1-.3-2-.9-2.7-.5-.7-1.4-1-2.5-1ZM377.3 95.3l2.2-.4V84.3l-2.2-.4v-1.7h4.7l.1 2c.5-.8 1.1-1.3 1.9-1.7.7-.4 1.6-.6 2.6-.6s1.8.3 2.5.7c.7.5 1.2 1.2 1.6 2 .5-.8 1-1.4 1.8-2 .8-.4 1.7-.7 2.7-.7 1.5 0 2.7.6 3.6 1.6.9 1 1.3 2.6 1.3 4.7v6.7l2.2.4V97h-7.1v-1.7l2.2-.4V88c0-1.4-.2-2.5-.7-3-.5-.7-1.3-1-2.3-1-1 0-1.7.4-2.2 1-.6.7-1 1.5-1 2.5V95l2.2.4V97h-7.1v-1.7l2.2-.4V88c0-1.4-.3-2.4-.8-3-.5-.7-1.3-1-2.2-1-.9 0-1.5.2-2 .5-.6.4-1 .8-1.3 1.4V95l2.3.4V97h-7.2v-1.7ZM415.6 86.9h-2l-.4-1.8-1.3-.8c-.5-.2-1-.2-1.7-.2-1 0-1.6.2-2 .6a2 2 0 0 0-.8 1.5c0 .6.2 1 .6 1.4.4.3 1.3.6 2.5.9 1.9.4 3.3 1 4.2 1.6 1 .7 1.4 1.6 1.4 2.8 0 1.3-.6 2.4-1.6 3.2-1 .8-2.5 1.2-4.2 1.2a11 11 0 0 1-3-.4c-.9-.3-1.7-.6-2.4-1.1v-3.4h2l.5 2c.3.3.7.5 1.3.6l1.6.2c1 0 1.7-.2 2.3-.6.5-.4.8-.9.8-1.5s-.3-1.1-.7-1.5c-.5-.4-1.3-.7-2.6-1-1.8-.4-3.1-1-4-1.6-1-.7-1.4-1.6-1.4-2.7 0-1.2.5-2.2 1.5-3 1-1 2.4-1.4 4-1.4 1.2 0 2.2.2 3 .5 1 .3 1.7.7 2.3 1.2l.1 3.3ZM190.2 69.6c-2 0-3.7-.7-4.9-2a7.8 7.8 0 0 1-1.8-5.4v-.6c0-2 .6-3.8 1.9-5.2a5.8 5.8 0 0 1 4.4-2.1c2 0 3.5.6 4.5 1.8 1 1.2 1.6 2.8 1.6 4.8v1.7h-9.6c0 1.5.3 2.6 1 3.5.7 1 1.7 1.4 3 1.4.9 0 1.6-.1 2.3-.4.7-.2 1.3-.6 1.8-1l1 1.7c-.5.5-1.2 1-2 1.3-.9.3-2 .5-3.2.5Zm-.4-13.2a3 3 0 0 0-2.3 1.1c-.6.8-1 1.7-1.2 2.9h6.9v-.3c0-1-.3-2-.9-2.7-.5-.7-1.4-1-2.5-1ZM198.2 49.7V48h5v19.2l2.1.4v1.7h-7.1v-1.7l2.2-.4v-17l-2.2-.5ZM214.1 69.6c-2 0-3.7-.7-4.9-2a7.8 7.8 0 0 1-1.8-5.4v-.6c0-2 .6-3.8 1.9-5.2a5.8 5.8 0 0 1 4.4-2.1c2 0 3.5.6 4.5 1.8 1 1.2 1.6 2.8 1.6 4.8v1.7h-9.6c0 1.5.3 2.6 1 3.5.7 1 1.7 1.4 3 1.4.9 0 1.6-.1 2.3-.4.7-.2 1.3-.6 1.8-1l1 1.7c-.5.5-1.2 1-2 1.3-.9.3-2 .5-3.2.5Zm-.4-13.2a3 3 0 0 0-2.3 1.1c-.6.8-1 1.7-1.2 2.9h6.9v-.3c0-1-.3-2-.9-2.7-.5-.7-1.4-1-2.5-1ZM229.1 67.5c.9 0 1.7-.3 2.3-.8.7-.6 1-1.2 1-2h2.5c0 1.3-.5 2.4-1.7 3.4a6.2 6.2 0 0 1-4.1 1.5c-2.2 0-3.8-.7-5-2a8.2 8.2 0 0 1-1.6-5.4v-.6a8 8 0 0 1 1.7-5.2 6 6 0 0 1 4.9-2.1c1.2 0 2.2.2 3.2.5 1 .4 1.7 1 2.3 1.7l.2 3.2h-2.2l-.6-2.3c-.3-.3-.7-.5-1.2-.7-.5-.2-1-.3-1.7-.3-1.4 0-2.4.5-3 1.5-.6 1-1 2.3-1 3.7v.6c0 1.5.4 2.8 1 3.8s1.6 1.5 3 1.5ZM242.5 51v3.5h2.8v2h-2.8v9c0 .7.1 1.2.4 1.5.3.3.7.4 1.2.4a6.4 6.4 0 0 0 1.5-.2l.4 1.9-1.2.4-1.4.1c-1.1 0-2-.3-2.6-1-.7-.6-1-1.7-1-3v-9h-2.4v-2h2.4V51h2.7ZM248.8 56v-1.7h4.6l.3 2.1c.4-.7 1-1.3 1.5-1.7a3.6 3.6 0 0 1 2.8-.6h.5l-.4 2.6-1.5-.1a3 3 0 0 0-1.8.5c-.5.3-.8.8-1.1 1.4V67l2.2.4V69h-7.1v-1.7l2.2-.4V56.4l-2.2-.4ZM259.4 61.8c0-2.2.6-4 1.7-5.4a6 6 0 0 1 4.9-2.1c2 0 3.6.7 4.8 2a8.1 8.1 0 0 1 1.8 5.5v.3c0 2.2-.6 4-1.8 5.4a6 6 0 0 1-4.8 2.1 6 6 0 0 1-4.9-2 8.1 8.1 0 0 1-1.7-5.5v-.3Zm2.7.3a7 7 0 0 0 1 3.9c.6 1 1.6 1.5 2.9 1.5 1.3 0 2.2-.5 3-1.5a7 7 0 0 0 .9-3.9v-.3a7 7 0 0 0-1-3.9c-.7-1-1.6-1.5-3-1.5-1.2 0-2.2.5-2.9 1.5a7 7 0 0 0-1 3.9v.3ZM274.7 67.6l2.2-.4V56.7l-2.2-.4v-1.8h4.6l.2 2.2c.5-.7 1.1-1.4 1.8-1.8a5 5 0 0 1 2.6-.6c1.6 0 2.8.4 3.7 1.4.9.9 1.3 2.3 1.3 4.3v7.2l2.2.4v1.7H284v-1.7l2.2-.4V60c0-1.3-.2-2.2-.8-2.7-.5-.6-1.3-.9-2.3-.9a3.8 3.8 0 0 0-3.5 2.1v8.7l2.2.4v1.7h-7.1v-1.7ZM293 67.6l2.3-.4V56.7l-2.2-.4v-1.8h5v12.7l2.1.4v1.7h-7.1v-1.7Zm5-16.9h-2.7V48h2.7v2.7ZM309 67.5c.8 0 1.6-.3 2.3-.8.7-.6 1-1.2 1-2h2.4c.1 1.3-.4 2.4-1.6 3.4a6.2 6.2 0 0 1-4.1 1.5c-2.2 0-3.8-.7-5-2a8.2 8.2 0 0 1-1.7-5.4v-.6a8 8 0 0 1 1.7-5.2 6 6 0 0 1 5-2.1c1.1 0 2.2.2 3.1.5 1 .4 1.8 1 2.4 1.7l.1 3.2h-2.1l-.6-2.3c-.3-.3-.8-.5-1.3-.7-.5-.2-1-.3-1.6-.3-1.5 0-2.5.5-3 1.5-.7 1-1 2.3-1 3.7v.6c0 1.5.3 2.8 1 3.8.5 1 1.5 1.5 3 1.5ZM328 59.2h-2.1l-.4-1.8-1.3-.7c-.5-.2-1-.3-1.7-.3-1 0-1.6.2-2.1.7a2 2 0 0 0-.7 1.5c0 .6.2 1 .6 1.3.4.4 1.3.7 2.5 1 1.9.4 3.3.9 4.2 1.6 1 .7 1.4 1.6 1.4 2.8 0 1.3-.6 2.3-1.6 3.1-1.1.9-2.5 1.3-4.2 1.3a11 11 0 0 1-3-.4c-1-.3-1.7-.7-2.4-1.2v-3.3h2l.5 2 1.3.6 1.6.2c1 0 1.7-.2 2.2-.6.6-.4.9-1 .9-1.6 0-.5-.3-1-.7-1.4-.5-.4-1.3-.7-2.6-1-1.8-.4-3.1-1-4-1.6-1-.7-1.4-1.6-1.4-2.7 0-1.3.5-2.3 1.5-3.1 1-.9 2.4-1.3 4-1.3 1.2 0 2.2.1 3 .4 1 .3 1.7.7 2.3 1.3l.1 3.2Z" mask="url(#a)"/>
  <mask id="b" width="203" height="27" x="238.7" y="114.3" fill="#000" maskUnits="userSpaceOnUse">
    <path fill="#fff" d="M238.7 114.3h203v27h-203z"/>
    <path d="m252.3 126.6.2-.5.5-.8h.7l.7.1V126l-.3.7-.2.3-1.2 3.4-1.4 3.6-1 2.7a10 10 0 0 1-.7 2l-.1.1c0 .1 0 .2.2.3l1.4-1a30.8 30.8 0 0 0 2.1-2.1c.2 0 .3.2.5.3a18.4 18.4 0 0 1-4 3.8c-.5.2-1 .4-1.4.4l-.7-.2a.6.6 0 0 1-.2-.5l.2-1a26.9 26.9 0 0 1 1.2-2.8c0-.3.3-1 .7-1.7l-.9 1c-1 1.3-2.1 2.5-3.4 3.6-.3.2-1 .7-2.2 1.2-.4.2-.9.3-1.4.3l-1-.1c-.3-.2-.5-.4-.7-.8-.2-.2-.2-.6-.2-1.2 0-.8.1-1.6.5-2.6a14 14 0 0 1 4.9-7l2.8-1.7c1.1-.5 2-.7 3-.7a4 4 0 0 1 1.4.3Zm-8.8 12.1a25.3 25.3 0 0 0 2.2-1.3 133 133 0 0 0 2.6-2.6 16.3 16.3 0 0 0 2.4-3.7l.4-1.3.3-1.3c0-.4-.1-.7-.4-1-.2-.2-.5-.3-1-.3a3 3 0 0 0-1.2.3c-.7.3-1.5.8-2.1 1.4-.9.7-1.7 1.7-2.5 3-.8 1.2-1.4 2.2-1.7 3-.5 1.1-.7 2-.7 2.5s0 .8.3 1c.2.3.4.4.7.4h.7ZM265.8 128.1l-.5-.4-.3-.7a3 3 0 0 0-.4-.7.7.7 0 0 0-.5-.2c-.4 0-.9.2-1.4.8-.9 1-1.8 2.6-2.8 4.8-.9 2.3-1.3 4.1-1.3 5.6 0 .6 0 1 .2 1.2l.5.2c.5 0 1-.2 1.6-.8.8-.7 1.6-1.6 2.4-2.9h.8l-1 1.8c-1 1.3-1.8 2.3-2.6 2.8s-1.5.8-2.1.8c-.6 0-1-.2-1.3-.6-.5-.5-.7-1.4-.7-2.5 0-1 .3-2.2.7-3.6a21.5 21.5 0 0 1 4.4-7 8 8 0 0 1 2.2-1.5c.6-.3 1.1-.4 1.6-.4s1 .2 1.4.7c.4.4.6 1 .6 1.5 0 .4 0 .7-.3 1l-.7.2a2 2 0 0 1-.5 0ZM277 128.1l-.4-.4-.4-.7-.3-.7a.7.7 0 0 0-.5-.2c-.4 0-1 .2-1.4.8-1 1-1.8 2.6-2.8 4.8-1 2.3-1.4 4.1-1.4 5.6 0 .6.1 1 .3 1.2l.5.2c.5 0 1-.2 1.6-.8.8-.7 1.6-1.6 2.4-2.9h.8l-1 1.8c-1 1.3-1.8 2.3-2.6 2.8a4 4 0 0 1-2.2.8c-.5 0-1-.2-1.3-.6-.4-.5-.6-1.4-.6-2.5 0-1 .2-2.2.7-3.6a21.5 21.5 0 0 1 4.4-7 8 8 0 0 1 2.2-1.5c.5-.3 1-.4 1.6-.4.5 0 1 .2 1.4.7.4.4.6 1 .6 1.5 0 .4-.1.7-.3 1l-.7.2a2 2 0 0 1-.6 0ZM281.6 133.3a10 10 0 0 0-.6 3.4c0 .9.2 1.5.6 2 .3.4.6.6 1 .6l.8-.2 1.2-.8a8.3 8.3 0 0 0 1.9-3h.7a8.8 8.8 0 0 1-2.7 4c-1 .9-1.9 1.3-2.9 1.3a2 2 0 0 1-1.6-.9c-.6-.8-1-1.8-1-3.2l.3-2.1a20.7 20.7 0 0 1 1.9-4.5l1.4-2.1 1.6-1.7 1.3-.8c.4-.2.9-.3 1.4-.3a2 2 0 0 1 1.6.8c.4.5.6 1 .6 1.9 0 .6-.1 1.3-.5 2-.3.6-.7 1.1-1.1 1.4l-1.6 1-1.4.5-2.9.7Zm.3-1c.4 0 1 0 1.9-.4l1.8-1a5.8 5.8 0 0 0 1.9-2.5c.2-.5.3-1 .3-1.6 0-.4-.1-.6-.3-.9a1 1 0 0 0-.7-.3c-.3 0-.7.2-1.2.5a12 12 0 0 0-2.4 3.4l-1.3 2.9ZM291.3 136.8c.6 0 1.1.5 1.5 1.5l.6.9.7.2c.5 0 1-.2 1.5-.7.4-.4.6-1 .6-1.7a9 9 0 0 0-.7-2.7c-.5-1.7-.8-3-.8-4 0-1.5.3-2.7 1.1-3.8.8-1.1 2-1.7 3.6-1.7.7 0 1.3.2 1.7.6.5.4.7.8.7 1.4 0 .4-.1.7-.4.9-.1.2-.4.3-.6.3-.6 0-1-.2-1.5-.7a5 5 0 0 0-.9-1h-.7c-.3 0-.6 0-.9.4-.3.3-.4.6-.4 1 0 1 .3 2.4 1 4.2.5 1.8.8 3.2.8 4.2 0 .6-.2 1.3-.6 2-.4.6-1 1.1-1.8 1.6-.8.4-1.7.6-2.5.6-1 0-1.9-.2-2.4-.6a2 2 0 0 1-.7-1.6c0-.4 0-.7.3-1 .2-.2.5-.3.8-.3ZM303.4 136.8c.6 0 1 .5 1.5 1.5l.6.9.6.2c.6 0 1-.2 1.6-.7.3-.4.5-1 .5-1.7a9 9 0 0 0-.6-2.7c-.6-1.7-.9-3-.9-4 0-1.5.4-2.7 1.2-3.8.7-1.1 2-1.7 3.6-1.7.7 0 1.3.2 1.7.6.4.4.6.8.6 1.4 0 .4-.1.7-.3.9-.2.2-.4.3-.7.3-.5 0-1-.2-1.5-.7a5 5 0 0 0-.8-1h-.7c-.4 0-.7 0-1 .4-.2.3-.3.6-.3 1 0 1 .3 2.4.9 4.2.5 1.8.8 3.2.8 4.2 0 .6-.2 1.3-.5 2-.4.6-1 1.1-1.9 1.6-.8.4-1.6.6-2.5.6-1 0-1.8-.2-2.3-.6a2 2 0 0 1-.8-1.6c0-.4.1-.7.3-1 .2-.2.5-.3.9-.3ZM325.9 136.8c.6 0 1 .5 1.5 1.5l.6.9.6.2c.6 0 1-.2 1.6-.7.3-.4.5-1 .5-1.7a9 9 0 0 0-.6-2.7c-.6-1.7-.9-3-.9-4 0-1.5.4-2.7 1.1-3.8.8-1.1 2-1.7 3.7-1.7.7 0 1.3.2 1.7.6.4.4.6.8.6 1.4 0 .4-.1.7-.3.9-.2.2-.4.3-.7.3-.5 0-1-.2-1.5-.7a5 5 0 0 0-.8-1h-.7c-.4 0-.7 0-1 .4-.2.3-.3.6-.3 1 0 1 .3 2.4.9 4.2.5 1.8.8 3.2.8 4.2 0 .6-.2 1.3-.6 2-.3.6-1 1.1-1.8 1.6-.8.4-1.6.6-2.5.6-1 0-1.8-.2-2.3-.6a2 2 0 0 1-.8-1.6c0-.4.1-.7.3-1 .2-.2.5-.3.9-.3ZM349.3 129.5a12 12 0 0 1-2.7 7.6c-1.7 2.2-3.5 3.3-5.4 3.3a3 3 0 0 1-2.4-1c-.6-.8-1-2-1-3.6 0-1 .3-2.3.8-3.7a11 11 0 0 1 2.5-4.3c.6-.8 1.4-1.5 2.3-2.1a5 5 0 0 1 2.8-.9c.8 0 1.6.4 2.2 1.1.6.7.9 1.9.9 3.6Zm-9.7 8.4c0 .6.1 1 .4 1.3.3.2.7.4 1.3.4.6 0 1.2-.3 1.8-.9 1-1 2-2.8 3.2-5.3 1-2.6 1.5-4.6 1.5-6 0-.6 0-1-.3-1.3-.3-.3-.6-.4-1-.4-.7 0-1.4.4-2.2 1.3a18.2 18.2 0 0 0-3.5 5.9c-.8 2-1.2 3.7-1.2 5ZM358.6 116v-.5l3.5-.2h.8v.3l-.6 1.8-1.3 3.4-2.5 6.5-2.2 5.7-.7 1.6c-.4 1.2-.7 2-1 2.4-.4.7-.6 1.2-.6 1.5v.3c.5 0 1-.3 1.6-.9a12 12 0 0 0 2.6-2.8h.8c-.5.9-1 1.6-1.6 2.2a10.5 10.5 0 0 1-4 3l-1.2.2c-.2 0-.4 0-.5-.2a.6.6 0 0 1-.2-.4c0-.6 1-3.1 3-7.7a84 84 0 0 0 2-4.7c1-3 2-5.3 2.6-6.6a21.8 21.8 0 0 0 1.4-3.8c0-.2-.1-.4-.3-.5-.2-.2-.8-.4-1.6-.6ZM366.8 126.4l-1.7 1.4a16.7 16.7 0 0 0-2 2l-.6-.1 1.7-2.1c1-1 2-1.8 3-2.4.4-.3.8-.4 1.2-.4.3 0 .5 0 .6.2l.3.6-.3 1-.3.7c-.5 1.3-1.6 3.5-3.2 6.6-1.4 2.7-2.1 4.2-2.1 4.5v.2l1.3-.8a38.2 38.2 0 0 0 4.6-4.4c1.4-1.4 2.5-2.8 3.5-4.2.5-.8 1.3-2.2 2.3-4.4h.9c.3 0 .5 0 .7.3l-1.5 3.8-3.5 8.6-.4 1.2h.2s.2 0 .6-.4c.7-.6 1.3-1.3 1.8-2l.5-.7.6.1c-.6 1.2-1.6 2.4-3 3.7-.7.7-1.4 1-1.8 1h-.6c-.3-.3-.4-.5-.4-.7 0-.6.3-1.5.8-2.7l2.6-6.1.2-.4-1.5 1.7c-1.8 2-3.3 3.7-4.6 4.9a22.8 22.8 0 0 1-4.1 3l-1 .3-.5-.1a.8.8 0 0 1-.2-.6l.1-.7 1-2.4 3.3-6.3 1.3-2.7.3-.8-.1-.4ZM383.5 126.5h-3c0-.2 0-.6.3-1h3.1l.7-1.5a35.9 35.9 0 0 0 1.5-3.8 7 7 0 0 1 1.8 0v.3a29.8 29.8 0 0 1-2 5h3.5c0 .5 0 .8-.2 1a20.6 20.6 0 0 1-2.7.1 4 4 0 0 0-1.1.2l-3 7.2a148.7 148.7 0 0 0-1.7 4.3h.3c.3 0 .7-.2 1.2-.6 1.1-1 2.1-2 3.1-3.2.2 0 .4.2.6.4a15.4 15.4 0 0 1-6 5.3l-.9.1c-.3 0-.5 0-.7-.2l-.2-.5c0-.4.3-1.2 1-2.5l.7-1.8 2.8-6.5.9-2.3ZM395 118c0-.4.2-.8.5-1.1.3-.3.7-.5 1.2-.5.4 0 .7.1 1 .4.3.3.5.7.5 1 0 .5-.2 1-.6 1.4-.2.2-.6.4-1.2.4-.4 0-.7-.2-1-.5-.3-.2-.4-.6-.4-1Zm-.7 8.4h-.6a8.3 8.3 0 0 0-2.9 2.4l-1 .2c1-1.3 2-2.3 3.1-3 1.2-.8 2.1-1.1 2.8-1.1.3 0 .5 0 .6.2.2.1.2.3.2.5 0 .6-.3 1.7-1 3l-.6 1.4a53.3 53.3 0 0 1-3.7 7.1c-.4.7-.6 1.2-.6 1.5v.2l.3.1c.2 0 .4 0 .6-.2l1.6-1.2a10 10 0 0 0 1.6-2h.7a15 15 0 0 1-1.6 2.3c-.7.8-1.5 1.5-2.4 2-.6.4-1.2.6-1.7.6-.4 0-.7 0-.9-.2a.8.8 0 0 1-.3-.7c0-1 .7-2.7 2.1-5.3l3-5.7a12.3 12.3 0 0 0 .8-1.8l-.1-.3ZM410.3 129.5a12 12 0 0 1-2.6 7.6c-1.8 2.2-3.6 3.3-5.4 3.3a3 3 0 0 1-2.5-1c-.6-.8-1-2-1-3.6 0-1 .3-2.3.8-3.7a11 11 0 0 1 2.5-4.3c.6-.8 1.4-1.5 2.3-2.1a5 5 0 0 1 2.8-.9c.9 0 1.6.4 2.2 1.1.6.7.9 1.9.9 3.6Zm-9.7 8.4c0 .6.1 1 .4 1.3.3.2.7.4 1.3.4.6 0 1.2-.3 1.8-.9 1-1 2.1-2.8 3.2-5.3 1-2.6 1.6-4.6 1.6-6 0-.6-.2-1-.4-1.3-.3-.3-.6-.4-1-.4-.7 0-1.4.4-2.2 1.3a18.2 18.2 0 0 0-3.5 5.9c-.8 2-1.2 3.7-1.2 5ZM418 127.1l-.2-.2h-.1c-.7 0-1.7 1-3 3a3.8 3.8 0 0 1-.7 0 14.4 14.4 0 0 1 3.1-4l2-1.1a1.4 1.4 0 0 1 .7-.1c.2.2.4.4.4.7v.4l-.3.7-.8 2.3-1 2.7a42.6 42.6 0 0 0-.5 1.7c1.1-1.7 2.4-3.3 3.7-4.9 1.3-1.5 2.4-2.6 3.3-3 .6-.5 1.2-.6 1.8-.6.4 0 .7 0 1 .3.2.2.3.5.3.9v.6l-.7 2c-.3.8-1 2.7-2.3 5.5l-1.8 4.3-.1.2.1.3c.7-.1 1.7-1.2 3.1-3.3h.8c-.4.7-1 1.6-2 2.7-.6.8-1.3 1.5-2.1 2-.4.2-.9.3-1.4.3l-.7-.1-.2-.5c0-.6.3-1.6 1-3l2.7-5.9 1-2.4.4-1.2.1-.6-.1-.4-.4-.1c-.2 0-.4 0-.7.2-.9.6-1.9 1.5-3 2.8a45.4 45.4 0 0 0-7 11.2H413v-.3l.1-.7 2-5 .4-1 2.4-6.4ZM430.5 136.8c.7 0 1.2.5 1.6 1.5l.5.9.7.2c.6 0 1-.2 1.5-.7.4-.4.6-1 .6-1.7a9 9 0 0 0-.6-2.7c-.6-1.7-1-3-1-4 0-1.5.5-2.7 1.2-3.8.8-1.1 2-1.7 3.7-1.7.7 0 1.2.2 1.7.6.4.4.6.8.6 1.4 0 .4-.1.7-.3.9-.2.2-.5.3-.7.3-.6 0-1-.2-1.5-.7a5 5 0 0 0-.9-1h-.6c-.4 0-.7 0-1 .4-.2.3-.4.6-.4 1 0 1 .3 2.4 1 4.2.5 1.8.8 3.2.8 4.2 0 .6-.2 1.3-.6 2-.4.6-1 1.1-1.8 1.6-.8.4-1.6.6-2.5.6-1 0-1.8-.2-2.4-.6a2 2 0 0 1-.7-1.6c0-.4 0-.7.3-1 .2-.2.5-.3.8-.3Z"/>
  </mask>
  <path fill="#EF4644" d="m252.3 126.6.2-.5.5-.8h.7l.7.1V126l-.3.7-.2.3-1.2 3.4-1.4 3.6-1 2.7a10 10 0 0 1-.7 2l-.1.1c0 .1 0 .2.2.3l1.4-1a30.8 30.8 0 0 0 2.1-2.1c.2 0 .3.2.5.3a18.4 18.4 0 0 1-4 3.8c-.5.2-1 .4-1.4.4l-.7-.2a.6.6 0 0 1-.2-.5l.2-1a26.9 26.9 0 0 1 1.2-2.8c0-.3.3-1 .7-1.7l-.9 1c-1 1.3-2.1 2.5-3.4 3.6-.3.2-1 .7-2.2 1.2-.4.2-.9.3-1.4.3l-1-.1c-.3-.2-.5-.4-.7-.8-.2-.2-.2-.6-.2-1.2 0-.8.1-1.6.5-2.6a14 14 0 0 1 4.9-7l2.8-1.7c1.1-.5 2-.7 3-.7a4 4 0 0 1 1.4.3Zm-8.8 12.1a25.3 25.3 0 0 0 2.2-1.3 133 133 0 0 0 2.6-2.6 16.3 16.3 0 0 0 2.4-3.7l.4-1.3.3-1.3c0-.4-.1-.7-.4-1-.2-.2-.5-.3-1-.3a3 3 0 0 0-1.2.3c-.7.3-1.5.8-2.1 1.4-.9.7-1.7 1.7-2.5 3-.8 1.2-1.4 2.2-1.7 3-.5 1.1-.7 2-.7 2.5s0 .8.3 1c.2.3.4.4.7.4h.7ZM265.8 128.1l-.5-.4-.3-.7a3 3 0 0 0-.4-.7.7.7 0 0 0-.5-.2c-.4 0-.9.2-1.4.8-.9 1-1.8 2.6-2.8 4.8-.9 2.3-1.3 4.1-1.3 5.6 0 .6 0 1 .2 1.2l.5.2c.5 0 1-.2 1.6-.8.8-.7 1.6-1.6 2.4-2.9h.8l-1 1.8c-1 1.3-1.8 2.3-2.6 2.8s-1.5.8-2.1.8c-.6 0-1-.2-1.3-.6-.5-.5-.7-1.4-.7-2.5 0-1 .3-2.2.7-3.6a21.5 21.5 0 0 1 4.4-7 8 8 0 0 1 2.2-1.5c.6-.3 1.1-.4 1.6-.4s1 .2 1.4.7c.4.4.6 1 .6 1.5 0 .4 0 .7-.3 1l-.7.2a2 2 0 0 1-.5 0ZM277 128.1l-.4-.4-.4-.7-.3-.7a.7.7 0 0 0-.5-.2c-.4 0-1 .2-1.4.8-1 1-1.8 2.6-2.8 4.8-1 2.3-1.4 4.1-1.4 5.6 0 .6.1 1 .3 1.2l.5.2c.5 0 1-.2 1.6-.8.8-.7 1.6-1.6 2.4-2.9h.8l-1 1.8c-1 1.3-1.8 2.3-2.6 2.8a4 4 0 0 1-2.2.8c-.5 0-1-.2-1.3-.6-.4-.5-.6-1.4-.6-2.5 0-1 .2-2.2.7-3.6a21.5 21.5 0 0 1 4.4-7 8 8 0 0 1 2.2-1.5c.5-.3 1-.4 1.6-.4.5 0 1 .2 1.4.7.4.4.6 1 .6 1.5 0 .4-.1.7-.3 1l-.7.2a2 2 0 0 1-.6 0ZM281.6 133.3a10 10 0 0 0-.6 3.4c0 .9.2 1.5.6 2 .3.4.6.6 1 .6l.8-.2 1.2-.8a8.3 8.3 0 0 0 1.9-3h.7a8.8 8.8 0 0 1-2.7 4c-1 .9-1.9 1.3-2.9 1.3a2 2 0 0 1-1.6-.9c-.6-.8-1-1.8-1-3.2l.3-2.1a20.7 20.7 0 0 1 1.9-4.5l1.4-2.1 1.6-1.7 1.3-.8c.4-.2.9-.3 1.4-.3a2 2 0 0 1 1.6.8c.4.5.6 1 .6 1.9 0 .6-.1 1.3-.5 2-.3.6-.7 1.1-1.1 1.4l-1.6 1-1.4.5-2.9.7Zm.3-1c.4 0 1 0 1.9-.4l1.8-1a5.8 5.8 0 0 0 1.9-2.5c.2-.5.3-1 .3-1.6 0-.4-.1-.6-.3-.9a1 1 0 0 0-.7-.3c-.3 0-.7.2-1.2.5a12 12 0 0 0-2.4 3.4l-1.3 2.9ZM291.3 136.8c.6 0 1.1.5 1.5 1.5l.6.9.7.2c.5 0 1-.2 1.5-.7.4-.4.6-1 .6-1.7a9 9 0 0 0-.7-2.7c-.5-1.7-.8-3-.8-4 0-1.5.3-2.7 1.1-3.8.8-1.1 2-1.7 3.6-1.7.7 0 1.3.2 1.7.6.5.4.7.8.7 1.4 0 .4-.1.7-.4.9-.1.2-.4.3-.6.3-.6 0-1-.2-1.5-.7a5 5 0 0 0-.9-1h-.7c-.3 0-.6 0-.9.4-.3.3-.4.6-.4 1 0 1 .3 2.4 1 4.2.5 1.8.8 3.2.8 4.2 0 .6-.2 1.3-.6 2-.4.6-1 1.1-1.8 1.6-.8.4-1.7.6-2.5.6-1 0-1.9-.2-2.4-.6a2 2 0 0 1-.7-1.6c0-.4 0-.7.3-1 .2-.2.5-.3.8-.3ZM303.4 136.8c.6 0 1 .5 1.5 1.5l.6.9.6.2c.6 0 1-.2 1.6-.7.3-.4.5-1 .5-1.7a9 9 0 0 0-.6-2.7c-.6-1.7-.9-3-.9-4 0-1.5.4-2.7 1.2-3.8.7-1.1 2-1.7 3.6-1.7.7 0 1.3.2 1.7.6.4.4.6.8.6 1.4 0 .4-.1.7-.3.9-.2.2-.4.3-.7.3-.5 0-1-.2-1.5-.7a5 5 0 0 0-.8-1h-.7c-.4 0-.7 0-1 .4-.2.3-.3.6-.3 1 0 1 .3 2.4.9 4.2.5 1.8.8 3.2.8 4.2 0 .6-.2 1.3-.5 2-.4.6-1 1.1-1.9 1.6-.8.4-1.6.6-2.5.6-1 0-1.8-.2-2.3-.6a2 2 0 0 1-.8-1.6c0-.4.1-.7.3-1 .2-.2.5-.3.9-.3ZM325.9 136.8c.6 0 1 .5 1.5 1.5l.6.9.6.2c.6 0 1-.2 1.6-.7.3-.4.5-1 .5-1.7a9 9 0 0 0-.6-2.7c-.6-1.7-.9-3-.9-4 0-1.5.4-2.7 1.1-3.8.8-1.1 2-1.7 3.7-1.7.7 0 1.3.2 1.7.6.4.4.6.8.6 1.4 0 .4-.1.7-.3.9-.2.2-.4.3-.7.3-.5 0-1-.2-1.5-.7a5 5 0 0 0-.8-1h-.7c-.4 0-.7 0-1 .4-.2.3-.3.6-.3 1 0 1 .3 2.4.9 4.2.5 1.8.8 3.2.8 4.2 0 .6-.2 1.3-.6 2-.3.6-1 1.1-1.8 1.6-.8.4-1.6.6-2.5.6-1 0-1.8-.2-2.3-.6a2 2 0 0 1-.8-1.6c0-.4.1-.7.3-1 .2-.2.5-.3.9-.3ZM349.3 129.5a12 12 0 0 1-2.7 7.6c-1.7 2.2-3.5 3.3-5.4 3.3a3 3 0 0 1-2.4-1c-.6-.8-1-2-1-3.6 0-1 .3-2.3.8-3.7a11 11 0 0 1 2.5-4.3c.6-.8 1.4-1.5 2.3-2.1a5 5 0 0 1 2.8-.9c.8 0 1.6.4 2.2 1.1.6.7.9 1.9.9 3.6Zm-9.7 8.4c0 .6.1 1 .4 1.3.3.2.7.4 1.3.4.6 0 1.2-.3 1.8-.9 1-1 2-2.8 3.2-5.3 1-2.6 1.5-4.6 1.5-6 0-.6 0-1-.3-1.3-.3-.3-.6-.4-1-.4-.7 0-1.4.4-2.2 1.3a18.2 18.2 0 0 0-3.5 5.9c-.8 2-1.2 3.7-1.2 5ZM358.6 116v-.5l3.5-.2h.8v.3l-.6 1.8-1.3 3.4-2.5 6.5-2.2 5.7-.7 1.6c-.4 1.2-.7 2-1 2.4-.4.7-.6 1.2-.6 1.5v.3c.5 0 1-.3 1.6-.9a12 12 0 0 0 2.6-2.8h.8c-.5.9-1 1.6-1.6 2.2a10.5 10.5 0 0 1-4 3l-1.2.2c-.2 0-.4 0-.5-.2a.6.6 0 0 1-.2-.4c0-.6 1-3.1 3-7.7a84 84 0 0 0 2-4.7c1-3 2-5.3 2.6-6.6a21.8 21.8 0 0 0 1.4-3.8c0-.2-.1-.4-.3-.5-.2-.2-.8-.4-1.6-.6ZM366.8 126.4l-1.7 1.4a16.7 16.7 0 0 0-2 2l-.6-.1 1.7-2.1c1-1 2-1.8 3-2.4.4-.3.8-.4 1.2-.4.3 0 .5 0 .6.2l.3.6-.3 1-.3.7c-.5 1.3-1.6 3.5-3.2 6.6-1.4 2.7-2.1 4.2-2.1 4.5v.2l1.3-.8a38.2 38.2 0 0 0 4.6-4.4c1.4-1.4 2.5-2.8 3.5-4.2.5-.8 1.3-2.2 2.3-4.4h.9c.3 0 .5 0 .7.3l-1.5 3.8-3.5 8.6-.4 1.2h.2s.2 0 .6-.4c.7-.6 1.3-1.3 1.8-2l.5-.7.6.1c-.6 1.2-1.6 2.4-3 3.7-.7.7-1.4 1-1.8 1h-.6c-.3-.3-.4-.5-.4-.7 0-.6.3-1.5.8-2.7l2.6-6.1.2-.4-1.5 1.7c-1.8 2-3.3 3.7-4.6 4.9a22.8 22.8 0 0 1-4.1 3l-1 .3-.5-.1a.8.8 0 0 1-.2-.6l.1-.7 1-2.4 3.3-6.3 1.3-2.7.3-.8-.1-.4ZM383.5 126.5h-3c0-.2 0-.6.3-1h3.1l.7-1.5a35.9 35.9 0 0 0 1.5-3.8 7 7 0 0 1 1.8 0v.3a29.8 29.8 0 0 1-2 5h3.5c0 .5 0 .8-.2 1a20.6 20.6 0 0 1-2.7.1 4 4 0 0 0-1.1.2l-3 7.2a148.7 148.7 0 0 0-1.7 4.3h.3c.3 0 .7-.2 1.2-.6 1.1-1 2.1-2 3.1-3.2.2 0 .4.2.6.4a15.4 15.4 0 0 1-6 5.3l-.9.1c-.3 0-.5 0-.7-.2l-.2-.5c0-.4.3-1.2 1-2.5l.7-1.8 2.8-6.5.9-2.3ZM395 118c0-.4.2-.8.5-1.1.3-.3.7-.5 1.2-.5.4 0 .7.1 1 .4.3.3.5.7.5 1 0 .5-.2 1-.6 1.4-.2.2-.6.4-1.2.4-.4 0-.7-.2-1-.5-.3-.2-.4-.6-.4-1Zm-.7 8.4h-.6a8.3 8.3 0 0 0-2.9 2.4l-1 .2c1-1.3 2-2.3 3.1-3 1.2-.8 2.1-1.1 2.8-1.1.3 0 .5 0 .6.2.2.1.2.3.2.5 0 .6-.3 1.7-1 3l-.6 1.4a53.3 53.3 0 0 1-3.7 7.1c-.4.7-.6 1.2-.6 1.5v.2l.3.1c.2 0 .4 0 .6-.2l1.6-1.2a10 10 0 0 0 1.6-2h.7a15 15 0 0 1-1.6 2.3c-.7.8-1.5 1.5-2.4 2-.6.4-1.2.6-1.7.6-.4 0-.7 0-.9-.2a.8.8 0 0 1-.3-.7c0-1 .7-2.7 2.1-5.3l3-5.7a12.3 12.3 0 0 0 .8-1.8l-.1-.3ZM410.3 129.5a12 12 0 0 1-2.6 7.6c-1.8 2.2-3.6 3.3-5.4 3.3a3 3 0 0 1-2.5-1c-.6-.8-1-2-1-3.6 0-1 .3-2.3.8-3.7a11 11 0 0 1 2.5-4.3c.6-.8 1.4-1.5 2.3-2.1a5 5 0 0 1 2.8-.9c.9 0 1.6.4 2.2 1.1.6.7.9 1.9.9 3.6Zm-9.7 8.4c0 .6.1 1 .4 1.3.3.2.7.4 1.3.4.6 0 1.2-.3 1.8-.9 1-1 2.1-2.8 3.2-5.3 1-2.6 1.6-4.6 1.6-6 0-.6-.2-1-.4-1.3-.3-.3-.6-.4-1-.4-.7 0-1.4.4-2.2 1.3a18.2 18.2 0 0 0-3.5 5.9c-.8 2-1.2 3.7-1.2 5ZM418 127.1l-.2-.2h-.1c-.7 0-1.7 1-3 3a3.8 3.8 0 0 1-.7 0 14.4 14.4 0 0 1 3.1-4l2-1.1a1.4 1.4 0 0 1 .7-.1c.2.2.4.4.4.7v.4l-.3.7-.8 2.3-1 2.7a42.6 42.6 0 0 0-.5 1.7c1.1-1.7 2.4-3.3 3.7-4.9 1.3-1.5 2.4-2.6 3.3-3 .6-.5 1.2-.6 1.8-.6.4 0 .7 0 1 .3.2.2.3.5.3.9v.6l-.7 2c-.3.8-1 2.7-2.3 5.5l-1.8 4.3-.1.2.1.3c.7-.1 1.7-1.2 3.1-3.3h.8c-.4.7-1 1.6-2 2.7-.6.8-1.3 1.5-2.1 2-.4.2-.9.3-1.4.3l-.7-.1-.2-.5c0-.6.3-1.6 1-3l2.7-5.9 1-2.4.4-1.2.1-.6-.1-.4-.4-.1c-.2 0-.4 0-.7.2-.9.6-1.9 1.5-3 2.8a45.4 45.4 0 0 0-7 11.2H413v-.3l.1-.7 2-5 .4-1 2.4-6.4ZM430.5 136.8c.7 0 1.2.5 1.6 1.5l.5.9.7.2c.6 0 1-.2 1.5-.7.4-.4.6-1 .6-1.7a9 9 0 0 0-.6-2.7c-.6-1.7-1-3-1-4 0-1.5.5-2.7 1.2-3.8.8-1.1 2-1.7 3.7-1.7.7 0 1.2.2 1.7.6.4.4.6.8.6 1.4 0 .4-.1.7-.3.9-.2.2-.5.3-.7.3-.6 0-1-.2-1.5-.7a5 5 0 0 0-.9-1h-.6c-.4 0-.7 0-1 .4-.2.3-.4.6-.4 1 0 1 .3 2.4 1 4.2.5 1.8.8 3.2.8 4.2 0 .6-.2 1.3-.6 2-.4.6-1 1.1-1.8 1.6-.8.4-1.6.6-2.5.6-1 0-1.8-.2-2.4-.6a2 2 0 0 1-.7-1.6c0-.4 0-.7.3-1 .2-.2.5-.3.8-.3Z"/>
  <path stroke="#EF4644" d="m252.3 126.6.2-.5.5-.8h.7l.7.1V126l-.3.7-.2.3-1.2 3.4-1.4 3.6-1 2.7a10 10 0 0 1-.7 2l-.1.1c0 .1 0 .2.2.3l1.4-1a30.8 30.8 0 0 0 2.1-2.1c.2 0 .3.2.5.3a18.4 18.4 0 0 1-4 3.8c-.5.2-1 .4-1.4.4l-.7-.2a.6.6 0 0 1-.2-.5l.2-1a26.9 26.9 0 0 1 1.2-2.8c0-.3.3-1 .7-1.7l-.9 1c-1 1.3-2.1 2.5-3.4 3.6-.3.2-1 .7-2.2 1.2-.4.2-.9.3-1.4.3l-1-.1c-.3-.2-.5-.4-.7-.8-.2-.2-.2-.6-.2-1.2 0-.8.1-1.6.5-2.6a14 14 0 0 1 4.9-7l2.8-1.7c1.1-.5 2-.7 3-.7a4 4 0 0 1 1.4.3Zm-8.8 12.1a25.3 25.3 0 0 0 2.2-1.3 133 133 0 0 0 2.6-2.6 16.3 16.3 0 0 0 2.4-3.7l.4-1.3.3-1.3c0-.4-.1-.7-.4-1-.2-.2-.5-.3-1-.3a3 3 0 0 0-1.2.3c-.7.3-1.5.8-2.1 1.4-.9.7-1.7 1.7-2.5 3-.8 1.2-1.4 2.2-1.7 3-.5 1.1-.7 2-.7 2.5s0 .8.3 1c.2.3.4.4.7.4h.7ZM265.8 128.1l-.5-.4-.3-.7a3 3 0 0 0-.4-.7.7.7 0 0 0-.5-.2c-.4 0-.9.2-1.4.8-.9 1-1.8 2.6-2.8 4.8-.9 2.3-1.3 4.1-1.3 5.6 0 .6 0 1 .2 1.2l.5.2c.5 0 1-.2 1.6-.8.8-.7 1.6-1.6 2.4-2.9h.8l-1 1.8c-1 1.3-1.8 2.3-2.6 2.8s-1.5.8-2.1.8c-.6 0-1-.2-1.3-.6-.5-.5-.7-1.4-.7-2.5 0-1 .3-2.2.7-3.6a21.5 21.5 0 0 1 4.4-7 8 8 0 0 1 2.2-1.5c.6-.3 1.1-.4 1.6-.4s1 .2 1.4.7c.4.4.6 1 .6 1.5 0 .4 0 .7-.3 1l-.7.2a2 2 0 0 1-.5 0ZM277 128.1l-.4-.4-.4-.7-.3-.7a.7.7 0 0 0-.5-.2c-.4 0-1 .2-1.4.8-1 1-1.8 2.6-2.8 4.8-1 2.3-1.4 4.1-1.4 5.6 0 .6.1 1 .3 1.2l.5.2c.5 0 1-.2 1.6-.8.8-.7 1.6-1.6 2.4-2.9h.8l-1 1.8c-1 1.3-1.8 2.3-2.6 2.8a4 4 0 0 1-2.2.8c-.5 0-1-.2-1.3-.6-.4-.5-.6-1.4-.6-2.5 0-1 .2-2.2.7-3.6a21.5 21.5 0 0 1 4.4-7 8 8 0 0 1 2.2-1.5c.5-.3 1-.4 1.6-.4.5 0 1 .2 1.4.7.4.4.6 1 .6 1.5 0 .4-.1.7-.3 1l-.7.2a2 2 0 0 1-.6 0ZM281.6 133.3a10 10 0 0 0-.6 3.4c0 .9.2 1.5.6 2 .3.4.6.6 1 .6l.8-.2 1.2-.8a8.3 8.3 0 0 0 1.9-3h.7a8.8 8.8 0 0 1-2.7 4c-1 .9-1.9 1.3-2.9 1.3a2 2 0 0 1-1.6-.9c-.6-.8-1-1.8-1-3.2l.3-2.1a20.7 20.7 0 0 1 1.9-4.5l1.4-2.1 1.6-1.7 1.3-.8c.4-.2.9-.3 1.4-.3a2 2 0 0 1 1.6.8c.4.5.6 1 .6 1.9 0 .6-.1 1.3-.5 2-.3.6-.7 1.1-1.1 1.4l-1.6 1-1.4.5-2.9.7Zm.3-1c.4 0 1 0 1.9-.4l1.8-1a5.8 5.8 0 0 0 1.9-2.5c.2-.5.3-1 .3-1.6 0-.4-.1-.6-.3-.9a1 1 0 0 0-.7-.3c-.3 0-.7.2-1.2.5a12 12 0 0 0-2.4 3.4l-1.3 2.9ZM291.3 136.8c.6 0 1.1.5 1.5 1.5l.6.9.7.2c.5 0 1-.2 1.5-.7.4-.4.6-1 .6-1.7a9 9 0 0 0-.7-2.7c-.5-1.7-.8-3-.8-4 0-1.5.3-2.7 1.1-3.8.8-1.1 2-1.7 3.6-1.7.7 0 1.3.2 1.7.6.5.4.7.8.7 1.4 0 .4-.1.7-.4.9-.1.2-.4.3-.6.3-.6 0-1-.2-1.5-.7a5 5 0 0 0-.9-1h-.7c-.3 0-.6 0-.9.4-.3.3-.4.6-.4 1 0 1 .3 2.4 1 4.2.5 1.8.8 3.2.8 4.2 0 .6-.2 1.3-.6 2-.4.6-1 1.1-1.8 1.6-.8.4-1.7.6-2.5.6-1 0-1.9-.2-2.4-.6a2 2 0 0 1-.7-1.6c0-.4 0-.7.3-1 .2-.2.5-.3.8-.3ZM303.4 136.8c.6 0 1 .5 1.5 1.5l.6.9.6.2c.6 0 1-.2 1.6-.7.3-.4.5-1 .5-1.7a9 9 0 0 0-.6-2.7c-.6-1.7-.9-3-.9-4 0-1.5.4-2.7 1.2-3.8.7-1.1 2-1.7 3.6-1.7.7 0 1.3.2 1.7.6.4.4.6.8.6 1.4 0 .4-.1.7-.3.9-.2.2-.4.3-.7.3-.5 0-1-.2-1.5-.7a5 5 0 0 0-.8-1h-.7c-.4 0-.7 0-1 .4-.2.3-.3.6-.3 1 0 1 .3 2.4.9 4.2.5 1.8.8 3.2.8 4.2 0 .6-.2 1.3-.5 2-.4.6-1 1.1-1.9 1.6-.8.4-1.6.6-2.5.6-1 0-1.8-.2-2.3-.6a2 2 0 0 1-.8-1.6c0-.4.1-.7.3-1 .2-.2.5-.3.9-.3ZM325.9 136.8c.6 0 1 .5 1.5 1.5l.6.9.6.2c.6 0 1-.2 1.6-.7.3-.4.5-1 .5-1.7a9 9 0 0 0-.6-2.7c-.6-1.7-.9-3-.9-4 0-1.5.4-2.7 1.1-3.8.8-1.1 2-1.7 3.7-1.7.7 0 1.3.2 1.7.6.4.4.6.8.6 1.4 0 .4-.1.7-.3.9-.2.2-.4.3-.7.3-.5 0-1-.2-1.5-.7a5 5 0 0 0-.8-1h-.7c-.4 0-.7 0-1 .4-.2.3-.3.6-.3 1 0 1 .3 2.4.9 4.2.5 1.8.8 3.2.8 4.2 0 .6-.2 1.3-.6 2-.3.6-1 1.1-1.8 1.6-.8.4-1.6.6-2.5.6-1 0-1.8-.2-2.3-.6a2 2 0 0 1-.8-1.6c0-.4.1-.7.3-1 .2-.2.5-.3.9-.3ZM349.3 129.5a12 12 0 0 1-2.7 7.6c-1.7 2.2-3.5 3.3-5.4 3.3a3 3 0 0 1-2.4-1c-.6-.8-1-2-1-3.6 0-1 .3-2.3.8-3.7a11 11 0 0 1 2.5-4.3c.6-.8 1.4-1.5 2.3-2.1a5 5 0 0 1 2.8-.9c.8 0 1.6.4 2.2 1.1.6.7.9 1.9.9 3.6Zm-9.7 8.4c0 .6.1 1 .4 1.3.3.2.7.4 1.3.4.6 0 1.2-.3 1.8-.9 1-1 2-2.8 3.2-5.3 1-2.6 1.5-4.6 1.5-6 0-.6 0-1-.3-1.3-.3-.3-.6-.4-1-.4-.7 0-1.4.4-2.2 1.3a18.2 18.2 0 0 0-3.5 5.9c-.8 2-1.2 3.7-1.2 5ZM358.6 116v-.5l3.5-.2h.8v.3l-.6 1.8-1.3 3.4-2.5 6.5-2.2 5.7-.7 1.6c-.4 1.2-.7 2-1 2.4-.4.7-.6 1.2-.6 1.5v.3c.5 0 1-.3 1.6-.9a12 12 0 0 0 2.6-2.8h.8c-.5.9-1 1.6-1.6 2.2a10.5 10.5 0 0 1-4 3l-1.2.2c-.2 0-.4 0-.5-.2a.6.6 0 0 1-.2-.4c0-.6 1-3.1 3-7.7a84 84 0 0 0 2-4.7c1-3 2-5.3 2.6-6.6a21.8 21.8 0 0 0 1.4-3.8c0-.2-.1-.4-.3-.5-.2-.2-.8-.4-1.6-.6ZM366.8 126.4l-1.7 1.4a16.7 16.7 0 0 0-2 2l-.6-.1 1.7-2.1c1-1 2-1.8 3-2.4.4-.3.8-.4 1.2-.4.3 0 .5 0 .6.2l.3.6-.3 1-.3.7c-.5 1.3-1.6 3.5-3.2 6.6-1.4 2.7-2.1 4.2-2.1 4.5v.2l1.3-.8a38.2 38.2 0 0 0 4.6-4.4c1.4-1.4 2.5-2.8 3.5-4.2.5-.8 1.3-2.2 2.3-4.4h.9c.3 0 .5 0 .7.3l-1.5 3.8-3.5 8.6-.4 1.2h.2s.2 0 .6-.4c.7-.6 1.3-1.3 1.8-2l.5-.7.6.1c-.6 1.2-1.6 2.4-3 3.7-.7.7-1.4 1-1.8 1h-.6c-.3-.3-.4-.5-.4-.7 0-.6.3-1.5.8-2.7l2.6-6.1.2-.4-1.5 1.7c-1.8 2-3.3 3.7-4.6 4.9a22.8 22.8 0 0 1-4.1 3l-1 .3-.5-.1a.8.8 0 0 1-.2-.6l.1-.7 1-2.4 3.3-6.3 1.3-2.7.3-.8-.1-.4ZM383.5 126.5h-3c0-.2 0-.6.3-1h3.1l.7-1.5a35.9 35.9 0 0 0 1.5-3.8 7 7 0 0 1 1.8 0v.3a29.8 29.8 0 0 1-2 5h3.5c0 .5 0 .8-.2 1a20.6 20.6 0 0 1-2.7.1 4 4 0 0 0-1.1.2l-3 7.2a148.7 148.7 0 0 0-1.7 4.3h.3c.3 0 .7-.2 1.2-.6 1.1-1 2.1-2 3.1-3.2.2 0 .4.2.6.4a15.4 15.4 0 0 1-6 5.3l-.9.1c-.3 0-.5 0-.7-.2l-.2-.5c0-.4.3-1.2 1-2.5l.7-1.8 2.8-6.5.9-2.3ZM395 118c0-.4.2-.8.5-1.1.3-.3.7-.5 1.2-.5.4 0 .7.1 1 .4.3.3.5.7.5 1 0 .5-.2 1-.6 1.4-.2.2-.6.4-1.2.4-.4 0-.7-.2-1-.5-.3-.2-.4-.6-.4-1Zm-.7 8.4h-.6a8.3 8.3 0 0 0-2.9 2.4l-1 .2c1-1.3 2-2.3 3.1-3 1.2-.8 2.1-1.1 2.8-1.1.3 0 .5 0 .6.2.2.1.2.3.2.5 0 .6-.3 1.7-1 3l-.6 1.4a53.3 53.3 0 0 1-3.7 7.1c-.4.7-.6 1.2-.6 1.5v.2l.3.1c.2 0 .4 0 .6-.2l1.6-1.2a10 10 0 0 0 1.6-2h.7a15 15 0 0 1-1.6 2.3c-.7.8-1.5 1.5-2.4 2-.6.4-1.2.6-1.7.6-.4 0-.7 0-.9-.2a.8.8 0 0 1-.3-.7c0-1 .7-2.7 2.1-5.3l3-5.7a12.3 12.3 0 0 0 .8-1.8l-.1-.3ZM410.3 129.5a12 12 0 0 1-2.6 7.6c-1.8 2.2-3.6 3.3-5.4 3.3a3 3 0 0 1-2.5-1c-.6-.8-1-2-1-3.6 0-1 .3-2.3.8-3.7a11 11 0 0 1 2.5-4.3c.6-.8 1.4-1.5 2.3-2.1a5 5 0 0 1 2.8-.9c.9 0 1.6.4 2.2 1.1.6.7.9 1.9.9 3.6Zm-9.7 8.4c0 .6.1 1 .4 1.3.3.2.7.4 1.3.4.6 0 1.2-.3 1.8-.9 1-1 2.1-2.8 3.2-5.3 1-2.6 1.6-4.6 1.6-6 0-.6-.2-1-.4-1.3-.3-.3-.6-.4-1-.4-.7 0-1.4.4-2.2 1.3a18.2 18.2 0 0 0-3.5 5.9c-.8 2-1.2 3.7-1.2 5ZM418 127.1l-.2-.2h-.1c-.7 0-1.7 1-3 3a3.8 3.8 0 0 1-.7 0 14.4 14.4 0 0 1 3.1-4l2-1.1a1.4 1.4 0 0 1 .7-.1c.2.2.4.4.4.7v.4l-.3.7-.8 2.3-1 2.7a42.6 42.6 0 0 0-.5 1.7c1.1-1.7 2.4-3.3 3.7-4.9 1.3-1.5 2.4-2.6 3.3-3 .6-.5 1.2-.6 1.8-.6.4 0 .7 0 1 .3.2.2.3.5.3.9v.6l-.7 2c-.3.8-1 2.7-2.3 5.5l-1.8 4.3-.1.2.1.3c.7-.1 1.7-1.2 3.1-3.3h.8c-.4.7-1 1.6-2 2.7-.6.8-1.3 1.5-2.1 2-.4.2-.9.3-1.4.3l-.7-.1-.2-.5c0-.6.3-1.6 1-3l2.7-5.9 1-2.4.4-1.2.1-.6-.1-.4-.4-.1c-.2 0-.4 0-.7.2-.9.6-1.9 1.5-3 2.8a45.4 45.4 0 0 0-7 11.2H413v-.3l.1-.7 2-5 .4-1 2.4-6.4ZM430.5 136.8c.7 0 1.2.5 1.6 1.5l.5.9.7.2c.6 0 1-.2 1.5-.7.4-.4.6-1 .6-1.7a9 9 0 0 0-.6-2.7c-.6-1.7-1-3-1-4 0-1.5.5-2.7 1.2-3.8.8-1.1 2-1.7 3.7-1.7.7 0 1.2.2 1.7.6.4.4.6.8.6 1.4 0 .4-.1.7-.3.9-.2.2-.5.3-.7.3-.6 0-1-.2-1.5-.7a5 5 0 0 0-.9-1h-.6c-.4 0-.7 0-1 .4-.2.3-.4.6-.4 1 0 1 .3 2.4 1 4.2.5 1.8.8 3.2.8 4.2 0 .6-.2 1.3-.6 2-.4.6-1 1.1-1.8 1.6-.8.4-1.6.6-2.5.6-1 0-1.8-.2-2.4-.6a2 2 0 0 1-.7-1.6c0-.4 0-.7.3-1 .2-.2.5-.3.8-.3Z" mask="url(#b)"/>
  <path fill="#EF4644" fill-rule="evenodd" d="M0 109c0-.8.7-1.5 1.5-1.5h432a1.5 1.5 0 0 1 0 3H1.5c-.8 0-1.5-.7-1.5-1.5Z" clip-rule="evenodd"/>
  <path fill="#EF4644" fill-rule="evenodd" d="M432 108.5a8 8 0 1 1 16 0 8 8 0 0 1-16 0Zm8-5a5 5 0 1 0 0 10 5 5 0 0 0 0-10Z" clip-rule="evenodd"/>
  <path fill="#005C89" d="M49.7 72.8c0-4-.4-7.6-1.4-10.7a31.8 31.8 0 0 0-9.6-15 40 40 0 0 0-7.5-4.9 1364 1364 0 0 1-6.8-3.7c-2-1.1-3.9-2.3-5.4-3.7a13 13 0 0 1-4.8-10.5v-6.7a6 6 0 0 1 2-4.8 8 8 0 0 1 5.5-1.8h7.9a8 8 0 0 1 5.4 1.8 6 6 0 0 1 2.1 4.8h12.6a16 16 0 0 0-1.5-6.9c-1-2.2-2.4-4-4.3-5.6-1.8-1.6-4-2.9-6.4-3.8C35 .4 32.4 0 29.5 0h-7.8c-2.8 0-5.4.4-7.9 1.3-2.4 1-4.5 2.2-6.3 3.8A18.1 18.1 0 0 0 3 10.7c-1 2.2-1.6 4.5-1.6 7v6.6A23 23 0 0 0 5.7 38c2.8 4 6.7 7.2 11.6 9.8l7.9 4.3c2.4 1.4 4.5 3 6.2 4.8a21 21 0 0 1 4.2 6.6c1 2.5 1.5 5.6 1.5 9.3v9.4a6 6 0 0 1-2 4.8 8 8 0 0 1-5.5 1.8h-7.9a8 8 0 0 1-5.5-1.8 6 6 0 0 1-2-4.8v-18H1.4v18c0 2.5.5 4.7 1.6 6.9 1 2 2.5 4 4.4 5.5a21.2 21.2 0 0 0 14.2 5.2h7.9a22.2 22.2 0 0 0 14.3-5.2c1.9-1.6 3.3-3.4 4.3-5.5 1-2.2 1.5-4.4 1.5-6.9v-9.4Zm56.6-61V.7H65.9v97.8h40.4v-11H78.5V50.2h24v-11h-24V11.6h27.8Zm59.3 5.8c0-2.4-.5-4.7-1.5-6.9s-2.5-4-4.3-5.6c-1.8-1.6-4-2.9-6.5-3.8-2.5-.9-5-1.3-7.9-1.3H137c-2.8 0-5.4.4-7.9 1.3-2.4 1-4.5 2.2-6.3 3.8a18 18 0 0 0-4.4 5.6c-1 2.2-1.6 4.5-1.6 7v64.5c0 2.3.5 4.5 1.4 6.5a17.8 17.8 0 0 0 9.5 9.2c2.3 1 4.7 1.6 7.2 1.8V117h12.6V99.7c2.5-.2 5-.9 7.2-1.8a17.8 17.8 0 0 0 9.5-9.2c1-2 1.4-4.2 1.4-6.5V17.6ZM153 82.2a6 6 0 0 1-2.1 4.8 8 8 0 0 1-5.5 1.8H137a8 8 0 0 1-5.5-1.8 6 6 0 0 1-2-4.8V17.6a6 6 0 0 1 2-4.8A8 8 0 0 1 137 11h8.4a8 8 0 0 1 5.5 1.8 6 6 0 0 1 2 4.8v64.6Z"/>
</svg>
